<svg width="120" height="135" viewBox="0 0 120 135" fill="none" xmlns="http://www.w3.org/2000/svg">
<path opacity="0.4" d="M2.00438 112.86H1.96038C1.86732 112.85 1.78211 112.803 1.7233 112.731C1.66449 112.658 1.63684 112.565 1.64638 112.471C1.64638 112.459 1.73238 111.725 1.91438 110.371C1.92409 110.289 1.96336 110.214 2.02482 110.159C2.08629 110.103 2.16576 110.072 2.24838 110.071C2.26602 110.07 2.28374 110.07 2.30138 110.071C2.34703 110.076 2.39127 110.09 2.43139 110.112C2.47152 110.134 2.50668 110.165 2.53475 110.201C2.56282 110.237 2.58321 110.279 2.59466 110.323C2.60611 110.368 2.6084 110.414 2.60138 110.459C2.42338 111.762 2.33338 112.538 2.33238 112.546C2.33187 112.589 2.32293 112.63 2.30609 112.669C2.28925 112.708 2.26485 112.743 2.23431 112.772C2.20377 112.802 2.1677 112.824 2.12822 112.84C2.08874 112.855 2.04664 112.862 2.00438 112.86V112.86ZM2.55638 108.666H2.51138C2.46411 108.659 2.41875 108.643 2.37791 108.618C2.33707 108.593 2.30154 108.56 2.27338 108.521C2.24771 108.487 2.22919 108.448 2.21888 108.406C2.20858 108.364 2.20671 108.321 2.21338 108.278C2.25338 107.991 2.29638 107.695 2.34038 107.387C2.39638 107.002 2.45338 106.607 2.51138 106.187C2.52386 106.104 2.56599 106.028 2.63006 105.973C2.69414 105.917 2.77589 105.887 2.86038 105.887C2.91141 105.888 2.96184 105.899 3.00824 105.92C3.05464 105.941 3.09593 105.972 3.12932 106.011C3.1627 106.049 3.18739 106.095 3.20173 106.144C3.21606 106.192 3.21969 106.244 3.21238 106.294C3.12838 106.819 3.06038 107.314 2.99438 107.794C2.96705 107.994 2.94038 108.186 2.91438 108.369C2.8962 108.452 2.85113 108.526 2.7863 108.579C2.72147 108.633 2.64057 108.664 2.55638 108.666V108.666ZM46.1354 107.935H45.9114C45.1983 107.847 44.5416 107.503 44.0644 106.965C43.9998 106.9 43.9637 106.811 43.9637 106.719C43.9637 106.627 43.9998 106.538 44.0644 106.472C44.1301 106.408 44.2184 106.372 44.3104 106.372C44.4023 106.372 44.4906 106.408 44.5564 106.472C44.9183 106.894 45.4211 107.171 45.9714 107.249H46.1034C46.1913 107.251 46.2754 107.285 46.3385 107.347C46.4017 107.408 46.4391 107.491 46.4432 107.578C46.4473 107.666 46.4177 107.752 46.3605 107.819C46.3033 107.886 46.2228 107.928 46.1354 107.937V107.935ZM47.5644 106.711C47.5 106.712 47.4372 106.691 47.3864 106.651C47.309 106.603 47.2535 106.526 47.2311 106.437C47.2088 106.348 47.2214 106.254 47.2664 106.174C47.6123 105.591 47.9016 104.977 48.1304 104.338C48.1555 104.275 48.199 104.22 48.2555 104.18C48.3119 104.141 48.3787 104.12 48.4474 104.118C48.4921 104.119 48.5363 104.128 48.5774 104.145C48.6197 104.162 48.6583 104.186 48.691 104.218C48.7237 104.249 48.7498 104.287 48.7677 104.328C48.7857 104.37 48.7952 104.415 48.7956 104.46C48.7961 104.506 48.7875 104.551 48.7704 104.592C48.5281 105.268 48.2189 105.918 47.8474 106.532C47.8208 106.585 47.7805 106.63 47.7306 106.661C47.6808 106.693 47.6233 106.71 47.5644 106.711V106.711ZM43.0814 105.383C43.0196 105.385 42.9586 105.369 42.9056 105.337C42.8525 105.306 42.8094 105.26 42.7814 105.204C42.4684 104.665 42.1424 104.027 41.8134 103.304C41.7759 103.219 41.7736 103.123 41.807 103.036C41.8403 102.95 41.9066 102.88 41.9914 102.841C42.0366 102.822 42.0853 102.813 42.1344 102.812C42.2022 102.812 42.2687 102.831 42.3255 102.868C42.3823 102.905 42.4268 102.958 42.4534 103.02C42.7534 103.682 43.0594 104.299 43.3764 104.856C43.401 104.895 43.4174 104.938 43.4244 104.983C43.4315 105.028 43.4291 105.074 43.4174 105.117C43.3934 105.207 43.3362 105.284 43.2574 105.333C43.2033 105.363 43.143 105.38 43.0814 105.382V105.383ZM3.16638 104.517H3.10738C3.06373 104.511 3.0218 104.496 2.98403 104.473C2.94626 104.45 2.91341 104.42 2.88738 104.384C2.85963 104.346 2.83985 104.302 2.8292 104.256C2.81856 104.209 2.81726 104.161 2.82538 104.114C2.89938 103.644 2.98038 103.16 3.06638 102.648V102.64C3.09971 102.44 3.13305 102.24 3.16638 102.04C3.17833 101.959 3.21973 101.885 3.28274 101.832C3.34575 101.779 3.42602 101.75 3.50838 101.752C3.52835 101.751 3.54841 101.751 3.56838 101.752C3.61203 101.759 3.65396 101.774 3.69173 101.797C3.7295 101.82 3.76235 101.85 3.78838 101.885C3.81613 101.924 3.83591 101.968 3.84655 102.014C3.8572 102.061 3.8585 102.109 3.85038 102.155C3.80705 102.416 3.76538 102.673 3.72538 102.925C3.65338 103.375 3.58438 103.801 3.50838 104.225C3.49885 104.308 3.45827 104.385 3.39482 104.439C3.33136 104.493 3.24974 104.521 3.16638 104.517V104.517ZM49.1284 102.831C49.0944 102.833 49.0603 102.828 49.0284 102.816C48.9423 102.786 48.8703 102.725 48.8262 102.646C48.7821 102.566 48.769 102.472 48.7894 102.383C48.9704 101.766 49.1614 101.102 49.3414 100.369C49.3617 100.295 49.4058 100.229 49.467 100.181C49.5281 100.134 49.603 100.108 49.6804 100.106C49.7064 100.107 49.7322 100.11 49.7574 100.116C49.8461 100.14 49.922 100.197 49.9684 100.276C50.0159 100.354 50.031 100.446 50.0104 100.534L49.9564 100.734C49.7834 101.387 49.6204 102.004 49.4454 102.559C49.4339 102.635 49.3956 102.704 49.3374 102.754C49.2792 102.804 49.205 102.832 49.1284 102.831V102.831ZM41.3384 101.577C41.2682 101.575 41.2002 101.552 41.1422 101.513C41.0842 101.473 41.0385 101.418 41.0104 101.353C40.9504 101.189 40.8884 101.023 40.8244 100.853C40.6494 100.382 40.4694 99.8955 40.2954 99.3725C40.2667 99.2835 40.2739 99.1868 40.3156 99.103C40.3573 99.0193 40.4301 98.9552 40.5184 98.9245C40.5542 98.9126 40.5917 98.9065 40.6294 98.9065C40.7032 98.9078 40.7749 98.9317 40.8348 98.975C40.8947 99.0182 40.9399 99.0788 40.9644 99.1485C41.1744 99.7655 41.4034 100.404 41.6644 101.103C41.6832 101.147 41.693 101.194 41.693 101.241C41.693 101.288 41.6832 101.335 41.6644 101.378C41.6466 101.419 41.6206 101.455 41.588 101.484C41.5555 101.514 41.5171 101.537 41.4754 101.55L41.4274 101.564C41.3989 101.574 41.3692 101.578 41.3394 101.577H41.3384ZM3.86638 100.369H3.80738C3.7625 100.362 3.71958 100.345 3.68105 100.321C3.64253 100.297 3.60916 100.265 3.58288 100.228C3.55659 100.191 3.53789 100.149 3.52785 100.105C3.51781 100.06 3.51663 100.014 3.52438 99.9695L3.61838 99.4375V99.4315C3.70638 98.9315 3.79738 98.4205 3.89538 97.8945C3.90927 97.8119 3.95236 97.7371 4.01679 97.6837C4.08122 97.6303 4.1627 97.6018 4.24638 97.6035C4.26468 97.602 4.28308 97.602 4.30138 97.6035C4.34489 97.6103 4.38659 97.6257 4.42403 97.6489C4.46147 97.6721 4.49389 97.7026 4.51938 97.7385C4.5473 97.7767 4.56741 97.82 4.57856 97.866C4.58971 97.912 4.59169 97.9597 4.58438 98.0065C4.47338 98.5855 4.37238 99.1595 4.27438 99.7145L4.21238 100.066C4.20083 100.15 4.15948 100.227 4.09592 100.283C4.03236 100.338 3.95086 100.369 3.86638 100.369V100.369ZM50.1854 98.7695C50.1596 98.7719 50.1336 98.7671 50.1104 98.7555C50.0199 98.7347 49.9412 98.6793 49.8911 98.6011C49.841 98.523 49.8235 98.4283 49.8424 98.3375C49.9964 97.6895 50.1544 96.9425 50.2894 96.2935C50.3044 96.2154 50.346 96.145 50.407 96.0941C50.4681 96.0433 50.5449 96.0151 50.6244 96.0145C50.6516 96.0144 50.6788 96.0174 50.7054 96.0235C50.751 96.0324 50.7943 96.0505 50.8327 96.0767C50.8712 96.1028 50.9039 96.1365 50.9289 96.1757C50.954 96.2148 50.9708 96.2587 50.9785 96.3045C50.9861 96.3504 50.9844 96.3973 50.9734 96.4425C50.8294 97.1515 50.6794 97.8425 50.5274 98.5015C50.5046 98.5757 50.4598 98.6414 50.3989 98.6896C50.338 98.7378 50.2639 98.7664 50.1864 98.7715L50.1854 98.7695ZM39.9694 97.6035C39.8976 97.6039 39.8276 97.5815 39.7695 97.5394C39.7114 97.4973 39.6683 97.4378 39.6464 97.3695L39.5464 97.0525C39.3804 96.5175 39.2074 95.9645 39.0334 95.3525C39.0045 95.271 39.0092 95.1815 39.0464 95.1035C39.0688 95.0605 39.0997 95.0226 39.1372 94.9918C39.1746 94.961 39.2179 94.9382 39.2644 94.9245C39.2993 94.9134 39.3357 94.9077 39.3724 94.9075C39.4468 94.9089 39.5187 94.9346 39.5771 94.9807C39.6356 95.0267 39.6775 95.0905 39.6964 95.1625C39.8204 95.5625 39.9344 95.9375 40.0454 96.3035V96.3125V96.3205C40.1324 96.6085 40.2174 96.8885 40.3014 97.1625C40.3291 97.2495 40.3211 97.3439 40.2793 97.425C40.2375 97.5062 40.1653 97.5675 40.0784 97.5955C40.0428 97.6044 40.0059 97.6071 39.9694 97.6035V97.6035ZM4.61138 96.2495H4.55138C4.50787 96.2427 4.46617 96.2272 4.42873 96.204C4.39129 96.1808 4.35887 96.1504 4.33338 96.1145C4.30546 96.0763 4.28535 96.0329 4.2742 95.9869C4.26305 95.941 4.26107 95.8932 4.26838 95.8465C4.40038 95.1855 4.53538 94.4925 4.66838 93.7875C4.68363 93.7094 4.72544 93.6391 4.7867 93.5884C4.84795 93.5377 4.92488 93.5098 5.00438 93.5095C5.0313 93.5095 5.05813 93.5125 5.08438 93.5185C5.12993 93.5275 5.17317 93.5457 5.21153 93.5719C5.24988 93.5981 5.28255 93.6318 5.30757 93.6709C5.3326 93.71 5.34947 93.7538 5.35717 93.7996C5.36487 93.8454 5.36324 93.8923 5.35238 93.9375L5.14638 95.0235L4.95638 95.9955C4.9341 96.0694 4.88842 96.1342 4.82621 96.18C4.76401 96.2258 4.68862 96.2502 4.61138 96.2495V96.2495ZM51.0464 94.6675H50.9714C50.9264 94.6607 50.8833 94.6444 50.845 94.6198C50.8068 94.5951 50.7742 94.5626 50.7494 94.5245C50.7241 94.4867 50.7069 94.4441 50.699 94.3993C50.691 94.3546 50.6925 94.3086 50.7034 94.2645C50.7944 93.8195 50.8764 93.3645 50.9644 92.8895C51.0057 92.6641 51.0477 92.4358 51.0904 92.2045C51.1048 92.1232 51.1476 92.0496 51.2111 91.9969C51.2746 91.9442 51.3548 91.9157 51.4374 91.9165C51.4907 91.9165 51.5433 91.9293 51.5907 91.9536C51.6382 91.9779 51.6792 92.0132 51.7104 92.0565C51.7383 92.0947 51.7584 92.138 51.7696 92.184C51.7807 92.23 51.7827 92.2777 51.7754 92.3245C51.7124 92.6585 51.6504 92.9895 51.5894 93.3125V93.3355L51.5824 93.3705C51.5164 93.7195 51.4524 94.0595 51.3914 94.3835C51.3739 94.4626 51.3305 94.5336 51.2679 94.5851C51.2054 94.6365 51.1274 94.6656 51.0464 94.6675V94.6675ZM38.7624 93.5925C38.6878 93.5906 38.6157 93.565 38.5567 93.5193C38.4977 93.4736 38.4548 93.4102 38.4344 93.3385C38.2424 92.6865 38.0464 92.0095 37.8534 91.3245C37.829 91.2355 37.8403 91.1406 37.8847 91.0598C37.9291 90.979 38.0032 90.9186 38.0914 90.8915C38.1189 90.8847 38.1471 90.8813 38.1754 90.8815C38.2519 90.8819 38.3264 90.9061 38.3886 90.9507C38.4507 90.9953 38.4975 91.0581 38.5224 91.1305C38.7224 91.8305 38.9164 92.5095 39.1034 93.1455C39.1275 93.2344 39.1161 93.3292 39.0717 93.41C39.0273 93.4907 38.9534 93.5511 38.8654 93.5785C38.8326 93.591 38.7973 93.5958 38.7624 93.5925V93.5925ZM5.44638 92.1455C5.42044 92.148 5.39433 92.1428 5.37138 92.1305C5.32535 92.1205 5.28177 92.1015 5.24315 92.0745C5.20452 92.0476 5.17163 92.0132 5.14638 91.9735C5.12241 91.9349 5.10635 91.892 5.09914 91.8472C5.09193 91.8024 5.09371 91.7566 5.10438 91.7125C5.26238 90.9805 5.40438 90.3215 5.55038 89.6675C5.56787 89.588 5.61267 89.5171 5.67698 89.4673C5.74129 89.4174 5.82104 89.3916 5.90238 89.3945C5.92401 89.3928 5.94574 89.3928 5.96738 89.3945C6.0591 89.4144 6.13944 89.4693 6.19138 89.5475C6.2165 89.5863 6.23344 89.6298 6.24118 89.6753C6.24892 89.7209 6.24728 89.7676 6.23638 89.8125C6.10738 90.3975 5.96538 91.0475 5.79038 91.8575C5.77567 91.9381 5.73323 92.011 5.6704 92.0636C5.60757 92.1162 5.52832 92.1452 5.44638 92.1455V92.1455ZM51.8094 90.5335H51.7464C51.7014 90.5261 51.6582 90.5099 51.6195 90.4857C51.5808 90.4615 51.5473 90.4299 51.5209 90.3927C51.4945 90.3555 51.4757 90.3135 51.4657 90.269C51.4556 90.2245 51.4545 90.1784 51.4624 90.1335C51.5954 89.3815 51.7124 88.7075 51.8194 88.0745C51.8316 87.9927 51.8733 87.9182 51.9367 87.8652C52.0001 87.8121 52.0807 87.7841 52.1634 87.7865C52.183 87.785 52.2027 87.785 52.2224 87.7865C52.266 87.7928 52.3078 87.8078 52.3456 87.8304C52.3834 87.8531 52.4163 87.883 52.4424 87.9185C52.4702 87.9573 52.4899 88.0012 52.5006 88.0477C52.5112 88.0943 52.5125 88.1425 52.5044 88.1895C52.3774 88.9365 52.2604 89.6105 52.1474 90.2485C52.1323 90.3275 52.0904 90.399 52.0289 90.4509C51.9674 90.5028 51.8899 90.5319 51.8094 90.5335V90.5335ZM37.6304 89.5635C37.5553 89.5636 37.4822 89.5387 37.4228 89.4927C37.3634 89.4467 37.321 89.3822 37.3024 89.3095L36.7374 87.2955C36.7165 87.2066 36.7293 87.1132 36.7732 87.0333C36.8172 86.9533 36.8892 86.8924 36.9754 86.8625C37.0032 86.8557 37.0317 86.8523 37.0604 86.8525C37.1369 86.8529 37.2114 86.8771 37.2736 86.9217C37.3357 86.9663 37.3825 87.0291 37.4074 87.1015L37.9734 89.1165C37.9938 89.2054 37.9806 89.2987 37.9366 89.3786C37.8925 89.4585 37.8205 89.5193 37.7344 89.5495C37.7135 89.5498 37.6927 89.5525 37.6724 89.5575C37.659 89.5609 37.6452 89.5629 37.6314 89.5635H37.6304ZM6.36838 88.0575C6.34239 88.0615 6.31581 88.0562 6.29338 88.0425C6.24943 88.0326 6.20793 88.0139 6.17134 87.9876C6.13474 87.9613 6.10381 87.928 6.08038 87.8895C6.05653 87.8501 6.04071 87.8065 6.03385 87.761C6.02698 87.7155 6.0292 87.6691 6.04038 87.6245C6.22138 86.8495 6.38238 86.1815 6.53138 85.5795C6.5418 85.5352 6.56094 85.4934 6.58769 85.4565C6.61443 85.4197 6.64824 85.3885 6.68715 85.3649C6.72606 85.3412 6.76928 85.3256 6.8143 85.3188C6.85932 85.312 6.90524 85.3143 6.94938 85.3255C6.99333 85.3354 7.03483 85.354 7.07142 85.3803C7.10801 85.4066 7.13895 85.44 7.16238 85.4785C7.18623 85.5178 7.20205 85.5615 7.20891 85.607C7.21578 85.6525 7.21356 85.6988 7.20238 85.7435C7.04338 86.3835 6.88138 87.0605 6.72438 87.7165L6.71038 87.7735C6.69055 87.8508 6.6468 87.9199 6.58539 87.9709C6.52398 88.0219 6.44803 88.0522 6.36838 88.0575V88.0575ZM52.5244 86.4155H52.4654C52.4204 86.408 52.3774 86.3916 52.3387 86.3675C52.3001 86.3433 52.2666 86.3117 52.2402 86.2745C52.2138 86.2373 52.1951 86.1953 52.185 86.1509C52.1749 86.1064 52.1736 86.0604 52.1814 86.0155C52.2424 85.6645 52.3004 85.3075 52.3574 84.9615C52.4114 84.6315 52.4664 84.2915 52.5244 83.9555C52.5366 83.8736 52.5783 83.799 52.6416 83.7458C52.705 83.6926 52.7856 83.6644 52.8684 83.6665C52.888 83.665 52.9077 83.665 52.9274 83.6665C52.9723 83.6741 53.0152 83.6905 53.0537 83.7147C53.0922 83.739 53.1256 83.7706 53.1519 83.8077C53.1782 83.8449 53.1969 83.8869 53.2069 83.9313C53.2169 83.9757 53.2181 84.0216 53.2104 84.0665C53.1554 84.3885 53.1024 84.7195 53.0554 85.0115C52.9954 85.3835 52.9334 85.7655 52.8684 86.1405C52.8481 86.2171 52.8037 86.2852 52.7417 86.3347C52.6798 86.3842 52.6036 86.4125 52.5244 86.4155V86.4155ZM36.4994 85.5155C36.4242 85.516 36.351 85.4912 36.2915 85.4451C36.232 85.3991 36.1897 85.3344 36.1714 85.2615L36.1484 85.1815C35.9644 84.5445 35.7764 83.8895 35.6054 83.2465C35.5813 83.1575 35.5926 83.0627 35.637 82.982C35.6814 82.9012 35.7554 82.8408 35.8434 82.8135C35.874 82.8034 35.9061 82.7983 35.9384 82.7985C36.0138 82.8018 36.0864 82.8279 36.1466 82.8735C36.2068 82.919 36.2517 82.9818 36.2754 83.0535L36.5654 84.0605L36.8554 85.0675C36.8797 85.1564 36.8685 85.2514 36.8241 85.3322C36.7796 85.413 36.7055 85.4733 36.6174 85.5005C36.5792 85.5129 36.5395 85.5196 36.4994 85.5205V85.5155ZM7.36638 83.9825C7.33593 83.9849 7.30535 83.9797 7.27738 83.9675C7.18714 83.9424 7.11019 83.8831 7.0628 83.8024C7.0154 83.7216 7.00127 83.6255 7.02338 83.5345C7.14738 83.0575 7.27938 82.5785 7.40738 82.1155L7.41438 82.0885C7.46838 81.8918 7.52171 81.6971 7.57438 81.5045C7.58606 81.4599 7.60667 81.4183 7.63495 81.3819C7.66323 81.3456 7.69859 81.3154 7.73889 81.2931C7.77919 81.2709 7.82359 81.257 7.8694 81.2525C7.91521 81.2479 7.96147 81.2526 8.00538 81.2665C8.04934 81.278 8.09052 81.2983 8.12643 81.3261C8.16235 81.354 8.19226 81.3888 8.21438 81.4285C8.23853 81.4696 8.25385 81.5153 8.25936 81.5626C8.26487 81.6099 8.26045 81.6579 8.24638 81.7035C8.17438 81.9685 8.10038 82.2375 8.02538 82.5095V82.5215C7.91738 82.9145 7.80438 83.3215 7.69938 83.7215C7.68475 83.7979 7.64297 83.8664 7.58176 83.9143C7.52055 83.9623 7.44405 83.9865 7.36638 83.9825V83.9825ZM53.2084 82.2665H53.1464C53.1014 82.259 53.0584 82.2427 53.0199 82.2184C52.9813 82.1942 52.9478 82.1626 52.9215 82.1254C52.8952 82.0883 52.8765 82.0462 52.8666 82.0018C52.8566 81.9573 52.8555 81.9113 52.8634 81.8665C52.9114 81.5535 52.9634 81.2335 53.0124 80.9245V80.9135C53.0714 80.5475 53.1334 80.1685 53.1894 79.7895C53.2016 79.7079 53.2432 79.6336 53.3063 79.5805C53.3695 79.5275 53.4499 79.4993 53.5324 79.5015C53.552 79.5 53.5717 79.5 53.5914 79.5015C53.6363 79.509 53.6793 79.5253 53.7179 79.5495C53.7565 79.5737 53.7899 79.6053 53.8162 79.6425C53.8425 79.6797 53.8612 79.7217 53.8712 79.7662C53.8812 79.8106 53.8823 79.8566 53.8744 79.9015C53.7554 80.6015 53.6504 81.3015 53.5474 81.9715C53.534 82.0522 53.4929 82.1258 53.4313 82.1796C53.3696 82.2334 53.2912 82.2641 53.2094 82.2665H53.2084ZM35.3364 81.4905C35.2618 81.4886 35.1897 81.463 35.1307 81.4173C35.0717 81.3716 35.0288 81.3082 35.0084 81.2365L34.8344 80.6515L34.8274 80.6295C34.6854 80.1505 34.5484 79.6895 34.4114 79.2365C34.3837 79.1495 34.3916 79.0551 34.4334 78.9739C34.4752 78.8927 34.5475 78.8315 34.6344 78.8035C34.6666 78.7926 34.7004 78.7869 34.7344 78.7865C34.8072 78.7877 34.8778 78.8114 34.9365 78.8544C34.9953 78.8973 35.0392 78.9575 35.0624 79.0265C35.1914 79.4555 35.3214 79.8915 35.4544 80.3425L35.4594 80.3605L35.4654 80.3805L35.6574 81.0265C35.6711 81.0681 35.6763 81.112 35.6727 81.1556C35.6691 81.1992 35.6568 81.2417 35.6364 81.2805C35.6139 81.3234 35.583 81.3614 35.5456 81.3921C35.5081 81.4229 35.4649 81.4458 35.4184 81.4595C35.4114 81.4905 35.3634 81.4905 35.3374 81.4905H35.3364ZM8.49938 79.9385C8.46541 79.9396 8.43153 79.9345 8.39938 79.9235C8.3134 79.8935 8.24153 79.8328 8.1976 79.7531C8.15366 79.6733 8.14076 79.5802 8.16138 79.4915C8.38338 78.7625 8.58738 78.1025 8.78638 77.4765C8.80942 77.4071 8.85347 77.3467 8.91242 77.3035C8.97138 77.2603 9.04231 77.2365 9.11538 77.2355C9.14939 77.2359 9.18313 77.2416 9.21538 77.2525C9.30212 77.2807 9.37421 77.342 9.41597 77.4231C9.45773 77.5042 9.46579 77.5985 9.43838 77.6855C9.20438 78.4055 9.00438 79.0595 8.82838 79.6855C8.81237 79.7598 8.77051 79.826 8.71027 79.8723C8.65002 79.9186 8.57529 79.9421 8.49938 79.9385V79.9385ZM53.8644 78.1335H53.8054C53.7605 78.1258 53.7176 78.1094 53.6791 78.0852C53.6405 78.061 53.6072 78.0294 53.5809 77.9922C53.5546 77.955 53.5359 77.9131 53.5258 77.8687C53.5158 77.8243 53.5146 77.7783 53.5224 77.7335L53.8504 75.6595C53.8556 75.6135 53.8704 75.5691 53.8939 75.5292C53.9174 75.4893 53.9491 75.4548 53.9869 75.428C54.0246 75.4012 54.0676 75.3827 54.113 75.3736C54.1584 75.3646 54.2052 75.3652 54.2504 75.3755C54.2953 75.383 54.3383 75.3993 54.3769 75.4235C54.4155 75.4477 54.4489 75.4793 54.4752 75.5165C54.5015 75.5537 54.5202 75.5957 54.5302 75.6402C54.5402 75.6846 54.5413 75.7306 54.5334 75.7755L54.2054 77.8505C54.1936 77.9314 54.1521 78.005 54.0891 78.0571C54.0261 78.1092 53.946 78.1361 53.8644 78.1325V78.1335ZM34.1154 77.4915C34.042 77.4932 33.9702 77.4707 33.9109 77.4275C33.8516 77.3843 33.8082 77.3228 33.7874 77.2525C33.5594 76.5525 33.3294 75.8605 33.1324 75.2675C33.1037 75.1785 33.1109 75.0818 33.1526 74.998C33.1943 74.9143 33.2671 74.8502 33.3554 74.8195C33.3912 74.8076 33.4287 74.8015 33.4664 74.8015C33.5403 74.8029 33.6121 74.8268 33.6721 74.87C33.7322 74.9133 33.7776 74.9738 33.8024 75.0435L33.8454 75.1735C34.0454 75.7735 34.2454 76.3925 34.4574 77.0435C34.485 77.1306 34.4769 77.2251 34.435 77.3063C34.393 77.3875 34.3205 77.4487 34.2334 77.4765C34.2095 77.4773 34.1857 77.4803 34.1624 77.4855C34.1469 77.4888 34.1312 77.4908 34.1154 77.4915V77.4915ZM100.215 77.2815C100.132 77.2804 100.052 77.2496 99.989 77.1946C99.9263 77.1396 99.8853 77.064 99.8734 76.9815C99.8605 76.8887 99.8848 76.7946 99.941 76.7197C99.9972 76.6448 100.081 76.5951 100.173 76.5815C100.778 76.4707 101.328 76.1609 101.736 75.7015C101.802 75.637 101.89 75.6009 101.982 75.6009C102.074 75.6009 102.162 75.637 102.227 75.7015C102.291 75.7674 102.327 75.8556 102.327 75.9475C102.327 76.0393 102.291 76.1276 102.227 76.1935C101.715 76.7589 101.029 77.1373 100.277 77.2685C100.258 77.2787 100.236 77.2832 100.213 77.2815H100.215ZM98.2944 76.7745C98.2185 76.7723 98.1453 76.7461 98.0854 76.6995C97.5171 76.2362 97.042 75.6691 96.6854 75.0285C96.6615 74.9893 96.6457 74.9458 96.6389 74.9004C96.632 74.8551 96.6342 74.8088 96.6454 74.7644C96.6565 74.7199 96.6764 74.6781 96.7039 74.6414C96.7314 74.6046 96.7659 74.5737 96.8054 74.5505C96.8579 74.5167 96.919 74.4987 96.9814 74.4985C97.0419 74.4992 97.1012 74.5154 97.1537 74.5455C97.2062 74.5756 97.2502 74.6186 97.2814 74.6705C97.6049 75.2352 98.0233 75.7399 98.5184 76.1625C98.5902 76.2207 98.6365 76.3047 98.6475 76.3965C98.6585 76.4884 98.6334 76.5809 98.5774 76.6545C98.5402 76.6924 98.4959 76.7225 98.4469 76.7431C98.398 76.7637 98.3455 76.7744 98.2924 76.7745H98.2944ZM9.77938 75.9535C9.73879 75.9561 9.69808 75.951 9.65938 75.9385C9.6154 75.9242 9.57485 75.9009 9.54023 75.8703C9.50562 75.8396 9.47768 75.8021 9.45817 75.7602C9.43866 75.7183 9.42799 75.6728 9.42682 75.6265C9.42565 75.5803 9.43401 75.5343 9.45138 75.4915C9.67938 74.8455 9.92338 74.1595 10.1664 73.5065C10.1933 73.4398 10.2394 73.3827 10.2989 73.3422C10.3584 73.3018 10.4285 73.28 10.5004 73.2795C10.5384 73.2794 10.5763 73.2855 10.6124 73.2975C10.6977 73.3315 10.7668 73.3969 10.8056 73.4801C10.8444 73.5633 10.8501 73.6582 10.8214 73.7455C10.5904 74.3515 10.3554 75.0145 10.1214 75.7145C10.0956 75.7845 10.049 75.8449 9.9879 75.8877C9.92675 75.9304 9.85398 75.9534 9.77938 75.9535V75.9535ZM103.146 74.5955C103.088 74.5946 103.032 74.5792 102.981 74.5505C102.901 74.5077 102.841 74.4354 102.814 74.349C102.786 74.2625 102.793 74.1687 102.833 74.0875C103.141 73.4806 103.405 72.8523 103.622 72.2075C103.646 72.1395 103.69 72.0805 103.748 72.0386C103.807 71.9967 103.876 71.9739 103.948 71.9735C103.99 71.9735 104.031 71.9816 104.069 71.9975C104.114 72.0132 104.154 72.0379 104.189 72.0698C104.223 72.1018 104.25 72.1405 104.269 72.1835C104.289 72.2245 104.299 72.2691 104.3 72.3143C104.301 72.3596 104.293 72.4046 104.275 72.4465C104.049 73.1238 103.77 73.7825 103.441 74.4165C103.411 74.4689 103.369 74.5129 103.317 74.5442C103.265 74.5755 103.207 74.5932 103.146 74.5955V74.5955ZM54.5324 73.9955H54.4734C54.4283 73.9888 54.3851 73.9729 54.3464 73.9488C54.3076 73.9247 54.2743 73.893 54.2484 73.8555C54.1959 73.7785 54.1752 73.6843 54.1904 73.5925C54.2384 73.2735 54.2904 72.9495 54.3424 72.6355V72.6285C54.4014 72.2665 54.4624 71.8915 54.5174 71.5175C54.5293 71.436 54.5707 71.3617 54.6337 71.3086C54.6968 71.2555 54.777 71.2274 54.8594 71.2295C54.879 71.228 54.8987 71.228 54.9184 71.2295C54.9635 71.2362 55.0067 71.252 55.0454 71.2761C55.0841 71.3002 55.1175 71.332 55.1434 71.3695C55.1958 71.4464 55.2166 71.5406 55.2014 71.6325C55.1484 71.9805 55.0914 72.3325 55.0364 72.6765C54.9814 73.0205 54.9254 73.3655 54.8734 73.7075C54.8595 73.7876 54.8182 73.8605 54.7565 73.9136C54.6949 73.9666 54.6167 73.9967 54.5354 73.9985L54.5324 73.9955ZM32.7574 73.5185C32.6863 73.5196 32.6165 73.4987 32.5578 73.4586C32.499 73.4185 32.4542 73.3611 32.4294 73.2945C32.2194 72.7025 31.9994 72.1255 31.7864 71.5675L31.6994 71.3395C31.6807 71.2962 31.671 71.2496 31.671 71.2025C31.671 71.1553 31.6807 71.1087 31.6994 71.0655C31.7171 71.025 31.7431 70.9886 31.7756 70.9586C31.8081 70.9287 31.8465 70.9058 31.8884 70.8915C31.9302 70.8741 31.9751 70.8653 32.0204 70.8655C32.0896 70.8644 32.1574 70.8851 32.2142 70.9248C32.2709 70.9645 32.3137 71.0211 32.3364 71.0865L32.4764 71.4535C32.6764 71.9705 32.8764 72.5035 33.0764 73.0535C33.1066 73.1404 33.1018 73.2357 33.063 73.3191C33.0242 73.4026 32.9544 73.4676 32.8684 73.5005C32.8522 73.5011 32.8362 73.5031 32.8204 73.5065C32.8008 73.513 32.7807 73.5181 32.7604 73.5215L32.7574 73.5185ZM96.0114 73.3245C95.9439 73.3267 95.8774 73.3078 95.8213 73.2703C95.7651 73.2328 95.7222 73.1787 95.6984 73.1155C95.4204 72.4745 95.1594 71.8155 94.9244 71.1455C94.8941 71.0585 94.8989 70.9633 94.9378 70.8798C94.9766 70.7964 95.0464 70.7313 95.1324 70.6985C95.1694 70.6859 95.2083 70.6795 95.2474 70.6795C95.3195 70.6777 95.3904 70.6987 95.45 70.7394C95.5096 70.7801 95.5548 70.8386 95.5794 70.9065C95.8284 71.6135 96.0844 72.2605 96.3394 72.8315C96.358 72.8736 96.3682 72.919 96.3693 72.9651C96.3704 73.0112 96.3624 73.0571 96.3458 73.1C96.3292 73.143 96.3042 73.1823 96.2724 73.2157C96.2406 73.2491 96.2025 73.2758 96.1604 73.2945C96.1157 73.3188 96.0651 73.3299 96.0144 73.3265L96.0114 73.3245ZM11.2364 72.0245C11.1903 72.0215 11.1451 72.011 11.1024 71.9935C11.0573 71.9754 11.0163 71.9483 10.9819 71.9139C10.9475 71.8796 10.9205 71.8386 10.9024 71.7935C10.8856 71.7543 10.8769 71.7121 10.8769 71.6695C10.8769 71.6268 10.8856 71.5847 10.9024 71.5455C11.1764 70.8595 11.4654 70.2075 11.7364 69.6055C11.7645 69.5428 11.8109 69.4901 11.8693 69.4541C11.9278 69.4181 11.9958 69.4004 12.0644 69.4035C12.1132 69.4036 12.1614 69.4135 12.2064 69.4325C12.2913 69.4703 12.3578 69.5403 12.3914 69.627C12.4249 69.7138 12.4228 69.8103 12.3854 69.8955L12.3124 70.0625C12.0654 70.6265 11.8124 71.2085 11.5664 71.8055C11.538 71.8694 11.4924 71.9241 11.4346 71.9635C11.3768 72.0029 11.3092 72.0254 11.2394 72.0285L11.2364 72.0245ZM104.56 70.6515C104.53 70.654 104.499 70.6488 104.47 70.6365C104.381 70.6107 104.305 70.5515 104.257 70.4711C104.21 70.3906 104.196 70.2952 104.217 70.2045C104.417 69.4565 104.564 68.8115 104.694 68.1745C104.709 68.0965 104.751 68.0262 104.812 67.9755C104.873 67.9248 104.95 67.8969 105.029 67.8965C105.057 67.8964 105.084 67.8994 105.11 67.9055C105.156 67.9144 105.199 67.9325 105.237 67.9586C105.276 67.9847 105.308 68.0183 105.334 68.0573C105.359 68.0964 105.375 68.1401 105.383 68.1858C105.391 68.2316 105.389 68.2784 105.378 68.3235C105.215 69.0525 105.05 69.7455 104.887 70.3835C104.873 70.4592 104.833 70.5277 104.774 70.5773C104.715 70.6269 104.64 70.6545 104.563 70.6555L104.56 70.6515ZM55.1874 69.8605H55.1284C55.0834 69.8531 55.0403 69.8369 55.0016 69.8127C54.963 69.7885 54.9295 69.7569 54.9032 69.7197C54.8769 69.6825 54.8582 69.6404 54.8483 69.5959C54.8383 69.5514 54.8374 69.5054 54.8454 69.4605C54.9314 68.8925 55.0254 68.3375 55.1254 67.7495L55.1874 67.3865C55.1993 67.305 55.2407 67.2307 55.3037 67.1776C55.3668 67.1245 55.447 67.0964 55.5294 67.0985C55.5493 67.0969 55.5694 67.0969 55.5894 67.0985C55.633 67.105 55.675 67.1201 55.7127 67.1429C55.7505 67.1657 55.7833 67.1958 55.8094 67.2315C55.8371 67.2701 55.8569 67.3139 55.8676 67.3602C55.8782 67.4066 55.8795 67.4546 55.8714 67.5015C55.8064 67.8755 55.7454 68.2565 55.6854 68.6245V68.6375C55.6354 68.9435 55.5854 69.2605 55.5314 69.5755C55.5195 69.6569 55.4783 69.7312 55.4155 69.7844C55.3527 69.8376 55.2727 69.8661 55.1904 69.8645L55.1874 69.8605ZM31.2264 69.6255C31.1589 69.6277 31.0924 69.6088 31.0363 69.5713C30.9802 69.5338 30.9372 69.4796 30.9134 69.4165C30.6004 68.6885 30.2704 67.9855 30.0494 67.5165C30.0277 67.4743 30.015 67.4281 30.0121 67.3808C30.0091 67.3334 30.016 67.286 30.0324 67.2415C30.0478 67.1994 30.0717 67.161 30.1027 67.1286C30.1337 67.0962 30.171 67.0707 30.2124 67.0535C30.2613 67.0286 30.3155 67.0156 30.3704 67.0155C30.4345 67.0156 30.4972 67.0346 30.5505 67.0702C30.6039 67.1058 30.6456 67.1563 30.6704 67.2155C30.9584 67.7935 31.2544 68.4415 31.5494 69.1405C31.5868 69.2256 31.5889 69.3221 31.5554 69.4089C31.5218 69.4957 31.4553 69.5656 31.3704 69.6035C31.3419 69.6038 31.3134 69.6065 31.2854 69.6115C31.2661 69.6176 31.2464 69.6223 31.2264 69.6255V69.6255ZM94.5994 69.3865C94.524 69.3875 94.4506 69.3629 94.391 69.3168C94.3314 69.2707 94.2892 69.2057 94.2714 69.1325C94.0954 68.5635 93.9104 67.9185 93.6904 67.1035C93.67 67.0145 93.6831 66.9212 93.7272 66.8413C93.7713 66.7615 93.8433 66.7006 93.9294 66.6705C93.9572 66.6637 93.9857 66.6603 94.0144 66.6605C94.0909 66.6609 94.1654 66.6851 94.2276 66.7297C94.2897 66.7743 94.3365 66.8371 94.3614 66.9095C94.5614 67.6655 94.7554 68.3195 94.9414 68.9095C94.9555 68.9522 94.9608 68.9974 94.957 69.0422C94.9533 69.0871 94.9404 69.1307 94.9194 69.1705C94.8777 69.2517 94.8059 69.3134 94.7194 69.3425C94.7033 69.3575 94.6845 69.3692 94.6639 69.3769C94.6433 69.3847 94.6214 69.3882 94.5994 69.3875V69.3865ZM12.9664 68.2035C12.9088 68.2026 12.8524 68.1871 12.8024 68.1585C12.7234 68.1149 12.6632 68.0437 12.6334 67.9585C12.6186 67.9162 12.6129 67.8714 12.6165 67.8268C12.6201 67.7821 12.633 67.7388 12.6544 67.6995C12.9864 67.0335 13.3274 66.4105 13.6674 65.8495C13.6987 65.7977 13.7427 65.7548 13.7952 65.7247C13.8476 65.6946 13.9069 65.6784 13.9674 65.6775C14.0298 65.6777 14.0909 65.6957 14.1434 65.7295C14.183 65.7526 14.2176 65.7835 14.2451 65.8202C14.2727 65.8569 14.2926 65.8987 14.3038 65.9433C14.315 65.9878 14.3172 66.0341 14.3102 66.0794C14.3033 66.1248 14.2874 66.1683 14.2634 66.2075C13.8634 66.9075 13.5444 67.4815 13.2634 68.0285C13.2379 68.0846 13.1957 68.1316 13.1425 68.1629C13.0894 68.1942 13.0279 68.2084 12.9664 68.2035V68.2035ZM105.456 66.5615H105.396C105.351 66.5544 105.308 66.5383 105.269 66.5142C105.23 66.4901 105.197 66.4585 105.17 66.4212C105.144 66.3839 105.125 66.3417 105.116 66.2971C105.106 66.2525 105.105 66.2064 105.113 66.1615C105.19 65.7435 105.261 65.3065 105.335 64.8445V64.8395C105.374 64.5965 105.414 64.3505 105.455 64.1025C105.468 64.0191 105.51 63.9429 105.574 63.8879C105.638 63.8328 105.719 63.8025 105.803 63.8025C105.821 63.8011 105.839 63.8011 105.857 63.8025C105.949 63.8187 106.031 63.869 106.086 63.9433C106.142 64.0175 106.167 64.1102 106.157 64.2025C106.123 64.4125 106.09 64.6195 106.057 64.8235V64.8325C105.976 65.3405 105.9 65.8215 105.816 66.2765C105.796 66.3573 105.75 66.4295 105.686 66.4818C105.621 66.5342 105.541 66.5639 105.457 66.5665L105.456 66.5615ZM29.3794 65.8615C29.3176 65.8629 29.2566 65.8469 29.2036 65.8152C29.1505 65.7836 29.1074 65.7375 29.0794 65.6825C28.7244 65.0615 28.3484 64.4575 27.9924 63.9365C27.966 63.8996 27.9473 63.8578 27.9374 63.8136C27.9276 63.7693 27.9268 63.7235 27.9351 63.679C27.9434 63.6344 27.9606 63.592 27.9858 63.5543C28.0109 63.5165 28.0434 63.4843 28.0814 63.4595C28.141 63.4207 28.2103 63.3996 28.2814 63.3985C28.3359 63.3979 28.3897 63.4114 28.4376 63.4376C28.4854 63.4639 28.5256 63.5021 28.5544 63.5485C28.9544 64.1345 29.3154 64.7255 29.6724 65.3545C29.7144 65.4362 29.7239 65.5308 29.6991 65.6193C29.6742 65.7078 29.6168 65.7836 29.5384 65.8315C29.4877 65.8505 29.4344 65.8616 29.3804 65.8645L29.3794 65.8615ZM55.8794 65.7275H55.8204C55.7754 65.72 55.7324 65.7036 55.6939 65.6794C55.6553 65.6552 55.6218 65.6236 55.5955 65.5864C55.5692 65.5493 55.5505 65.5072 55.5406 65.4628C55.5306 65.4183 55.5295 65.3723 55.5374 65.3275C55.6024 64.9535 55.6644 64.5715 55.7234 64.2015V64.1935C55.7734 63.8855 55.8234 63.5685 55.8774 63.2525C55.89 63.1709 55.9318 63.0967 55.9951 63.0437C56.0584 62.9907 56.1388 62.9625 56.2214 62.9645C56.241 62.963 56.2607 62.963 56.2804 62.9645C56.3253 62.972 56.3684 62.9883 56.407 63.0125C56.4457 63.0367 56.4791 63.0683 56.5055 63.1054C56.5319 63.1426 56.5507 63.1846 56.5608 63.2291C56.5709 63.2735 56.5721 63.3195 56.5644 63.3645C56.4364 64.0975 56.3224 64.7595 56.2214 65.4385C56.2075 65.5202 56.1651 65.5943 56.1017 65.6477C56.0384 65.7012 55.9582 65.7305 55.8754 65.7305L55.8794 65.7275ZM93.4864 65.3395C93.4079 65.3375 93.3321 65.3103 93.2703 65.2618C93.2085 65.2133 93.164 65.1462 93.1434 65.0705C93.0434 64.6965 92.9544 64.3135 92.8544 63.9085V63.9015C92.7844 63.6155 92.7124 63.3238 92.6384 63.0265C92.6169 62.9373 92.6316 62.8432 92.6791 62.7647C92.7267 62.6862 92.8034 62.6297 92.8924 62.6075C92.919 62.6015 92.9461 62.5984 92.9734 62.5985C93.0507 62.5984 93.1258 62.6243 93.1867 62.672C93.2476 62.7197 93.2908 62.7864 93.3094 62.8615C93.4764 63.5925 93.6644 64.3125 93.8164 64.8905C93.8272 64.9354 93.8291 64.982 93.8219 65.0277C93.8147 65.0733 93.7985 65.1171 93.7744 65.1565C93.7511 65.1948 93.7203 65.2282 93.6839 65.2544C93.6475 65.2807 93.6061 65.2994 93.5624 65.3095C93.5464 65.3425 93.5134 65.3425 93.4824 65.3425L93.4864 65.3395ZM15.1004 64.6075C15.0308 64.6109 14.9622 64.5901 14.9064 64.5485C14.8677 64.5236 14.8348 64.4907 14.8097 64.4521C14.7847 64.4135 14.7683 64.37 14.7614 64.3245C14.7469 64.2313 14.7668 64.136 14.8174 64.0565C15.2197 63.4733 15.6571 62.9153 16.1274 62.3855C16.1597 62.3478 16.1997 62.3174 16.2447 62.2964C16.2897 62.2753 16.3387 62.2641 16.3884 62.2635C16.4742 62.2641 16.5566 62.2969 16.6194 62.3555C16.6549 62.385 16.684 62.4214 16.7049 62.4626C16.7258 62.5038 16.7381 62.5489 16.7409 62.595C16.7437 62.6411 16.737 62.6873 16.7213 62.7307C16.7055 62.7741 16.6811 62.8139 16.6494 62.8475C16.2394 63.3155 15.8134 63.8585 15.3834 64.4595C15.3508 64.5053 15.308 64.5429 15.2583 64.5692C15.2087 64.5956 15.1536 64.6101 15.0974 64.6115L15.1004 64.6075ZM27.0004 62.4285C26.9522 62.4278 26.9046 62.4169 26.861 62.3964C26.8174 62.3758 26.7786 62.3462 26.7474 62.3095C26.3018 61.8091 25.8078 61.3542 25.2724 60.9515C25.1983 60.8954 25.149 60.8126 25.135 60.7207C25.121 60.6288 25.1434 60.5351 25.1974 60.4595C25.2314 60.4156 25.2748 60.3799 25.3245 60.3552C25.3742 60.3304 25.4289 60.3172 25.4844 60.3165C25.5565 60.3177 25.6264 60.3415 25.6844 60.3845C26.2607 60.8092 26.7901 61.2943 27.2634 61.8315C27.2951 61.8651 27.3195 61.9048 27.3353 61.9482C27.351 61.9917 27.3577 62.0379 27.3549 62.084C27.3521 62.1301 27.3398 62.1751 27.3189 62.2163C27.298 62.2575 27.2689 62.294 27.2334 62.3235C27.1718 62.3896 27.0867 62.4288 26.9964 62.4325L27.0004 62.4285ZM106.1 62.4145H106.055C106.008 62.4072 105.963 62.3907 105.922 62.3658C105.881 62.3409 105.845 62.3082 105.817 62.2695C105.792 62.235 105.773 62.1957 105.763 62.154C105.753 62.1122 105.751 62.0689 105.758 62.0265C105.843 61.3995 105.934 60.7155 106.025 59.9525C106.035 59.8703 106.075 59.7946 106.136 59.7394C106.198 59.6842 106.278 59.6533 106.36 59.6525C106.378 59.6511 106.396 59.6511 106.413 59.6525C106.506 59.665 106.59 59.713 106.648 59.7865C106.676 59.8223 106.695 59.8633 106.706 59.907C106.717 59.9506 106.719 59.9961 106.711 60.0405C106.62 60.7935 106.53 61.4725 106.443 62.1285C106.426 62.2085 106.383 62.2805 106.32 62.3329C106.257 62.3853 106.178 62.415 106.096 62.4175L106.1 62.4145ZM56.5784 61.5785H56.5194C56.4744 61.5711 56.4313 61.5549 56.3926 61.5307C56.354 61.5065 56.3205 61.4749 56.2942 61.4377C56.2679 61.4005 56.2492 61.3584 56.2393 61.3139C56.2293 61.2694 56.2284 61.2234 56.2364 61.1785V61.1675C56.3544 60.4841 56.4727 59.8011 56.5914 59.1185C56.6036 59.0369 56.6451 58.9626 56.7083 58.9095C56.7715 58.8565 56.8519 58.8283 56.9344 58.8305C56.954 58.829 56.9737 58.829 56.9934 58.8305C57.0383 58.838 57.0813 58.8543 57.1199 58.8785C57.1585 58.9027 57.1919 58.9343 57.2182 58.9715C57.2445 59.0087 57.2632 59.0507 57.2732 59.0952C57.2832 59.1396 57.2843 59.1856 57.2764 59.2305L57.0964 60.2735L56.9184 61.2985C56.9027 61.378 56.8599 61.4496 56.7974 61.5012C56.7349 61.5528 56.6564 61.5812 56.5754 61.5815L56.5784 61.5785ZM17.8674 61.5035C17.8151 61.5051 17.7633 61.4936 17.7165 61.4703C17.6697 61.4469 17.6295 61.4122 17.5994 61.3695C17.5417 61.298 17.5143 61.2068 17.5231 61.1154C17.5319 61.024 17.5761 60.9396 17.6464 60.8805C18.2039 60.4261 18.8139 60.0403 19.4634 59.7315C19.5093 59.7123 19.5586 59.7024 19.6084 59.7025C19.6743 59.7008 19.7393 59.7182 19.7955 59.7527C19.8518 59.7871 19.8969 59.837 19.9254 59.8965C19.9627 59.9799 19.9666 60.0746 19.936 60.1608C19.9055 60.247 19.843 60.3181 19.7614 60.3595C19.1631 60.6411 18.6027 60.9969 18.0934 61.4185C18.0315 61.4743 17.9507 61.5047 17.8674 61.5035V61.5035ZM92.5734 61.2645H92.4984C92.4195 61.265 92.3427 61.2389 92.2806 61.1902C92.2185 61.1415 92.1747 61.0732 92.1564 60.9965C92.0934 60.7125 92.0274 60.4265 91.9614 60.1385V60.1305C91.8724 59.7445 91.7814 59.3455 91.6964 58.9505C91.6857 58.9064 91.6839 58.8606 91.6911 58.8158C91.6984 58.7709 91.7144 58.728 91.7384 58.6895C91.7722 58.6387 91.8179 58.5969 91.8716 58.568C91.9254 58.5391 91.9854 58.5238 92.0464 58.5235C92.1257 58.5243 92.2022 58.5523 92.2633 58.603C92.3243 58.6536 92.366 58.7237 92.3814 58.8015C92.4684 59.2015 92.5614 59.6105 92.6514 60.0015C92.7164 60.2845 92.7814 60.5665 92.8434 60.8455C92.8541 60.8902 92.8557 60.9367 92.848 60.9821C92.8402 61.0275 92.8234 61.0708 92.7984 61.1095C92.7467 61.1874 92.6667 61.2423 92.5754 61.2625L92.5734 61.2645ZM23.6464 60.0755C23.6124 60.0775 23.5783 60.0724 23.5464 60.0605C23.0754 59.9095 22.5839 59.8323 22.0894 59.8315C21.9444 59.8315 21.7984 59.8385 21.6554 59.8515H21.6274C21.5396 59.85 21.4556 59.8151 21.3926 59.7539C21.3296 59.6927 21.2923 59.6098 21.2884 59.522C21.2844 59.4343 21.3141 59.3484 21.3713 59.2817C21.4286 59.2151 21.509 59.1728 21.5964 59.1635C21.7554 59.1505 21.9174 59.1435 22.0754 59.1435C22.6518 59.1428 23.2251 59.2298 23.7754 59.4015C23.8621 59.4297 23.9342 59.491 23.976 59.5721C24.0177 59.6532 24.0258 59.7475 23.9984 59.8345C23.97 59.9049 23.9214 59.9653 23.8588 60.0082C23.7962 60.0511 23.7223 60.0745 23.6464 60.0755V60.0755ZM106.619 58.2545H106.575C106.531 58.2512 106.487 58.2387 106.448 58.2176C106.409 58.1966 106.374 58.1676 106.346 58.1325C106.317 58.0951 106.296 58.0521 106.284 58.0061C106.272 57.9602 106.27 57.9123 106.277 57.8655C106.314 57.5255 106.355 57.1755 106.395 56.8375V56.8285C106.435 56.4885 106.477 56.1375 106.514 55.7925C106.523 55.7043 106.565 55.6227 106.632 55.5642C106.698 55.5058 106.785 55.4748 106.873 55.4775H106.901C106.994 55.4878 107.079 55.5344 107.137 55.6071C107.196 55.6798 107.223 55.7727 107.213 55.8655C107.132 56.6335 107.061 57.2825 106.975 57.9555C106.959 58.0388 106.915 58.1141 106.85 58.1686C106.785 58.2231 106.703 58.2534 106.618 58.2545H106.619ZM57.2904 57.4635H57.2304C57.1854 57.456 57.1424 57.4396 57.1039 57.4154C57.0653 57.3912 57.0318 57.3596 57.0055 57.3224C56.9792 57.2853 56.9605 57.2432 56.9506 57.1988C56.9406 57.1543 56.9395 57.1083 56.9474 57.0635C57.0094 56.7065 57.0754 56.3455 57.1404 55.9965C57.1974 55.6885 57.2614 55.3395 57.3204 55.0045C57.3346 54.9233 57.3772 54.8497 57.4405 54.797C57.5039 54.7442 57.5839 54.7157 57.6664 54.7165C57.6847 54.715 57.7031 54.715 57.7214 54.7165C57.765 54.7232 57.8069 54.7386 57.8445 54.7618C57.8821 54.785 57.9147 54.8155 57.9404 54.8515C57.9682 54.8895 57.9883 54.9327 57.9994 54.9785C58.0106 55.0243 58.0126 55.0719 58.0054 55.1185C57.8784 55.7665 57.7644 56.4245 57.6534 57.0605L57.6324 57.1785C57.6196 57.2593 57.5778 57.3328 57.5149 57.3852C57.452 57.4376 57.3722 57.4655 57.2904 57.4635V57.4635ZM91.6654 57.1795H91.5904C91.5113 57.1799 91.4343 57.1535 91.3721 57.1047C91.3098 57.0558 91.2659 56.9874 91.2474 56.9105C91.1194 56.3305 90.9774 55.6805 90.8014 54.8655C90.791 54.821 90.7896 54.7749 90.7973 54.7299C90.805 54.6849 90.8217 54.6419 90.8464 54.6035C90.8804 54.5536 90.926 54.5127 90.9793 54.4843C91.0326 54.4559 91.092 54.4408 91.1524 54.4405C91.2318 54.4413 91.3085 54.4695 91.3695 54.5204C91.4306 54.5712 91.4722 54.6415 91.4874 54.7195C91.6104 55.2885 91.7724 56.0355 91.9334 56.7635C91.9442 56.8085 91.9459 56.8553 91.9382 56.9009C91.9306 56.9466 91.9138 56.9903 91.8889 57.0293C91.8639 57.0684 91.8314 57.102 91.7932 57.1281C91.7549 57.1542 91.7118 57.1724 91.6664 57.1815L91.6654 57.1795ZM107.079 54.0895H107.035C106.942 54.0794 106.857 54.0329 106.799 53.9602C106.74 53.8874 106.713 53.7944 106.722 53.7015L106.737 53.5525C106.817 52.8605 106.887 52.2375 106.945 51.6125C106.954 51.5243 106.996 51.4427 107.063 51.3842C107.129 51.3258 107.216 51.2948 107.304 51.2975H107.332C107.425 51.3078 107.51 51.3545 107.569 51.4275C107.627 51.5004 107.654 51.5935 107.644 51.6865C107.564 52.3695 107.494 52.9865 107.435 53.6265L107.421 53.7755C107.415 53.8615 107.376 53.9418 107.312 54.0003C107.249 54.0588 107.166 54.091 107.079 54.0905V54.0895ZM58.0644 53.3435H58.0054C57.9616 53.3366 57.9197 53.321 57.8821 53.2977C57.8445 53.2743 57.8119 53.2436 57.7864 53.2075C57.7585 53.1693 57.7384 53.1259 57.7272 53.0799C57.716 53.034 57.7141 52.9862 57.7214 52.9395L58.0824 51.0915L58.1234 50.8805C58.1383 50.8048 58.1783 50.7363 58.2369 50.686C58.2955 50.6358 58.3693 50.6067 58.4464 50.6035C58.472 50.6033 58.4975 50.6063 58.5224 50.6125C58.5694 50.6228 58.614 50.6423 58.6535 50.67C58.693 50.6976 58.7266 50.7328 58.7524 50.7735C58.7746 50.809 58.7894 50.8487 58.7959 50.8901C58.8024 50.9315 58.8006 50.9738 58.7904 51.0145L58.5904 52.0445L58.3904 53.0745C58.3776 53.1512 58.3377 53.2207 58.2778 53.2703C58.2179 53.3199 58.1421 53.3462 58.0644 53.3445V53.3435ZM90.7714 53.0755H90.6964C90.6173 53.0759 90.5403 53.0495 90.4781 53.0007C90.4158 52.9518 90.3719 52.8834 90.3534 52.8065C90.2794 52.4635 90.2044 52.1235 90.1304 51.7835C90.0564 51.4435 89.9814 51.1045 89.9074 50.7615C89.8965 50.7166 89.8948 50.6699 89.9026 50.6243C89.9103 50.5788 89.9273 50.5353 89.9524 50.4965C89.9857 50.4473 90.0303 50.4068 90.0825 50.3784C90.1347 50.35 90.193 50.3346 90.2524 50.3335C90.3318 50.3343 90.4085 50.3625 90.4695 50.4134C90.5306 50.4642 90.5722 50.5345 90.5874 50.6125L90.6794 51.0345C90.7954 51.5685 90.9154 52.1205 91.0344 52.6565C91.0451 52.7016 91.0466 52.7483 91.0388 52.794C91.0311 52.8397 91.0142 52.8834 90.9891 52.9224C90.9641 52.9614 90.9315 52.995 90.8932 53.0211C90.855 53.0472 90.8118 53.0654 90.7664 53.0745L90.7714 53.0755ZM107.541 49.9265H107.497C107.405 49.9161 107.32 49.8696 107.261 49.7969C107.202 49.7242 107.175 49.6314 107.184 49.5385C107.261 48.8165 107.355 48.0815 107.437 47.4485C107.447 47.3665 107.487 47.2909 107.548 47.2358C107.609 47.1806 107.689 47.1496 107.771 47.1485C107.789 47.1471 107.807 47.1471 107.824 47.1485C107.87 47.1532 107.914 47.1672 107.954 47.1895C107.994 47.2118 108.029 47.242 108.057 47.2783C108.085 47.3146 108.106 47.3561 108.117 47.4005C108.129 47.4449 108.131 47.4911 108.124 47.5365C108.076 47.9025 108.032 48.2725 107.99 48.6305C107.952 48.9505 107.913 49.2815 107.871 49.6105C107.871 49.6531 107.863 49.6953 107.846 49.7346C107.829 49.7738 107.804 49.8092 107.774 49.8387C107.743 49.8682 107.706 49.8912 107.666 49.9063C107.627 49.9214 107.584 49.9282 107.541 49.9265V49.9265ZM58.8694 49.2395H58.7944C58.7488 49.2306 58.7055 49.2127 58.6671 49.1866C58.6287 49.1605 58.5959 49.1269 58.5709 49.0879C58.5458 49.0488 58.5289 49.005 58.5213 48.9592C58.5137 48.9134 58.5154 48.8666 58.5264 48.8215C58.6034 48.4695 58.6764 48.1125 58.7474 47.7665C58.8154 47.4385 58.8854 47.0985 58.9584 46.7665C58.9736 46.6885 59.0152 46.6182 59.0762 46.5674C59.1373 46.5165 59.214 46.4883 59.2934 46.4875C59.3206 46.4874 59.3478 46.4904 59.3744 46.4965C59.42 46.5053 59.4633 46.5233 59.5017 46.5494C59.5401 46.5754 59.5728 46.609 59.5979 46.6481C59.6229 46.6872 59.6398 46.7309 59.6475 46.7767C59.6551 46.8225 59.6534 46.8694 59.6424 46.9145C59.5634 47.2725 59.4864 47.6415 59.4134 47.9975C59.3474 48.3135 59.2804 48.6385 59.2134 48.9585C59.1974 49.038 59.1545 49.1095 59.0918 49.1609C59.029 49.2123 58.9505 49.2404 58.8694 49.2405V49.2395ZM89.8784 48.9855H89.8034C89.7244 48.9859 89.6476 48.9597 89.5853 48.9111C89.5231 48.8624 89.4791 48.7942 89.4604 48.7175C89.2854 47.9085 89.1434 47.2785 88.9984 46.6725C88.9877 46.6274 88.9862 46.5806 88.9939 46.5349C89.0017 46.4892 89.0186 46.4456 89.0436 46.4066C89.0686 46.3675 89.1012 46.334 89.1395 46.3078C89.1778 46.2817 89.2209 46.2636 89.2664 46.2545C89.293 46.2484 89.3201 46.2454 89.3474 46.2455C89.4268 46.246 89.5037 46.274 89.5649 46.3247C89.6261 46.3753 89.668 46.4455 89.6834 46.5235C89.7594 46.8745 89.8404 47.2235 89.9194 47.5695C89.9984 47.9155 90.0724 48.2315 90.1454 48.5695C90.1561 48.6146 90.1576 48.6613 90.1498 48.707C90.1421 48.7527 90.1252 48.7964 90.1001 48.8354C90.0751 48.8744 90.0425 48.908 90.0042 48.9341C89.966 48.9602 89.9228 48.9784 89.8774 48.9875L89.8784 48.9855ZM108.063 45.7625H108.018C107.923 45.7472 107.837 45.6947 107.78 45.6165C107.755 45.582 107.736 45.5427 107.726 45.501C107.716 45.4593 107.714 45.4159 107.72 45.3735C107.811 44.7235 107.91 44.0605 108.032 43.2845C108.045 43.203 108.086 43.1288 108.15 43.0758C108.213 43.0228 108.293 42.9946 108.375 42.9965C108.395 42.995 108.415 42.995 108.434 42.9965C108.479 43.004 108.522 43.0203 108.561 43.0445C108.599 43.0687 108.633 43.1003 108.659 43.1375C108.686 43.1747 108.704 43.2167 108.714 43.2612C108.724 43.3056 108.725 43.3516 108.717 43.3965C108.599 44.1215 108.503 44.7515 108.417 45.4715C108.4 45.5529 108.355 45.626 108.291 45.679C108.227 45.732 108.147 45.7617 108.063 45.7635V45.7625ZM59.7464 45.1365C59.7206 45.1389 59.6946 45.1341 59.6714 45.1225C59.6258 45.1134 59.5826 45.0952 59.5442 45.069C59.5059 45.0428 59.4732 45.0092 59.4482 44.97C59.4232 44.9309 59.4063 44.8871 59.3986 44.8413C59.3909 44.7955 59.3925 44.7486 59.4034 44.7035C59.5034 44.2245 59.6144 43.7515 59.7194 43.2945C59.7694 43.0785 59.8194 42.8675 59.8644 42.6605C59.8817 42.585 59.9242 42.5177 59.9849 42.4697C60.0457 42.4217 60.121 42.3959 60.1984 42.3965C60.2267 42.3963 60.2549 42.3997 60.2824 42.4065C60.3261 42.4163 60.3674 42.4348 60.4038 42.4609C60.4403 42.487 60.471 42.5202 60.4944 42.5585C60.5185 42.5979 60.5345 42.6417 60.5415 42.6874C60.5486 42.733 60.5465 42.7796 60.5354 42.8245C60.4874 43.0371 60.438 43.2525 60.3874 43.4705V43.4775C60.2874 43.9295 60.1754 44.3965 60.0754 44.8695C60.0649 44.9475 60.025 45.0186 59.9638 45.0682C59.9027 45.1179 59.8249 45.1423 59.7464 45.1365V45.1365ZM88.9534 44.8975H88.8784C88.7993 44.8979 88.7223 44.8715 88.6601 44.8227C88.5978 44.7738 88.5539 44.7054 88.5354 44.6285C88.4644 44.3285 88.3944 44.0285 88.3274 43.7385V43.7295V43.7225C88.2424 43.3535 88.1544 42.9725 88.0634 42.5995C88.0416 42.5105 88.0561 42.4165 88.1035 42.3382C88.1509 42.2598 88.2275 42.2035 88.3164 42.1815C88.3415 42.175 88.3674 42.1716 88.3934 42.1715C88.4709 42.1726 88.5459 42.1988 88.6072 42.2463C88.6686 42.2937 88.7128 42.3597 88.7334 42.4345C88.8804 43.0345 89.0524 43.7545 89.2094 44.4795C89.2311 44.5684 89.2167 44.6624 89.1693 44.7408C89.1218 44.8191 89.0453 44.8755 88.9564 44.8975H88.9534ZM118.859 44.3445H118.815C118.731 44.3458 118.65 44.3159 118.586 44.2604C118.523 44.205 118.482 44.1281 118.472 44.0445C118.412 43.5775 118.306 42.8445 118.144 41.9845C118.129 41.8922 118.15 41.7975 118.203 41.7205C118.229 41.6835 118.262 41.6522 118.301 41.6285C118.339 41.6048 118.382 41.5891 118.426 41.5825C118.446 41.5809 118.466 41.5809 118.486 41.5825C118.569 41.5804 118.649 41.6085 118.712 41.6616C118.775 41.7147 118.816 41.789 118.828 41.8705C118.955 42.5535 119.065 43.2565 119.156 43.9595C119.164 44.0064 119.161 44.0543 119.149 44.1003C119.137 44.1462 119.116 44.1892 119.086 44.2265C119.059 44.2608 119.025 44.2891 118.986 44.3096C118.947 44.3301 118.904 44.3423 118.86 44.3455L118.859 44.3445ZM108.731 41.6135H108.672C108.629 41.6066 108.587 41.591 108.549 41.5677C108.511 41.5443 108.479 41.5136 108.453 41.4775C108.426 41.4394 108.406 41.3962 108.395 41.3504C108.384 41.3045 108.382 41.257 108.389 41.2105C108.529 40.4335 108.679 39.7355 108.835 39.1355C108.846 39.0913 108.865 39.0497 108.892 39.013C108.919 38.9763 108.952 38.9453 108.991 38.9217C109.03 38.8981 109.073 38.8823 109.118 38.8754C109.163 38.8686 109.208 38.8706 109.252 38.8815C109.296 38.8914 109.337 38.91 109.374 38.9361C109.41 38.9622 109.441 38.9953 109.464 39.0335C109.489 39.0729 109.505 39.1166 109.512 39.1623C109.519 39.2079 109.517 39.2546 109.506 39.2995C109.347 39.9505 109.206 40.6335 109.074 41.3285C109.057 41.4072 109.014 41.4779 108.953 41.5297C108.891 41.5814 108.814 41.6112 108.733 41.6145L108.731 41.6135ZM60.6994 41.0605C60.669 41.0626 60.6386 41.0578 60.6104 41.0465C60.5666 41.0364 60.5253 41.0177 60.4889 40.9914C60.4525 40.9652 60.4217 40.9318 60.3984 40.8935C60.3743 40.8541 60.3582 40.8102 60.3512 40.7646C60.3442 40.7189 60.3463 40.6723 60.3574 40.6275C60.4087 40.4275 60.4594 40.2275 60.5094 40.0275C60.6344 39.5275 60.7514 39.0575 60.8784 38.6025C60.8995 38.5262 60.9453 38.459 61.0086 38.4114C61.0719 38.3639 61.1492 38.3386 61.2284 38.3395C61.256 38.3394 61.2835 38.3424 61.3104 38.3485C61.3556 38.3587 61.3982 38.3783 61.4354 38.4061C61.4726 38.4338 61.5036 38.469 61.5264 38.5095C61.5726 38.5922 61.5858 38.6894 61.5634 38.7815C61.508 39.0028 61.4514 39.2258 61.3934 39.4505C61.2804 39.8925 61.1644 40.3505 61.0564 40.8105C61.0294 40.8834 60.981 40.9465 60.9174 40.9913C60.8538 41.0362 60.7782 41.0606 60.7004 41.0615L60.6994 41.0605ZM87.8994 40.8215C87.8209 40.8195 87.7451 40.7923 87.6833 40.7438C87.6215 40.6953 87.577 40.6282 87.5564 40.5525L87.5134 40.3885C87.3524 39.7695 87.1864 39.1305 87.0354 38.5235C87.0142 38.4326 87.0287 38.3372 87.0757 38.2566C87.1228 38.1761 87.1989 38.1167 87.2884 38.0905C87.3155 38.0838 87.3434 38.0804 87.3714 38.0805C87.4502 38.081 87.5268 38.107 87.5897 38.1546C87.6526 38.2021 87.6984 38.2687 87.7204 38.3445C87.9204 39.0615 88.0914 39.7445 88.2414 40.3745C88.2526 40.4191 88.2548 40.4655 88.2479 40.511C88.241 40.5565 88.2252 40.6001 88.2014 40.6395C88.1779 40.678 88.147 40.7113 88.1104 40.7376C88.0738 40.7639 88.0323 40.7826 87.9884 40.7925C87.9623 40.8126 87.9303 40.8236 87.8974 40.8235L87.8994 40.8215ZM118.133 40.2215H118.059C117.98 40.2219 117.903 40.1955 117.841 40.1467C117.779 40.0978 117.735 40.0294 117.716 39.9525C117.549 39.2855 117.365 38.5835 117.15 37.9675C117.123 37.8805 117.131 37.7861 117.172 37.7049C117.214 37.6237 117.286 37.5625 117.373 37.5345C117.406 37.5237 117.439 37.5179 117.473 37.5175C117.546 37.5185 117.617 37.5423 117.676 37.5855C117.735 37.6287 117.779 37.6891 117.802 37.7585C118.002 38.3635 118.202 39.0515 118.383 39.8025C118.405 39.8916 118.39 39.9854 118.342 40.0636C118.295 40.1419 118.218 40.1982 118.129 40.2205L118.133 40.2215ZM109.733 37.5505C109.699 37.5524 109.665 37.5473 109.633 37.5355C109.545 37.5052 109.472 37.4413 109.43 37.3577C109.389 37.274 109.381 37.1773 109.41 37.0885C109.625 36.4021 109.905 35.7375 110.244 35.1035C110.274 35.0501 110.318 35.0056 110.37 34.9746C110.423 34.9437 110.483 34.9274 110.544 34.9275C110.605 34.9278 110.664 34.9421 110.717 34.9695C110.797 35.0162 110.856 35.0922 110.881 35.1814C110.906 35.2706 110.895 35.366 110.851 35.4475C110.53 36.0427 110.266 36.6671 110.062 37.3125C110.039 37.3822 109.995 37.443 109.935 37.4865C109.876 37.53 109.805 37.5541 109.731 37.5555L109.733 37.5505ZM61.7584 37.0035C61.7279 37.0059 61.6973 37.0008 61.6694 36.9885C61.6255 36.9772 61.5843 36.9571 61.5484 36.9294C61.5124 36.9017 61.4825 36.8671 61.4604 36.8275C61.4372 36.7867 61.4227 36.7416 61.4177 36.695C61.4127 36.6484 61.4174 36.6012 61.4314 36.5565C61.6224 35.8785 61.8184 35.1825 62.0124 34.5415C62.0376 34.4691 62.0846 34.4063 62.1469 34.3617C62.2092 34.3172 62.2838 34.293 62.3604 34.2925C62.3887 34.2923 62.4169 34.2957 62.4444 34.3025C62.5306 34.3324 62.6026 34.3933 62.6465 34.4733C62.6905 34.5532 62.7033 34.6466 62.6824 34.7355C62.4894 35.3745 62.2944 36.0525 62.1014 36.7495C62.0795 36.8233 62.0342 36.888 61.9723 36.9338C61.9104 36.9796 61.8354 37.0041 61.7584 37.0035V37.0035ZM86.9284 36.7795H86.8094C86.7342 36.78 86.661 36.7552 86.6015 36.7091C86.542 36.6631 86.4997 36.5984 86.4814 36.5255C86.2694 35.7755 86.0814 35.1255 85.9004 34.5255C85.8866 34.4841 85.8812 34.4404 85.8847 34.3969C85.8881 34.3535 85.9002 34.3111 85.9204 34.2725C85.9428 34.2295 85.9737 34.1916 86.0112 34.1608C86.0486 34.13 86.0919 34.1071 86.1384 34.0935C86.1706 34.0826 86.2044 34.0769 86.2384 34.0765C86.3135 34.0779 86.3861 34.1036 86.4454 34.1498C86.5048 34.1959 86.5475 34.26 86.5674 34.3325L86.6284 34.5325C86.8064 35.1215 86.9904 35.7325 87.1634 36.3445C87.1877 36.4334 87.1765 36.5284 87.1321 36.6092C87.0877 36.69 87.0135 36.7503 86.9254 36.7775L86.9284 36.7795ZM116.715 36.2575C116.65 36.2576 116.587 36.2394 116.532 36.2052C116.476 36.1709 116.432 36.1218 116.403 36.0635C116.133 35.4539 115.777 34.8862 115.345 34.3775C115.302 34.3267 115.273 34.2644 115.263 34.1981C115.254 34.1317 115.263 34.0639 115.29 34.0026C115.317 33.9413 115.361 33.889 115.417 33.8518C115.473 33.8146 115.538 33.794 115.605 33.7925C115.655 33.793 115.704 33.8042 115.75 33.8253C115.795 33.8463 115.835 33.8767 115.867 33.9145C116.339 34.4689 116.73 35.0865 117.029 35.7495C117.051 35.7916 117.064 35.8379 117.067 35.8852C117.07 35.9325 117.063 35.98 117.046 36.0245C117.031 36.0666 117.007 36.105 116.976 36.1373C116.945 36.1697 116.908 36.1953 116.866 36.2125C116.821 36.2405 116.769 36.2558 116.716 36.2565L116.715 36.2575ZM111.904 34.0785C111.849 34.0775 111.794 34.0635 111.745 34.0376C111.696 34.0118 111.654 33.9747 111.621 33.9295C111.571 33.8525 111.551 33.7594 111.565 33.6685C111.573 33.6243 111.59 33.5822 111.615 33.545C111.64 33.5078 111.672 33.4763 111.71 33.4525C112.265 33.0296 112.938 32.7899 113.635 32.7665C113.724 32.7664 113.812 32.7711 113.9 32.7805C113.946 32.7842 113.991 32.7974 114.031 32.8192C114.071 32.8411 114.106 32.8712 114.134 32.9075C114.192 32.9815 114.22 33.0747 114.212 33.1685C114.203 33.2564 114.161 33.3376 114.094 33.3959C114.028 33.4542 113.942 33.4855 113.853 33.4835H113.825C113.763 33.4762 113.7 33.4725 113.636 33.4725C113.084 33.5029 112.553 33.6987 112.112 34.0345C112.047 34.0612 111.976 34.0758 111.905 34.0775L111.904 34.0785ZM62.9644 32.9895C62.9304 32.9914 62.8963 32.9863 62.8644 32.9745C62.7779 32.9453 62.7061 32.8836 62.6644 32.8025C62.6431 32.7628 62.6301 32.7192 62.6261 32.6743C62.6222 32.6295 62.6274 32.5843 62.6414 32.5415C62.9014 31.7415 63.1144 31.1095 63.3114 30.5415C63.3348 30.4738 63.3786 30.415 63.4368 30.3733C63.495 30.3315 63.5648 30.3089 63.6364 30.3085C63.6782 30.3083 63.7197 30.3165 63.7584 30.3325C63.8025 30.3479 63.843 30.3722 63.8774 30.4038C63.9118 30.4355 63.9393 30.4738 63.9584 30.5165C63.9778 30.5574 63.9884 30.602 63.9896 30.6472C63.9908 30.6925 63.9825 30.7376 63.9654 30.7795C63.7714 31.3245 63.5654 31.9365 63.2954 32.7645C63.2705 32.8315 63.2253 32.889 63.1662 32.9292C63.107 32.9693 63.0368 32.99 62.9654 32.9885L62.9644 32.9895ZM85.5874 32.7655C85.514 32.7675 85.442 32.7452 85.3826 32.7019C85.3233 32.6587 85.2799 32.597 85.2594 32.5265C84.9914 31.7075 84.7804 31.0995 84.5734 30.5575C84.5434 30.4703 84.5485 30.3748 84.5874 30.2913C84.6264 30.2077 84.6963 30.1425 84.7824 30.1095C84.8192 30.0974 84.8577 30.0913 84.8964 30.0915C84.9686 30.0898 85.0396 30.1108 85.0993 30.1515C85.1591 30.1922 85.2045 30.2506 85.2294 30.3185C85.4434 30.9185 85.6874 31.6045 85.9144 32.3035C85.9398 32.3924 85.931 32.4876 85.8897 32.5703C85.8484 32.653 85.7777 32.7173 85.6914 32.7505C85.6584 32.7624 85.6233 32.7671 85.5884 32.7645L85.5874 32.7655ZM64.3464 29.0335C64.3046 29.0327 64.2636 29.0225 64.2264 29.0035C64.1842 28.987 64.1456 28.9624 64.113 28.931C64.0804 28.8995 64.0544 28.8619 64.0364 28.8203C64.0185 28.7787 64.009 28.734 64.0084 28.6887C64.0079 28.6434 64.0164 28.5985 64.0334 28.5565C64.3394 27.7915 64.5944 27.1695 64.8334 26.6005C64.86 26.5382 64.9045 26.4852 64.9613 26.4484C65.0182 26.4115 65.0847 26.3924 65.1524 26.3935C65.2014 26.3933 65.25 26.4028 65.2954 26.4215C65.3802 26.4595 65.4464 26.5296 65.4798 26.6163C65.5131 26.703 65.5108 26.7994 65.4734 26.8845C65.1734 27.5705 64.9144 28.2005 64.6844 28.8095C64.6522 28.8728 64.6042 28.9268 64.5449 28.9661C64.4857 29.0053 64.4173 29.0285 64.3464 29.0335V29.0335ZM84.1544 28.8245C84.084 28.8224 84.0157 28.8002 83.9576 28.7605C83.8994 28.7208 83.8539 28.6653 83.8264 28.6005C83.5074 27.8005 83.2554 27.2145 83.0074 26.6905C82.9699 26.6054 82.9676 26.509 83.001 26.4223C83.0343 26.3356 83.1006 26.2655 83.1854 26.2275C83.2306 26.2084 83.2793 26.1985 83.3284 26.1985C83.3965 26.1964 83.4638 26.2149 83.5213 26.2514C83.5789 26.288 83.6242 26.3409 83.6514 26.4035C83.9414 27.0295 84.2164 27.7035 84.4714 28.3435C84.4895 28.3874 84.4984 28.4345 84.4975 28.482C84.4966 28.5295 84.486 28.5763 84.4664 28.6195C84.4487 28.6596 84.4228 28.6957 84.3905 28.7253C84.3581 28.7549 84.3199 28.7774 84.2784 28.7915C84.2615 28.8046 84.2423 28.8143 84.2217 28.82C84.2011 28.8256 84.1796 28.8272 84.1584 28.8245H84.1544ZM66.0334 25.1985C65.9849 25.1975 65.9369 25.1883 65.8914 25.1715H65.8844C65.8433 25.1515 65.8067 25.1236 65.7766 25.0892C65.7465 25.0549 65.7237 25.0148 65.7094 24.9715C65.6959 24.9288 65.6913 24.8838 65.6958 24.8393C65.7002 24.7948 65.7137 24.7516 65.7354 24.7125C66.0514 24.0795 66.3914 23.4515 66.7474 22.8465C66.7787 22.7947 66.8227 22.7518 66.8752 22.7217C66.9276 22.6916 66.9869 22.6754 67.0474 22.6745C67.1098 22.6747 67.1709 22.6927 67.2234 22.7265C67.2629 22.7497 67.2974 22.7806 67.3249 22.8174C67.3523 22.8541 67.3722 22.8959 67.3834 22.9404C67.3946 22.9848 67.3968 23.0311 67.3899 23.0764C67.383 23.1218 67.3672 23.1653 67.3434 23.2045C67.0284 23.7345 66.7074 24.3305 66.3604 25.0255C66.321 25.0756 66.2715 25.1168 66.2152 25.1466C66.1589 25.1764 66.0969 25.1941 66.0334 25.1985ZM82.4334 25.0195C82.3706 25.0175 82.3092 25.0001 82.2546 24.9689C82.2001 24.9377 82.154 24.8936 82.1204 24.8405C81.7764 24.1965 81.4304 23.5945 81.0924 23.0495C81.0424 22.9723 81.0252 22.8784 81.0444 22.7885C81.0542 22.7439 81.0728 22.7018 81.099 22.6646C81.1253 22.6273 81.1587 22.5957 81.1974 22.5715C81.2538 22.5352 81.3193 22.5158 81.3864 22.5155C81.4441 22.5157 81.5008 22.5307 81.5511 22.5588C81.6015 22.587 81.6439 22.6275 81.6744 22.6765C82.0674 23.3015 82.4134 23.9015 82.7314 24.5125C82.7534 24.5537 82.767 24.5989 82.7713 24.6454C82.7756 24.692 82.7705 24.7389 82.7564 24.7835C82.743 24.828 82.7206 24.8693 82.6907 24.9049C82.6608 24.9405 82.6239 24.9696 82.5824 24.9905C82.5336 25.007 82.4828 25.0167 82.4314 25.0195H82.4334ZM68.1804 21.6195C68.1423 21.6219 68.1041 21.6165 68.0681 21.6036C68.0322 21.5907 67.9993 21.5706 67.9714 21.5445C67.8969 21.4887 67.8473 21.4058 67.8332 21.3138C67.8192 21.2218 67.8419 21.1279 67.8964 21.0525C68.3163 20.4807 68.7793 19.9418 69.2814 19.4405C69.3477 19.3808 69.4344 19.3488 69.5235 19.3512C69.6127 19.3536 69.6976 19.3901 69.7606 19.4532C69.8236 19.5164 69.86 19.6013 69.8622 19.6905C69.8643 19.7797 69.8322 19.8663 69.7724 19.9325C69.2955 20.4091 68.8574 20.9231 68.4624 21.4695C68.4307 21.5153 68.3882 21.5527 68.3387 21.5783C68.2892 21.604 68.2341 21.6171 68.1784 21.6165L68.1804 21.6195ZM80.1804 21.4995C80.1281 21.5011 80.0763 21.4896 80.0295 21.4663C79.9827 21.4429 79.9425 21.4082 79.9124 21.3655C79.4964 20.8322 79.0329 20.3378 78.5274 19.8885C78.4587 19.8267 78.417 19.7404 78.4114 19.6481C78.4058 19.5559 78.4367 19.4651 78.4974 19.3955C78.5293 19.3593 78.5685 19.3304 78.6125 19.3105C78.6565 19.2907 78.7042 19.2805 78.7524 19.2805C78.8388 19.2816 78.9223 19.3119 78.9894 19.3665C79.515 19.8488 80.0021 20.3714 80.4464 20.9295C80.5023 21.0034 80.5273 21.0961 80.5162 21.1881C80.505 21.2801 80.4584 21.3642 80.3864 21.4225C80.3592 21.448 80.3271 21.4677 80.292 21.4804C80.2569 21.4932 80.2196 21.4986 80.1824 21.4965L80.1804 21.4995ZM71.1464 18.7955C71.0846 18.7969 71.0236 18.7809 70.9706 18.7492C70.9175 18.7176 70.8744 18.6715 70.8464 18.6165C70.8237 18.5764 70.8091 18.5322 70.8036 18.4865C70.798 18.4408 70.8016 18.3944 70.814 18.3501C70.8265 18.3057 70.8476 18.2643 70.8762 18.2281C70.9047 18.192 70.9401 18.1619 70.9804 18.1395C71.599 17.7732 72.2796 17.5237 72.9884 17.4035H73.0324C73.0504 17.4021 73.0684 17.4021 73.0864 17.4035C73.1747 17.4056 73.2589 17.4406 73.3228 17.5016C73.3867 17.5626 73.4255 17.6452 73.4318 17.7333C73.438 17.8213 73.4112 17.9086 73.3566 17.9779C73.302 18.0473 73.2235 18.0939 73.1364 18.1085H73.1064C72.479 18.2117 71.8774 18.4347 71.3344 18.7655L71.3044 18.7715C71.2526 18.7846 71.1997 18.7927 71.1464 18.7955V18.7955ZM77.0734 18.7815C77.0158 18.7806 76.9594 18.7651 76.9094 18.7365C76.3354 18.4262 75.7156 18.2095 75.0734 18.0945C75.0284 18.087 74.9854 18.0706 74.9469 18.0464C74.9083 18.0222 74.8748 17.9906 74.8485 17.9534C74.8222 17.9163 74.8035 17.8742 74.7936 17.8298C74.7836 17.7853 74.7825 17.7393 74.7904 17.6945C74.8019 17.6122 74.8434 17.537 74.9068 17.4833C74.9703 17.4296 75.0513 17.4012 75.1344 17.4035C75.154 17.402 75.1737 17.402 75.1934 17.4035C75.9083 17.5275 76.5977 17.7695 77.2334 18.1195C77.3146 18.165 77.3754 18.2399 77.4031 18.3288C77.4308 18.4177 77.4234 18.5139 77.3824 18.5975C77.3516 18.6535 77.3063 18.7001 77.2512 18.7325C77.1961 18.7649 77.1333 18.7818 77.0694 18.7815H77.0734Z" fill="#3D5CFF"/>
<path d="M24.8961 54.4743C20.622 46.5144 18.6324 37.5275 19.1471 28.5073C19.1471 28.5073 17.3301 15.8743 12.4301 15.6033C7.53009 15.3323 6.54708 16.8743 4.44708 23.6023C2.34708 30.3303 5.43008 53.0743 10.1961 64.7313C14.9621 76.3883 26.2761 85.7593 26.2761 85.7593L41.0061 67.5373C41.0061 67.5373 29.2891 62.7023 24.8961 54.4743Z" fill="#DA5742"/>
<path d="M4.93856 43.6133C5.92156 41.1953 8.17056 35.6743 9.77856 32.4653C11.8796 28.2572 12.0136 27.4062 12.0136 27.4062L3.85156 32.8232C4.00056 36.0772 4.37256 39.7933 4.93856 43.6133Z" fill="#C43D28"/>
<path d="M17.7627 76.9818C20.3359 80.1481 23.18 83.0841 26.2627 85.7568L41.0117 67.5348C38.6765 66.4387 36.4306 65.1614 34.2947 63.7148L17.7627 76.9818Z" fill="#C43D28"/>
<path d="M37.0941 64.7305C37.0941 64.7305 49.7091 70.0305 56.7091 69.7595C64.5976 69.5671 72.4483 70.9103 79.8241 73.7145C87.6731 76.6695 93.6901 86.6235 95.9391 91.2645C98.1881 95.9055 100.005 105.024 100.005 105.024H78.2751L82.4751 128.051H27.9791L35.9621 93.2305L22.6621 82.9825L37.0941 64.7305Z" fill="#3D5CFF"/>
<path d="M56.7095 32.0327C51.2585 32.7327 49.9775 39.7487 49.9775 39.7487C49.9775 39.7487 42.0985 38.8977 38.7775 42.8377C34.9945 47.3297 41.0265 50.5537 41.0265 50.5537C41.0265 50.5537 34.9495 48.9857 34.4435 52.9407C33.8775 57.2987 37.5265 59.1187 53.0755 62.4767C68.6245 65.8347 87.9565 71.3117 91.0395 66.8197C94.8075 61.3277 83.4735 58.9547 83.4735 58.9547C83.4735 58.9547 89.2225 59.5217 89.2225 54.5967C89.2225 49.6717 77.5885 44.2097 77.5885 44.2097C77.5885 44.2097 77.5885 34.1097 69.8735 32.9867C64.4375 32.2107 63.7075 34.1357 63.7075 34.1357C63.7075 34.1357 62.1605 31.3307 56.7095 32.0327Z" fill="#F99A3D"/>
<path d="M78.3788 105.024H83.4428L75.5488 90.6973L78.3788 105.024Z" fill="#224BF4"/>
<path d="M30.0195 73.6836L28.9625 75.0116L28.2925 87.3116L35.9795 93.2336L27.9795 128.034H29.0365L32.3285 124.527L52.0795 123.275L64.5005 128.036H70.1745L48.4285 92.2936L30.0195 73.6836Z" fill="#224BF4"/>
<path d="M52.4947 57.0159C53.3287 60.6719 57.3947 62.4929 57.3947 62.4929L56.1237 71.0589C56.7447 72.0884 57.6318 72.9315 58.6915 73.4994C59.7513 74.0673 60.9445 74.339 62.1457 74.2859C64.3354 74.2525 66.4329 73.399 68.0237 71.8939L69.2897 59.4029C69.2897 59.4029 74.3387 59.2689 75.8727 55.1949C76.9447 52.3599 75.3067 49.8669 72.7897 49.7179C72.047 49.6978 71.3132 49.8833 70.6693 50.2538C70.0254 50.6244 69.4964 51.1657 69.1407 51.8179C68.2839 51.4762 67.5405 50.9005 66.9953 50.1564C66.4501 49.4123 66.1252 48.5299 66.0577 47.6099C65.6407 44.2369 65.7747 41.5809 63.9577 41.0099C63.4163 40.8563 62.8433 40.853 62.3002 41.0003C61.7571 41.1475 61.2643 41.4399 60.8747 41.8459C60.864 41.6098 60.8023 41.3789 60.6938 41.1689C60.5853 40.9589 60.4327 40.7749 60.2464 40.6296C60.06 40.4842 59.8444 40.3809 59.6144 40.3267C59.3843 40.2726 59.1453 40.2689 58.9137 40.3159C57.0967 40.5999 56.5307 43.5389 55.8307 44.6739C54.981 45.9165 53.8342 46.9271 52.4947 47.6139C52.4947 47.6139 51.6607 53.3739 52.4947 57.0159Z" fill="#DA5742"/>
<path opacity="0.55" d="M50.2303 129.141C48.596 129.078 46.9868 128.719 45.4803 128.082C41.3113 126.293 38.6293 122.256 38.1213 117.008C37.5863 111.509 39.5793 106.193 43.0813 103.771C45.48 102.212 48.0071 100.859 50.6353 99.7284L50.7043 99.6964C55.0623 97.6704 59.1783 95.7574 61.1303 92.1304C59.3872 91.7381 57.7693 90.9174 56.4233 89.7424C54.4353 88.0494 53.4893 86.0134 53.8913 84.2954C54.0446 83.3524 54.5288 82.4949 55.2571 81.8766C55.9853 81.2583 56.91 80.9197 57.8653 80.9214C58.1311 80.9214 58.3963 80.9468 58.6573 80.9974C61.1733 81.4894 63.5143 84.2584 62.7093 89.1754C62.569 90.0425 62.3238 90.8893 61.9793 91.6974C62.2267 91.7254 62.4754 91.7397 62.7243 91.7404C63.2995 91.7508 63.8712 91.6489 64.4073 91.4404C65.7943 90.8784 66.5953 89.5724 66.7903 87.5594C67.1473 83.6674 66.0713 80.5864 63.6773 78.6504C61.5215 77.063 58.8917 76.2524 56.2163 76.3504C54.4121 76.3592 52.6197 76.6435 50.9013 77.1934C49.8102 77.5501 48.6712 77.7393 47.5233 77.7544C46.8432 77.76 46.1655 77.6722 45.5093 77.4934C44.8759 77.3554 44.2841 77.0697 43.782 76.6595C43.28 76.2494 42.8819 75.7265 42.6203 75.1334C41.9353 73.3184 42.8553 70.4114 47.7283 68.1934L47.9673 68.7014C43.4353 70.7664 42.5453 73.3434 43.1553 74.9234C43.6903 76.3154 45.3633 77.1794 47.5213 77.1794C48.6146 77.1645 49.6991 76.9824 50.7373 76.6394C52.5065 76.076 54.3516 75.7866 56.2083 75.7814C59.0164 75.6822 61.7752 76.537 64.0353 78.2064C66.5803 80.2654 67.7293 83.5164 67.3573 87.6064C67.1053 90.3714 65.7353 91.5034 64.6353 91.9674C64.0186 92.1984 63.3638 92.3113 62.7053 92.3004C62.3846 92.2999 62.0643 92.2786 61.7463 92.2364C59.7463 96.1284 55.4793 98.1084 50.9633 100.206C48.3407 101.332 45.8191 102.68 43.4263 104.235C40.1353 106.484 38.1953 111.713 38.7023 116.949C39.1943 121.976 41.7563 125.849 45.7323 127.56C47.1802 128.164 48.7232 128.507 50.2903 128.574L50.2313 129.14L50.2303 129.141ZM57.8113 81.4934C57.0004 81.5302 56.2259 81.8411 55.6145 82.3751C55.0031 82.9091 54.5909 83.6347 54.4453 84.4334C54.1023 85.9464 54.9823 87.7764 56.7993 89.3334C58.1133 90.477 59.6961 91.2683 61.3993 91.6334C61.7695 90.8324 62.0254 89.9835 62.1593 89.1114C62.9043 84.5754 60.8133 82.0254 58.5593 81.5744C58.3139 81.5192 58.0629 81.492 57.8113 81.4934Z" fill="#EAEAFF"/>
<path opacity="0.55" d="M61.9363 125.827C59.3222 125.918 56.7222 125.407 54.3363 124.335C52.7793 123.591 52.0173 121.719 52.1953 119.067C52.4333 115.526 54.2433 111.034 57.0363 107.053C60.2133 102.545 64.2443 99.3234 68.3853 97.9804C70.02 97.4418 71.7283 97.1598 73.4493 97.1444C73.8803 97.1444 74.3113 97.1644 74.7303 97.2034C79.3183 94.7284 83.9793 91.5474 86.9883 85.0854C87.77 83.269 87.8494 81.2271 87.2113 79.3554L87.7473 79.1914C88.4198 81.1926 88.3297 83.3716 87.4943 85.3104C86.1879 88.1793 84.3226 90.759 82.0073 92.8984C80.085 94.6182 77.9616 96.099 75.6833 97.3084C76.466 97.4363 77.234 97.6413 77.9763 97.9204C79.1215 98.2907 80.1758 98.898 81.0707 99.7028C81.9656 100.508 82.681 101.492 83.1703 102.591C84.0633 104.919 83.5003 108.097 79.2393 110.039C77.5129 110.847 75.6331 111.274 73.7273 111.291C71.4409 111.357 69.2086 110.589 67.4473 109.129C66.7307 108.555 66.2048 107.777 65.9389 106.898C65.6729 106.019 65.6794 105.08 65.9573 104.204C66.9303 101.296 69.8573 99.7674 73.2413 97.9964C73.4063 97.9134 73.5933 97.8204 73.7763 97.7124C73.6983 97.7124 73.6133 97.7124 73.5013 97.7124C71.8236 97.726 70.1579 97.9985 68.5633 98.5204C59.5633 101.427 53.1933 112.651 52.7633 119.1C52.6453 120.794 52.8633 122.987 54.5953 123.816C56.9019 124.845 59.4132 125.333 61.9373 125.243C64.1403 125.201 66.3395 125.04 68.5253 124.762L68.5803 124.756L69.4143 124.667L69.4733 125.219L68.6393 125.309C66.4178 125.62 64.1792 125.793 61.9363 125.827V125.827ZM74.8363 97.7864C74.3983 98.0124 73.9473 98.2534 73.4963 98.5024L73.4693 98.5164C70.0623 100.305 67.3693 101.716 66.4963 104.397C66.2534 105.169 66.2515 105.997 66.4909 106.77C66.7303 107.543 67.1996 108.225 67.8363 108.724C69.4925 110.092 71.5898 110.809 73.7363 110.742C75.5645 110.725 77.3676 110.315 79.0243 109.542C82.2993 108.051 83.6973 105.472 82.6733 102.812C82.2098 101.788 81.5368 100.873 80.6978 100.125C79.8589 99.3769 78.8725 98.813 77.8023 98.4694C76.848 98.1137 75.8518 97.8828 74.8383 97.7824L74.8363 97.7864Z" fill="#EAEAFF"/>
<path opacity="0.55" d="M81.2235 83.3556C78.8464 82.1938 76.9148 80.286 75.7235 77.9236C74.6855 75.7146 74.7895 73.6406 75.9815 72.6406L76.3385 73.0736C75.3385 73.8946 75.2955 75.7006 76.2385 77.6846C77.7275 80.8486 82.6575 85.7286 91.6835 83.9846L91.7835 84.5366C90.5511 84.7705 89.2998 84.8903 88.0455 84.8946C85.6825 84.9215 83.3461 84.3944 81.2235 83.3556V83.3556Z" fill="#EAEAFF"/>
<path d="M99.4414 100.951V101.518H77.4414V100.951H99.4414Z" fill="#EAEAFF"/>
<path d="M62.1602 46.7619C62.2146 46.5477 62.3432 46.3598 62.5232 46.2316C62.7033 46.1034 62.9229 46.0433 63.1432 46.0619C63.3627 46.0469 63.5807 46.1084 63.7599 46.236C63.9392 46.3637 64.0686 46.5495 64.1262 46.7619" fill="white"/>
<path d="M55.1602 46.4794C55.1602 46.4794 55.5772 45.6434 56.2772 45.7784C56.4811 45.824 56.6679 45.9267 56.8156 46.0746C56.9633 46.2225 57.0658 46.4094 57.1112 46.6134" fill="white"/>
<path d="M58.8806 48.4343C58.7316 48.8343 58.5676 49.2553 58.4486 49.6733C58.3834 49.8664 58.3533 50.0696 58.3596 50.2733C58.3841 50.3632 58.4273 50.4469 58.4864 50.5189C58.5455 50.591 58.6192 50.6497 58.7026 50.6913C59.0791 50.9019 59.4859 51.053 59.9086 51.1393C59.6838 51.1416 59.4594 51.1215 59.2386 51.0793C59.0119 51.0392 58.7916 50.9689 58.5836 50.8703C58.5386 50.8403 58.4836 50.8103 58.4346 50.7803C58.3814 50.7453 58.3315 50.7054 58.2856 50.6613C58.19 50.5674 58.1228 50.4486 58.0916 50.3183C58.0695 50.0746 58.0957 49.8289 58.1686 49.5953C58.2937 49.1618 58.4636 48.7426 58.6756 48.3443C58.8773 47.9461 59.1062 47.5622 59.3606 47.1953C59.2116 47.6133 59.0476 48.0163 58.8806 48.4343Z" fill="#1F1F39"/>
<path d="M58.6602 53.2246C59.303 53.6965 60.1041 53.8998 60.8942 53.7916C62.0112 53.5066 62.1602 52.8066 62.1602 52.8066" fill="white"/>
<path d="M55.7251 49.9999C55.4756 49.9666 55.2489 49.8374 55.0932 49.6396C54.9374 49.4419 54.8649 49.1912 54.8911 48.9409C54.8647 48.6904 54.937 48.4394 55.0928 48.2415C55.2485 48.0435 55.4754 47.9141 55.7251 47.8809C55.9748 47.9141 56.2016 48.0435 56.3574 48.2415C56.5132 48.4394 56.5855 48.6904 56.5591 48.9409C56.5852 49.1912 56.5127 49.4419 56.357 49.6396C56.2013 49.8374 55.9746 49.9666 55.7251 49.9999V49.9999Z" fill="#1F1F39"/>
<path d="M63.1431 49.9999C62.8936 49.9666 62.6669 49.8374 62.5111 49.6396C62.3554 49.4419 62.2829 49.1912 62.3091 48.9409C62.2826 48.6904 62.355 48.4394 62.5107 48.2415C62.6665 48.0435 62.8934 47.9141 63.1431 47.8809C63.3927 47.9141 63.6196 48.0435 63.7754 48.2415C63.9311 48.4394 64.0035 48.6904 63.9771 48.9409C64.0032 49.1912 63.9307 49.4419 63.775 49.6396C63.6193 49.8374 63.3926 49.9666 63.1431 49.9999V49.9999Z" fill="#1F1F39"/>
<path d="M68.844 53.0762C68.7566 54.1024 67.3436 54.8201 65.6886 54.6792C64.0336 54.5382 62.7613 53.5918 62.8487 52.5656C62.9361 51.5393 64.3492 50.8206 66.0052 50.9616C67.6612 51.1027 68.9318 52.0449 68.844 53.0762Z" fill="#C43D28"/>
<path d="M0.990229 31.8255C0.830286 31.6674 0.703305 31.4791 0.61664 31.2716C0.529976 31.064 0.485352 30.8414 0.485352 30.6165C0.485352 30.3916 0.529976 30.1689 0.61664 29.9614C0.703305 29.7539 0.830286 29.5656 0.990229 29.4075L29.7822 0.556481C29.9402 0.398045 30.1278 0.272338 30.3344 0.186565C30.541 0.100793 30.7625 0.0566406 30.9862 0.0566406C31.2099 0.0566406 31.4314 0.100793 31.638 0.186565C31.8447 0.272338 32.0323 0.398045 32.1902 0.556481L34.5282 2.89948C34.6882 3.05759 34.8151 3.24586 34.9018 3.45339C34.9885 3.66092 35.0331 3.88358 35.0331 4.10848C35.0331 4.33338 34.9885 4.55604 34.9018 4.76357C34.8151 4.9711 34.6882 5.15937 34.5282 5.31748L5.74423 34.1685C5.58621 34.3277 5.39825 34.454 5.19118 34.5402C4.98411 34.6264 4.76203 34.6708 4.53773 34.6708C4.31343 34.6708 4.09134 34.6264 3.88428 34.5402C3.67721 34.454 3.48925 34.3277 3.33123 34.1685L0.990229 31.8255Z" fill="#EAEAFF"/>
<path d="M27.8292 2.5L26.7422 3.589L29.7362 6.6C29.8053 6.68024 29.8902 6.74536 29.9856 6.7913C30.081 6.83724 30.1848 6.86301 30.2906 6.867C30.3965 6.87099 30.5019 6.85311 30.6005 6.81449C30.6991 6.77587 30.7887 6.71732 30.8636 6.64252C30.9386 6.56772 30.9973 6.47826 31.0361 6.37974C31.0749 6.28122 31.093 6.17576 31.0892 6.06994C31.0854 5.96413 31.0598 5.86023 31.014 5.76475C30.9683 5.66926 30.9033 5.58424 30.8232 5.515L27.8292 2.5Z" fill="#FFFFFE"/>
<path d="M24.0625 6.27455L27.0565 9.28555C27.1256 9.36578 27.2105 9.4309 27.3059 9.47684C27.4013 9.52279 27.5051 9.54856 27.611 9.55255C27.7168 9.55654 27.8223 9.53866 27.9208 9.50004C28.0194 9.46141 28.109 9.40287 28.1839 9.32807C28.2589 9.25326 28.3176 9.16381 28.3564 9.06529C28.3952 8.96677 28.4133 8.86131 28.4095 8.75549C28.4057 8.64967 28.3801 8.54578 28.3343 8.45029C28.2886 8.35481 28.2236 8.26979 28.1435 8.20055L25.1495 5.18555L24.0625 6.27455Z" fill="#FFFFFE"/>
<path d="M21.6797 8.66322L24.6737 11.6742C24.8208 11.8014 25.0105 11.8681 25.2048 11.8612C25.3991 11.8542 25.5836 11.774 25.7212 11.6366C25.8588 11.4993 25.9393 11.315 25.9467 11.1207C25.954 10.9264 25.8876 10.7365 25.7607 10.5892L22.7667 7.57422L21.6797 8.66322Z" fill="#FFFFFE"/>
<path d="M18.8496 11.4992L21.8436 14.5102C21.9127 14.5904 21.9976 14.6555 22.093 14.7015C22.1884 14.7474 22.2923 14.7732 22.3981 14.7772C22.5039 14.7811 22.6094 14.7633 22.708 14.7246C22.8065 14.686 22.8961 14.6275 22.9711 14.5527C23.046 14.4779 23.1047 14.3884 23.1435 14.2899C23.1823 14.1914 23.2004 14.0859 23.1966 13.9801C23.1928 13.8743 23.1672 13.7704 23.1214 13.6749C23.0757 13.5794 23.0107 13.4944 22.9306 13.4252L19.9366 10.4102L18.8496 11.4992Z" fill="#FFFFFE"/>
<path d="M16.1689 14.1847L19.1629 17.1957C19.31 17.3228 19.4998 17.3896 19.6941 17.3827C19.8884 17.3757 20.0728 17.2955 20.2104 17.1581C20.348 17.0208 20.4286 16.8365 20.4359 16.6422C20.4433 16.4479 20.3768 16.258 20.2499 16.1107L17.2559 13.0957L16.1689 14.1847Z" fill="#FFFFFE"/>
<path d="M13.7852 16.5734L16.7792 19.5844C16.8483 19.6646 16.9332 19.7297 17.0286 19.7757C17.124 19.8216 17.2278 19.8474 17.3336 19.8514C17.4394 19.8554 17.5449 19.8375 17.6435 19.7989C17.7421 19.7602 17.8317 19.7017 17.9066 19.6269C17.9815 19.5521 18.0402 19.4626 18.0791 19.3641C18.1179 19.2656 18.1359 19.1601 18.1321 19.0543C18.1283 18.9485 18.1028 18.8446 18.057 18.7491C18.0112 18.6536 17.9463 18.5686 17.8662 18.4994L14.8722 15.4844L13.7852 16.5734Z" fill="#FFFFFE"/>
<path d="M10.584 19.7804L13.578 22.7914C13.7251 22.9185 13.9148 22.9853 14.1091 22.9784C14.3034 22.9714 14.4879 22.8912 14.6255 22.7538C14.7631 22.6165 14.8436 22.4322 14.851 22.2379C14.8583 22.0436 14.7919 21.8537 14.665 21.7064L11.671 18.6914L10.584 19.7804Z" fill="#FFFFFE"/>
<path d="M7.90234 22.4679L10.8963 25.4789C11.0434 25.606 11.2332 25.6728 11.4275 25.6659C11.6218 25.6589 11.8062 25.5787 11.9438 25.4413C12.0814 25.304 12.162 25.1197 12.1693 24.9254C12.1767 24.7311 12.1102 24.5412 11.9833 24.3939L8.98934 21.3789L7.90234 22.4679Z" fill="#FFFFFE"/>
<path d="M5.51953 24.8546L8.51353 27.8656C8.58263 27.9459 8.66753 28.011 8.76293 28.0569C8.85833 28.1029 8.96218 28.1286 9.06799 28.1326C9.1738 28.1366 9.27929 28.1187 9.37788 28.0801C9.47647 28.0415 9.56603 27.9829 9.64097 27.9081C9.71592 27.8333 9.77462 27.7439 9.81343 27.6454C9.85223 27.5468 9.8703 27.4414 9.86651 27.3356C9.86271 27.2298 9.83713 27.1259 9.79137 27.0304C9.7456 26.9349 9.68064 26.8499 9.60053 26.7806L6.60653 23.7656L5.51953 24.8546Z" fill="#FFFFFE"/>
<path d="M11.9982 28.6613C12.1784 26.939 12.6999 25.2698 13.5322 23.7513C14.1006 22.7114 14.9809 21.8761 16.0492 21.3633C16.0492 21.3633 12.1322 18.6933 11.9982 16.1703C11.8642 13.6473 13.6812 13.4983 14.5152 14.0653C15.3492 14.6323 17.8812 17.5723 19.2812 18.4233C20.6812 19.2743 22.3642 19.4083 22.9302 22.4973C23.4962 25.5863 18.3132 30.6453 18.3132 30.6453" fill="#DA5742"/>
<path d="M2.21203 21.7815C1.37803 23.8815 4.02903 26.9745 5.29503 27.5425C5.79612 27.7703 6.35135 27.8519 6.89679 27.778C7.44223 27.704 7.95568 27.4775 8.37803 27.1245C8.82489 26.6771 9.07654 26.0709 9.07803 25.4385C9.93071 25.4995 10.7768 25.2509 11.461 24.7385C11.752 24.4511 11.9679 24.0966 12.09 23.7062C12.212 23.3159 12.2364 22.9015 12.161 22.4995C12.532 22.5306 12.905 22.4706 13.2475 22.325C13.5901 22.1793 13.892 21.9523 14.127 21.6635C14.827 20.6785 14.261 18.0075 12.221 16.3505C10.925 15.2885 9.22703 14.7515 8.22903 15.6015C6.38303 17.1815 2.75303 20.4075 2.21203 21.7815Z" fill="#DA5742"/>
<path d="M12.1914 22.5713L8.2744 18.3623C8.24935 18.3363 8.23535 18.3015 8.23535 18.2653C8.23535 18.2292 8.24935 18.1944 8.2744 18.1683C8.30036 18.1431 8.33516 18.1289 8.3714 18.1289C8.40764 18.1289 8.44245 18.1431 8.4684 18.1683L12.4004 22.3923C12.4255 22.4184 12.4395 22.4532 12.4395 22.4893C12.4395 22.5255 12.4255 22.5603 12.4004 22.5863C12.3721 22.6087 12.3363 22.6194 12.3004 22.6163C12.28 22.6176 12.2596 22.6142 12.2407 22.6064C12.2218 22.5986 12.205 22.5866 12.1914 22.5713V22.5713Z" fill="#1F1F39"/>
<path d="M8.97507 25.5266L5.32607 21.4526C5.30293 21.4246 5.29156 21.3888 5.29436 21.3526C5.29716 21.3164 5.31391 21.2827 5.34107 21.2586C5.36888 21.2355 5.40459 21.2242 5.44061 21.227C5.47664 21.2298 5.51017 21.2465 5.53407 21.2736L9.18307 25.3476C9.20621 25.3756 9.21758 25.4114 9.21479 25.4476C9.21199 25.4838 9.19524 25.5175 9.16807 25.5416C9.14104 25.5582 9.11062 25.5684 9.07907 25.5716C9.05951 25.5721 9.04008 25.5683 9.02212 25.5605C9.00417 25.5528 8.98811 25.5412 8.97507 25.5266V25.5266Z" fill="#1F1F39"/>
<path d="M12.2955 28.7952C12.2065 28.7802 12.1465 28.7202 12.1615 28.6462C12.3416 26.9008 12.8736 25.2101 13.7255 23.6762C14.2873 22.7036 15.0999 21.8996 16.0785 21.3482C16.0372 21.3175 15.9922 21.2923 15.9445 21.2732C14.8595 20.6022 12.3255 19.0052 12.1595 16.1842C12.1589 16.1467 12.1726 16.1104 12.1979 16.0827C12.2232 16.055 12.2581 16.038 12.2955 16.0352C12.3327 16.0345 12.3687 16.048 12.3963 16.0729C12.424 16.0977 12.4412 16.1321 12.4445 16.1692C12.5935 18.8412 14.9595 20.3182 16.0935 21.0352C16.2268 21.1245 16.3458 21.1992 16.4505 21.2592L16.6885 21.4232L16.4205 21.5132C15.3813 22.0117 14.5265 22.8262 13.9785 23.8402C13.157 25.3407 12.6408 26.9891 12.4595 28.6902C12.4441 28.7204 12.4206 28.7458 12.3917 28.7634C12.3627 28.7811 12.3294 28.7903 12.2955 28.7902V28.7952Z" fill="#1F1F39"/>
<path d="M41.5097 66.2964L41.9647 66.633L25.2704 89.1941L24.8154 88.8574L41.5097 66.2964Z" fill="#EAEAFF"/>
<path d="M59.9246 62.9102C58.7506 62.6712 57.9756 62.6262 57.4096 62.4922L56.7246 67.1032C58.0224 67.0103 59.2933 66.6869 60.4776 66.1482C62.0459 65.4195 63.3663 64.2472 64.2756 62.7762C62.8693 63.2438 61.357 63.2904 59.9246 62.9102V62.9102Z" fill="#C43D28"/>
<path d="M60.9083 63.1934C59.716 63.1255 58.5338 62.9355 57.3803 62.6264C57.3621 62.6216 57.345 62.613 57.3303 62.6012C57.3156 62.5894 57.3036 62.5746 57.295 62.5578C57.2864 62.541 57.2814 62.5225 57.2805 62.5037C57.2795 62.4848 57.2825 62.466 57.2893 62.4484C57.2939 62.4299 57.3025 62.4127 57.3143 62.3978C57.3262 62.3829 57.3411 62.3707 57.3581 62.3621C57.375 62.3535 57.3937 62.3486 57.4127 62.3478C57.4317 62.347 57.4507 62.3502 57.4683 62.3574C58.604 62.6553 59.7663 62.8402 60.9383 62.9094C61.9985 63.0188 63.0698 62.9279 64.0963 62.6414C64.114 62.6352 64.1327 62.6326 64.1513 62.6338C64.17 62.635 64.1882 62.6399 64.205 62.6483C64.2217 62.6567 64.2365 62.6684 64.2486 62.6827C64.2607 62.697 64.2698 62.7135 64.2753 62.7314C64.2815 62.749 64.2842 62.7676 64.2831 62.7863C64.2819 62.8049 64.2771 62.8231 64.2688 62.8398C64.2605 62.8565 64.2489 62.8713 64.2347 62.8835C64.2206 62.8956 64.2041 62.9048 64.1863 62.9104C63.3967 63.1349 62.578 63.2404 61.7573 63.2234C61.4893 63.2234 61.2063 63.2084 60.9083 63.1934Z" fill="#1F1F39"/>
<path d="M71.1262 56.164C71.355 54.9551 71.8317 53.8066 72.5262 52.791C72.5262 52.791 70.9322 52.791 69.9052 55.746C69.4393 56.9056 69.2408 58.1552 69.3242 59.402C69.9437 59.3589 70.5573 59.2547 71.1562 59.091C70.9994 58.1224 70.9893 57.1357 71.1262 56.164V56.164Z" fill="#C43D28"/>
<path d="M69.4571 57.9993C69.3681 57.9843 69.3081 57.9253 69.3211 57.8503C69.4429 56.7683 69.7299 55.7113 70.1721 54.7163C70.7714 53.6267 71.6642 52.727 72.7491 52.1193C72.7829 52.1022 72.822 52.0988 72.8582 52.11C72.8944 52.1212 72.9249 52.1461 72.9431 52.1793C72.9532 52.1957 72.9596 52.214 72.962 52.2331C72.9645 52.2521 72.9628 52.2715 72.9571 52.2899C72.9514 52.3083 72.9419 52.3252 72.9291 52.3396C72.9163 52.354 72.9007 52.3655 72.8831 52.3733C71.853 52.9542 71.0016 53.806 70.4211 54.8363C69.9953 55.8043 69.7156 56.8301 69.5911 57.8803C69.5834 57.9114 69.5665 57.9394 69.5426 57.9606C69.5187 57.9819 69.4889 57.9954 69.4571 57.9993V57.9993Z" fill="#1F1F39"/>
<path d="M26.7021 127.515L17.7021 66.6855L67.3021 121.486L26.7021 127.515ZM27.0021 86.4885L31.7621 118.665L53.2391 115.471L27.0021 86.4885Z" fill="#EAEAFF"/>
<path d="M27.085 106.726L23.793 107.218L24.016 108.74L27.308 108.248C27.4092 108.237 27.5073 108.206 27.5959 108.156C27.6846 108.106 27.7621 108.038 27.8235 107.957C27.8849 107.876 27.929 107.783 27.953 107.684C27.977 107.585 27.9804 107.482 27.963 107.382C27.9313 107.179 27.8217 106.997 27.6576 106.875C27.4936 106.752 27.288 106.699 27.085 106.726V106.726Z" fill="#FFFFFE"/>
<path d="M25.9974 99.3234L22.6914 99.8154L22.9144 101.337L26.2214 100.845C26.4227 100.817 26.6045 100.709 26.7272 100.547C26.8499 100.385 26.9035 100.181 26.8764 99.9794C26.8448 99.7768 26.735 99.5947 26.5707 99.4721C26.4064 99.3495 26.2006 99.2961 25.9974 99.3234V99.3234Z" fill="#FFFFFE"/>
<path d="M26.5488 103.024L23.2568 103.516L23.4798 105.038L26.7718 104.546C26.9732 104.518 27.155 104.41 27.2776 104.248C27.4003 104.086 27.4539 103.882 27.4268 103.68C27.3952 103.478 27.2856 103.296 27.1215 103.174C26.9574 103.051 26.7519 102.997 26.5488 103.024V103.024Z" fill="#FFFFFE"/>
<path d="M28.1872 114.128L24.9102 114.62L25.1332 116.142L28.4102 115.65C28.5109 115.638 28.6082 115.606 28.6963 115.556C28.7843 115.505 28.8612 115.438 28.9224 115.357C28.9836 115.276 29.0278 115.183 29.0523 115.085C29.0769 114.986 29.0812 114.884 29.0652 114.784C29.0335 114.582 28.9239 114.4 28.7598 114.277C28.5957 114.154 28.3902 114.101 28.1872 114.128V114.128Z" fill="#FFFFFE"/>
<path d="M25.4466 95.6222L22.1406 96.1142L22.3636 97.6362L25.6706 97.1442C25.7709 97.1314 25.8676 97.0986 25.9551 97.0479C26.0426 96.9972 26.1191 96.9295 26.1801 96.8489C26.2411 96.7682 26.2854 96.6762 26.3104 96.5782C26.3354 96.4802 26.3406 96.3782 26.3256 96.2782C26.294 96.0757 26.1842 95.8935 26.0199 95.7709C25.8556 95.6483 25.6498 95.5949 25.4466 95.6222V95.6222Z" fill="#FFFFFE"/>
<path d="M27.6367 110.427L24.3447 110.919L24.5677 112.441L27.8447 111.949C27.9467 111.939 28.0456 111.908 28.1353 111.858C28.225 111.809 28.3037 111.741 28.3664 111.66C28.4291 111.579 28.4746 111.486 28.5001 111.387C28.5256 111.287 28.5306 111.184 28.5147 111.083C28.4831 110.88 28.3735 110.698 28.2094 110.576C28.0453 110.453 27.8398 110.4 27.6367 110.427V110.427Z" fill="#FFFFFE"/>
<path d="M23.8083 84.505L20.4873 84.997L20.7103 86.519L24.0323 86.027C24.1324 86.0138 24.2289 85.9808 24.3162 85.9299C24.4035 85.8791 24.4798 85.8115 24.5408 85.7309C24.6017 85.6503 24.646 85.5585 24.6712 85.4607C24.6963 85.3628 24.7018 85.261 24.6873 85.161C24.6557 84.9585 24.5459 84.7764 24.3816 84.6537C24.2173 84.5311 24.0115 84.4777 23.8083 84.505V84.505Z" fill="#FFFFFE"/>
<path d="M28.7379 117.829L25.4609 118.321L25.6839 119.843L28.9609 119.351C29.0611 119.338 29.1576 119.305 29.2449 119.254C29.3321 119.203 29.4085 119.136 29.4694 119.055C29.5303 118.974 29.5746 118.883 29.5998 118.785C29.625 118.687 29.6304 118.585 29.6159 118.485C29.5843 118.283 29.4747 118.101 29.3106 117.978C29.1465 117.856 28.941 117.802 28.7379 117.829V117.829Z" fill="#FFFFFE"/>
<path d="M24.3444 88.2062L21.0234 88.6982L21.2464 90.2202L24.5684 89.7282C24.6702 89.7188 24.7688 89.6883 24.8581 89.6386C24.9474 89.5889 25.0254 89.5212 25.087 89.4397C25.1486 89.3582 25.1926 89.2648 25.2161 89.1653C25.2396 89.0659 25.2421 88.9627 25.2234 88.8622C25.1918 88.6596 25.0821 88.4775 24.9177 88.3549C24.7534 88.2323 24.5476 88.1789 24.3444 88.2062V88.2062Z" fill="#FFFFFE"/>
<path d="M24.8949 91.923L21.5889 92.415L21.8119 93.937L25.1189 93.445C25.2192 93.4321 25.3159 93.3994 25.4034 93.3487C25.4909 93.298 25.5673 93.2303 25.6283 93.1496C25.6893 93.069 25.7336 92.977 25.7586 92.879C25.7836 92.781 25.7888 92.679 25.7739 92.579C25.7422 92.3764 25.6325 92.1943 25.4682 92.0717C25.3039 91.9491 25.0981 91.8957 24.8949 91.923V91.923Z" fill="#FFFFFE"/>
<path d="M99.1406 119.068C98.4406 126.933 96.1916 133.529 86.3916 134.23C76.5916 134.931 62.7106 127.067 55.8596 119.769C49.0086 112.471 40.7276 104.323 40.7276 104.323C38.9685 104.348 37.2225 104.63 35.5446 105.159C33.1616 105.995 31.1956 105.859 30.6446 105.293C30.0936 104.727 30.2276 104.308 30.2276 104.308C30.2276 104.308 28.5446 104.174 28.1276 103.039C27.993 102.778 27.9227 102.489 27.9227 102.196C27.9227 101.902 27.993 101.613 28.1276 101.353C27.5535 101.297 27.0168 101.043 26.6093 100.634C26.2018 100.226 25.9488 99.6889 25.8936 99.1147C25.6106 97.0148 30.5106 94.4888 32.4766 93.6378C34.0616 93.0462 35.7037 92.6209 37.3766 92.3688C37.3766 92.3688 34.2936 91.6688 32.3276 92.3688C30.3616 93.0688 29.2446 92.2348 29.2446 90.9688C29.2446 89.7027 31.7616 87.5938 35.8276 87.5938C39.8936 87.5938 46.4766 90.3997 49.9766 93.4887C53.4766 96.5777 78.8406 108.368 78.8406 108.368L78.2746 104.994H99.0066V105.024C99.5213 109.689 99.5662 114.394 99.1406 119.068V119.068Z" fill="#DA5742"/>
<path d="M28.0227 101.458C28.0017 101.428 27.9932 101.391 27.9987 101.355C28.0043 101.319 28.0236 101.286 28.0527 101.264C28.0827 101.249 30.4657 99.4132 32.6847 98.0212C33.8521 97.237 35.1471 96.6617 36.5117 96.3212C36.5303 96.3173 36.5496 96.3174 36.5683 96.3214C36.5869 96.3254 36.6045 96.3333 36.62 96.3445C36.6354 96.3557 36.6483 96.37 36.6579 96.3865C36.6675 96.403 36.6736 96.4213 36.6757 96.4402C36.68 96.4591 36.6803 96.4787 36.6765 96.4977C36.6727 96.5167 36.665 96.5347 36.6537 96.5505C36.6425 96.5663 36.628 96.5795 36.6113 96.5893C36.5945 96.599 36.5759 96.6052 36.5567 96.6072C35.2245 96.9475 33.9603 97.5129 32.8187 98.2792C30.6137 99.6672 28.2307 101.487 28.1967 101.502C28.1737 101.51 28.1503 101.516 28.1267 101.521C28.1048 101.524 28.0828 101.519 28.064 101.507C28.0452 101.496 28.0307 101.479 28.0227 101.458V101.458Z" fill="#1F1F39"/>
<path d="M30.1086 104.398C30.0877 104.368 30.0791 104.331 30.0847 104.295C30.0903 104.259 30.1096 104.227 30.1386 104.204C31.7288 103.048 33.4302 102.053 35.2176 101.234C36.2076 100.742 37.2673 100.405 38.3596 100.234C38.3951 100.234 38.4292 100.248 38.4544 100.274C38.4795 100.299 38.4936 100.333 38.4936 100.368C38.4936 100.404 38.4795 100.438 38.4544 100.463C38.4292 100.488 38.3951 100.502 38.3596 100.502C37.3092 100.673 36.2903 101 35.3366 101.472C33.5726 102.283 31.8914 103.263 30.3166 104.398C30.2866 104.458 30.2566 104.458 30.2276 104.458C30.2043 104.46 30.181 104.455 30.1602 104.444C30.1393 104.434 30.1215 104.418 30.1086 104.398V104.398Z" fill="#1F1F39"/>
<path d="M78.2744 105.025L78.8404 108.398L99.1854 106.625C99.0854 105.595 99.0064 105.025 99.0064 105.025H78.2744Z" fill="#C43D28"/>
<path d="M83.1758 110.219L75.5498 106.951Z" fill="#1F1F39"/>
<path d="M83.1149 110.337L75.4899 107.069C75.4731 107.063 75.4578 107.053 75.445 107.04C75.4321 107.027 75.4218 107.012 75.4149 106.996C75.4079 106.979 75.4043 106.961 75.4043 106.943C75.4043 106.925 75.4079 106.907 75.4149 106.89C75.4216 106.874 75.4316 106.858 75.4442 106.845C75.4569 106.832 75.472 106.822 75.4887 106.815C75.5053 106.808 75.5232 106.805 75.5413 106.805C75.5594 106.805 75.5773 106.808 75.5939 106.815L83.2199 110.084C83.2366 110.091 83.2518 110.101 83.2646 110.114C83.2773 110.127 83.2875 110.142 83.2944 110.158C83.3012 110.175 83.3047 110.193 83.3047 110.211C83.3046 110.229 83.3009 110.247 83.2939 110.263C83.2887 110.281 83.2795 110.298 83.2671 110.311C83.2547 110.325 83.2394 110.336 83.2223 110.343C83.2051 110.351 83.1866 110.354 83.168 110.353C83.1494 110.352 83.1313 110.347 83.1149 110.338V110.337Z" fill="#1F1F39"/>
<path d="M75.3418 89.5801L78.8418 108.38Z" fill="#1F1F39"/>
<path d="M78.7046 108.413L75.2046 89.6093C75.2002 89.5901 75.2 89.5703 75.204 89.5511C75.2079 89.5319 75.216 89.5138 75.2275 89.4979C75.2391 89.4821 75.2539 89.469 75.271 89.4593C75.2881 89.4497 75.3071 89.4439 75.3266 89.4423C75.3455 89.4384 75.365 89.4385 75.3839 89.4427C75.4027 89.4469 75.4204 89.455 75.4359 89.4665C75.4514 89.4781 75.4643 89.4927 75.4737 89.5095C75.4831 89.5264 75.4889 89.545 75.4906 89.5643L78.9906 108.364C78.9945 108.383 78.9944 108.402 78.9904 108.421C78.9864 108.44 78.9786 108.457 78.9674 108.473C78.9561 108.488 78.9418 108.501 78.9254 108.511C78.9089 108.52 78.8906 108.526 78.8716 108.528H78.8416C78.809 108.528 78.7775 108.516 78.7525 108.495C78.7276 108.474 78.7106 108.445 78.7046 108.413Z" fill="#1F1F39"/>
<path d="M54.1033 50.5088C53.4565 50.4407 52.8028 50.5278 52.1963 50.7628C52.1363 51.6878 52.1073 52.7178 52.1363 53.7628C52.6531 54.0203 53.214 54.1774 53.7893 54.2258C55.4573 54.3598 56.8723 53.6438 56.9463 52.6138C57.0203 51.5838 55.7563 50.6428 54.1033 50.5088Z" fill="#C43D28"/>
<path opacity="0.52" d="M97.0192 20.4075C98.6677 20.4075 100.004 19.0711 100.004 17.4225C100.004 15.7739 98.6677 14.4375 97.0192 14.4375C95.3706 14.4375 94.0342 15.7739 94.0342 17.4225C94.0342 19.0711 95.3706 20.4075 97.0192 20.4075Z" fill="white"/>
</svg>
