<svg width="48" height="48" viewBox="0 0 48 48" fill="none" xmlns="http://www.w3.org/2000/svg">
<path d="M40.011 20.9082H24V27.4842H33.149C32.9598 28.5243 32.5617 29.5153 31.9787 30.3972C31.3956 31.2791 30.6399 32.0336 29.757 32.6152V36.8802H35.251C36.9247 35.2682 38.2409 33.3224 39.1141 31.169C39.9874 29.0156 40.3982 26.7026 40.32 24.3802C40.3207 23.216 40.2173 22.054 40.011 20.9082V20.9082Z" fill="#4285F4"/>
<path d="M35.2511 36.8795L29.7571 32.6145C28.043 33.7176 26.038 34.2829 24.0001 34.2375C21.8807 34.2111 19.8229 33.5206 18.1165 32.2633C16.4102 31.0059 15.1411 29.245 14.4881 27.2285H8.80811V31.6285C10.2222 34.4456 12.392 36.8139 15.0749 38.4686C17.7578 40.1234 20.848 40.9993 24.0001 40.9985C28.1385 41.1107 32.1634 39.6372 35.2511 36.8795Z" fill="#34A853"/>
<path d="M13.9552 24.0002C13.9576 22.9002 14.1376 21.8079 14.4882 20.7652V16.3652H8.80821C7.61919 18.7345 7 21.3488 7 23.9997C7 26.6507 7.61919 29.2649 8.80821 31.6342L14.4882 27.2342C14.1377 26.1919 13.9577 25.0999 13.9552 24.0002Z" fill="#FBBC05"/>
<path d="M30.4981 16.2992L35.3741 11.4232C32.2965 8.53471 28.2206 6.94932 24.0001 6.99919C20.8485 6.99795 17.7586 7.87314 15.0758 9.52694C12.393 11.1807 10.2229 13.548 8.80811 16.3642L14.4881 20.7642C15.1411 18.7477 16.4102 16.9868 18.1165 15.7294C19.8229 14.4721 21.8807 13.7816 24.0001 13.7552C26.4165 13.7152 28.7512 14.6293 30.4981 16.2992Z" fill="#EA4335"/>
</svg>
