<svg width="260" height="260" viewBox="0 0 260 260" fill="none" xmlns="http://www.w3.org/2000/svg">
<path d="M200 0C215.913 0 231.174 6.32141 242.426 17.5736C253.679 28.8258 260 44.087 260 60V200C260 215.913 253.679 231.174 242.426 242.426C231.174 253.679 215.913 260 200 260H60C44.087 260 28.8258 253.679 17.5736 242.426C6.32141 231.174 0 215.913 0 200L0 60C0 44.087 6.32141 28.8258 17.5736 17.5736C28.8258 6.32141 44.087 0 60 0L200 0Z" fill="#CDECFE"/>
<path d="M30.0879 29.021C30.3169 28.082 30.4939 27.523 30.4939 27.498L31.4589 27.828C31.4589 27.853 31.2809 28.361 31.0779 29.25L30.0879 29.021Z" fill="#87C0F4"/>
<path d="M16.579 221.483L16.554 220.468C17.5422 220.427 18.5263 220.317 19.499 220.139L19.677 221.129C18.6565 221.34 17.6189 221.459 16.577 221.484L16.579 221.483ZM13.456 221.283C12.4087 221.091 11.3969 220.74 10.456 220.242L10.938 219.354C11.7944 219.795 12.7093 220.111 13.655 220.294L13.455 221.283H13.456ZM22.749 220.395H22.649L22.369 219.43L22.446 219.404C23.303 219.134 24.174 218.827 25.188 218.439L25.569 219.379C24.815 219.679 23.814 220.067 22.751 220.395H22.749ZM7.92204 218.283C7.20077 217.506 6.6013 216.624 6.14404 215.668L7.05804 215.212C7.48102 216.081 8.02844 216.883 8.68304 217.594L7.92204 218.279V218.283ZM28.336 218.029L27.854 217.142C28.7131 216.656 29.5438 216.122 30.342 215.542L30.951 216.355C30.1146 216.966 29.2413 217.526 28.336 218.03V218.029ZM33.313 214.373L32.603 213.637C33.339 212.928 34.012 212.222 34.66 211.479L35.421 212.14C34.7579 212.92 34.055 213.666 33.315 214.374L33.313 214.373ZM37.35 209.751L36.539 209.142C37.019 208.486 37.65 207.615 38.265 206.679L39.103 207.238C38.55 208.079 37.955 208.964 37.351 209.751H37.35ZM40.778 204.673L39.916 204.14C40.381 203.396 40.881 202.573 41.49 201.551L42.353 202.059C41.83 202.959 41.33 203.793 40.779 204.674L40.778 204.673ZM43.878 199.442L42.99 198.935C43.324 198.355 43.652 197.762 43.999 197.135C44.1517 196.858 44.3067 196.578 44.464 196.296L45.352 196.778C44.823 197.757 44.352 198.632 43.88 199.443L43.878 199.442ZM46.823 194.136L45.936 193.654C46.392 192.792 46.879 191.895 47.383 190.987L48.271 191.469C47.777 192.359 47.29 193.255 46.824 194.135L46.823 194.136ZM49.692 188.803L48.805 188.321C49.013 187.928 49.2254 187.53 49.442 187.128C49.684 186.676 49.959 186.164 50.227 185.655L51.115 186.137C50.874 186.58 50.636 187.032 50.405 187.468C50.174 187.904 49.936 188.355 49.693 188.802L49.692 188.803ZM52.586 183.497L51.724 182.939C52.2919 182.062 52.9378 181.238 53.654 180.477L54.39 181.162C53.7289 181.891 53.1269 182.672 52.59 183.498L52.586 183.497ZM56.547 179.104L55.888 178.343L56.074 178.183C56.745 177.608 57.438 177.013 58.249 176.383L58.883 177.17C57.983 177.87 57.246 178.479 56.547 179.099V179.104ZM61.27 175.372L60.661 174.56C60.967 174.342 61.286 174.109 61.625 173.86H61.631C62.073 173.538 62.575 173.174 63.123 172.785L63.707 173.623C62.779 174.282 61.955 174.867 61.271 175.374L61.27 175.372ZM66.196 171.872L65.612 171.035C66.021 170.741 66.439 170.445 66.844 170.158C67.249 169.871 67.67 169.573 68.075 169.282L68.658 170.12C68.242 170.42 67.817 170.72 67.405 171.012L67.392 171.022C66.998 171.301 66.592 171.589 66.192 171.872H66.196ZM71.144 168.314L70.535 167.503C71.28 166.955 71.965 166.429 72.627 165.92L72.947 165.674L73.582 166.487C72.782 167.087 71.99 167.668 71.145 168.314H71.144ZM75.944 164.531L75.285 163.744C75.991 163.152 76.669 162.544 77.324 161.961L77.545 161.761L78.23 162.497C77.467 163.233 76.698 163.916 75.946 164.528L75.944 164.531ZM80.439 160.392L79.704 159.682C80.492 158.866 81.156 158.144 81.735 157.473L82.496 158.133C81.79 158.953 81.118 159.691 80.44 160.392H80.439ZM84.4 155.72L83.588 155.136C84.139 154.37 84.701 153.511 85.213 152.648L86.076 153.156C85.5656 154.04 85.0064 154.896 84.401 155.719L84.4 155.72ZM203.71 151.074H203.024V150.058H203.396C204.206 150.058 205.144 150.058 206.02 150.008L206.071 151.023H206.061C205.302 151.049 204.518 151.075 203.708 151.075L203.71 151.074ZM199.978 150.946C199.036 150.898 198.086 150.805 197.078 150.707L196.929 150.692L197.029 149.677C197.886 149.763 198.741 149.83 199.567 149.895L200.025 149.931L199.975 150.945L199.978 150.946ZM209.144 150.794L209.044 149.78C209.968 149.687 210.944 149.546 212.014 149.348L212.192 150.338C211.185 150.543 210.167 150.695 209.144 150.794ZM87.521 150.394L86.582 149.988C86.9896 149.086 87.3455 148.162 87.648 147.22L88.613 147.525C88.242 148.638 87.884 149.576 87.522 150.393L87.521 150.394ZM193.882 150.343C192.871 150.213 191.804 150.026 190.863 149.861L191.039 148.871C192.039 149.046 193.039 149.2 194.01 149.328L193.883 150.342L193.882 150.343ZM215.182 149.709L214.928 148.72C215.928 148.465 216.878 148.128 217.771 147.806L218.126 148.746C217.126 149.123 216.139 149.446 215.182 149.711V149.709ZM187.862 149.328C186.862 149.128 185.862 148.892 184.897 148.669H184.892L185.121 147.679C186.038 147.891 187.076 148.131 188.067 148.313L187.867 149.328H187.862ZM181.92 147.928L181.591 147.842C180.737 147.618 179.854 147.386 178.976 147.116L179.255 146.151L179.581 146.243C180.473 146.496 181.315 146.734 182.174 146.943L181.92 147.932V147.928ZM220.946 147.471L220.489 146.584C221.371 146.128 222.219 145.61 223.028 145.035L223.612 145.873C222.753 146.454 221.864 146.988 220.947 147.473L220.946 147.471ZM176.055 146.252C175.166 145.972 174.155 145.652 173.162 145.313L173.492 144.348C174.452 144.677 175.426 144.985 176.386 145.262L176.056 146.251L176.055 146.252ZM89.423 144.552L88.433 144.324C88.615 143.485 88.792 142.55 88.992 141.379L90.008 141.531C89.843 142.519 89.657 143.567 89.424 144.551L89.423 144.552ZM170.292 144.352C169.353 144.023 168.373 143.662 167.425 143.313L167.779 142.373C168.794 142.757 169.75 143.108 170.623 143.414L170.293 144.352H170.292ZM225.999 143.921L225.314 143.186C226.041 142.513 226.712 141.783 227.32 141.002L228.108 141.637C227.459 142.445 226.755 143.208 226.001 143.921H225.999ZM164.579 142.221L161.761 141.078L162.142 140.138L162.206 140.163C163.106 140.529 164.037 140.907 164.935 141.281L164.58 142.22L164.579 142.221ZM158.942 139.859C157.991 139.448 157.077 139.041 156.149 138.616L156.581 137.702C157.042 137.902 157.512 138.119 157.966 138.324C158.42 138.529 158.891 138.742 159.348 138.945L158.943 139.858L158.942 139.859ZM229.861 139.094L228.999 138.586C229.493 137.729 229.943 136.848 230.345 135.945L231.285 136.352C230.885 137.224 230.419 138.121 229.863 139.093L229.861 139.094ZM90.391 138.51L89.376 138.41V138.404C89.476 137.383 89.576 136.326 89.655 135.389L90.67 135.489C90.602 136.305 90.516 137.205 90.425 138.158L90.391 138.51ZM153.41 137.342C152.522 136.922 151.644 136.484 150.67 135.997L151.126 135.083C152.002 135.533 152.917 135.966 153.802 136.383L153.838 136.4L153.406 137.339L153.41 137.342ZM147.951 134.625C147.63 134.455 147.312 134.286 146.997 134.118C146.397 133.8 145.837 133.5 145.26 133.203L145.743 132.315C146.693 132.831 147.548 133.295 148.409 133.737L147.952 134.624L147.951 134.625ZM232.351 133.432L231.387 133.132C231.687 132.183 231.942 131.218 232.148 130.263L233.139 130.463C232.915 131.553 232.601 132.622 232.352 133.432H232.351ZM90.951 132.467L89.937 132.367C90.077 131.081 90.202 130.142 90.343 129.32L91.334 129.497C91.234 130.145 91.095 131.156 90.953 132.467H90.951ZM142.621 131.706C141.678 131.167 140.828 130.68 139.981 130.183L140.489 129.32C141.303 129.813 142.178 130.314 143.024 130.798L143.104 130.844L142.622 131.706H142.621ZM137.366 128.583C136.554 128.083 135.692 127.526 134.802 126.933L135.361 126.095C135.674 126.295 135.993 126.501 136.301 126.701C136.822 127.038 137.359 127.386 137.901 127.721L137.369 128.583H137.366ZM233.622 127.415L232.607 127.315C232.692 126.415 232.734 125.615 232.734 124.878V124.344L233.75 124.319V124.878C233.75 125.622 233.71 126.428 233.623 127.416L233.622 127.415ZM92.022 126.577L91.058 126.298C91.3497 125.298 91.7295 124.326 92.193 123.394L93.107 123.85C92.6636 124.721 92.2985 125.63 92.016 126.566L92.022 126.577ZM132.266 125.232C131.334 124.601 130.447 123.951 129.778 123.455L130.387 122.642C131.175 123.226 132.026 123.82 132.85 124.394L132.267 125.232H132.266ZM127.366 121.601C126.624 121.016 125.874 120.395 125.005 119.646L125.666 118.885C126.342 119.485 127.077 120.085 127.855 120.716L127.976 120.816L127.367 121.603L127.366 121.601ZM94.739 121.474L93.978 120.814C94.5754 120.132 95.2386 119.512 95.958 118.961L96.288 118.706L96.897 119.519L96.567 119.773C95.8872 120.258 95.2731 120.83 94.74 121.473L94.739 121.474ZM232.476 121.394C232.329 120.414 232.118 119.446 231.844 118.494L232.809 118.214C233.088 119.209 233.317 120.217 233.494 121.236L232.48 121.388L232.476 121.394ZM99.327 117.711L98.743 116.874C99.623 116.242 100.548 115.62 101.257 115.148L101.816 115.986C101.502 116.205 101.183 116.424 100.874 116.635C100.363 116.985 99.836 117.346 99.328 117.711H99.327ZM122.738 117.559C122.023 116.844 121.273 116.075 120.631 115.3L121.418 114.64C122.027 115.383 122.754 116.128 123.449 116.823L122.739 117.558L122.738 117.559ZM230.8 115.705C230.395 114.802 229.927 113.929 229.4 113.091L230.264 112.557C230.807 113.438 231.29 114.354 231.711 115.299L230.798 115.704L230.8 115.705ZM104.355 114.385L103.823 113.523C104.679 112.995 105.573 112.483 106.438 111.989L106.463 111.974L106.971 112.863C106.055 113.386 105.155 113.916 104.361 114.383L104.355 114.385ZM118.803 112.785C118.536 112.344 118.298 111.887 118.092 111.415C117.87 110.888 117.685 110.374 117.533 109.942L118.498 109.613L118.54 109.727C118.701 110.163 118.868 110.614 119.032 111.034C119.218 111.461 119.43 111.877 119.666 112.279L118.804 112.786L118.803 112.785ZM109.611 111.44L109.154 110.552C110.015 110.11 110.854 109.688 111.871 109.181L112.303 110.095C111.442 110.512 110.537 110.964 109.612 111.44H109.611ZM227.703 110.653C227.084 109.881 226.424 109.144 225.724 108.445L226.435 107.734C227.167 108.461 227.854 109.232 228.492 110.044L227.705 110.653H227.703ZM115.044 108.824L114.638 107.885C115.409 107.537 116.193 107.208 116.951 106.89L117 106.869L116.695 106.945C116.505 106.045 116.295 104.992 116.162 103.924L117.177 103.797C117.331 104.826 117.51 105.817 117.711 106.743L117.482 106.793L117.837 107.656L117.77 107.683C116.87 108.049 115.937 108.428 115.044 108.824ZM120.655 106.564L120.3 105.6C121.264 105.235 122.275 104.89 123.167 104.586L123.499 105.55L123.441 105.57C122.511 105.888 121.551 106.217 120.656 106.565L120.655 106.564ZM223.487 106.464C222.77 105.89 221.959 105.301 221.076 104.713L221.635 103.875C222.552 104.495 223.388 105.11 224.123 105.703L223.489 106.464H223.487ZM126.368 104.636L126.068 103.672C126.868 103.42 127.691 103.183 128.487 102.953L128.987 102.808L129.266 103.798C128.173 104.086 127.226 104.359 126.373 104.636H126.368ZM218.536 103.164C217.7 102.721 216.795 102.255 215.845 101.844L216.252 100.93C217.36 101.44 218.231 101.876 218.994 102.302L218.537 103.164H218.536ZM132.182 103.012L131.928 102.022C132.758 101.804 133.635 101.602 134.482 101.407L134.899 101.307L135.128 102.298L135.035 102.319C134.093 102.537 133.118 102.762 132.183 103.008L132.182 103.012ZM138.076 101.693L137.876 100.702C138.91 100.491 139.927 100.309 140.876 100.144L141.053 101.134C140.064 101.286 139.059 101.492 138.087 101.692L138.076 101.693ZM115.831 100.879C115.755 99.9238 115.704 98.8988 115.679 97.8327L116.694 97.8077C116.719 98.8517 116.77 99.8587 116.846 100.808L115.832 100.884L115.831 100.879ZM213.077 100.701C211.966 100.301 211.063 100.001 210.234 99.7617L210.514 98.7968L210.554 98.8087C211.514 99.1087 212.507 99.4088 213.433 99.7607L213.078 100.7L213.077 100.701ZM144.044 100.624L143.892 99.6087C144.663 99.4908 145.464 99.3697 146.24 99.2527L146.283 99.2458L146.913 99.1507L147.066 100.167C146.785 100.208 146.505 100.248 146.227 100.286C145.467 100.393 144.748 100.494 144.045 100.624H144.044ZM150.036 99.7858L149.909 98.7708C150.432 98.7038 150.97 98.6427 151.491 98.5837C151.964 98.5297 152.451 98.4747 152.93 98.4147L153.03 99.4307C152.019 99.5307 151.016 99.6608 150.046 99.7848H150.034L150.036 99.7858ZM156.053 99.1247L155.953 98.1107C156.977 98.0057 158.038 97.9268 158.974 97.8568L159.05 98.8717C158.14 98.9628 157.234 99.0338 156.358 99.1018L156.058 99.1257L156.053 99.1247ZM207.314 98.9938C206.391 98.7747 205.4 98.5697 204.37 98.3848L204.547 97.3948C205.625 97.5828 206.632 97.7888 207.547 98.0038L207.319 98.9928L207.314 98.9938ZM162.093 98.6637L162.017 97.6497C163.004 97.5758 164.004 97.5248 164.972 97.4758H165.064L165.114 98.4918H165.064C164.095 98.5408 163.094 98.5918 162.093 98.6667V98.6637ZM168.136 98.3087L168.086 97.2947C169.273 97.2347 170.186 97.1947 171.132 97.1677L171.183 98.1827C170.67 98.2087 170.148 98.2288 169.643 98.2467H169.633C169.141 98.2647 168.633 98.2837 168.133 98.3087H168.136ZM174.205 98.0547L174.155 97.0407C175.171 96.9897 176.203 96.9638 177.2 96.9408L177.226 97.9557C176.748 97.9688 176.257 97.9868 175.782 98.0048C175.265 98.0238 174.732 98.0447 174.206 98.0577L174.205 98.0547ZM201.398 97.9277C200.456 97.8037 199.448 97.7017 198.398 97.6277L198.474 96.6117C199.195 96.6657 199.932 96.7458 200.645 96.8238H200.667C200.955 96.8548 201.24 96.8857 201.522 96.9147L201.395 97.9287L201.398 97.9277ZM180.273 97.8278L180.247 96.8138C181.274 96.7887 182.287 96.7368 183.266 96.6868L183.319 97.7018L183.207 97.7087C182.307 97.7537 181.281 97.8088 180.274 97.8288L180.273 97.8278ZM186.341 97.5987L186.291 96.5847C186.823 96.5627 187.485 96.5368 188.119 96.4847C188.519 96.4597 188.931 96.4348 189.338 96.4348L189.389 97.4498C189.189 97.4618 188.989 97.4688 188.804 97.4747C188.619 97.4807 188.404 97.4877 188.195 97.5007C187.504 97.5277 186.929 97.5528 186.342 97.6008L186.341 97.5987ZM195.406 97.4467C194.458 97.4217 193.479 97.3968 192.487 97.3968H192.387V96.3828H192.487C193.469 96.3828 194.453 96.4087 195.404 96.4337H195.432L195.407 97.4477L195.406 97.4467ZM116.669 94.7837H115.654C115.654 93.9467 115.674 93.0908 115.696 92.0988V92.0938L115.704 91.7378L116.719 91.7627C116.707 92.2867 116.701 92.7857 116.695 93.2687V93.2827C116.688 93.8047 116.682 94.2987 116.669 94.7827V94.7837ZM116.846 88.7147L115.832 88.6647V88.5817C115.857 87.8817 115.882 87.1647 115.932 86.4548L115.957 85.6427L116.973 85.6927L116.947 86.5057C116.898 87.2157 116.873 87.9377 116.847 88.6357V88.7127L116.846 88.7147ZM117.101 82.6468L116.086 82.6208C116.137 81.5057 116.162 80.5208 116.162 79.5998L117.177 79.6247C117.177 80.1917 117.157 80.7918 117.137 81.4248V81.4367C117.124 81.8247 117.111 82.2248 117.102 82.6447L117.101 82.6468ZM116.161 76.5778C116.135 75.4508 116.109 74.5148 116.034 73.5778L117.049 73.5018C117.105 74.5498 117.149 75.5018 117.176 76.5488L116.162 76.5737L116.161 76.5778ZM115.754 70.5858C115.619 69.6036 115.433 68.6293 115.196 67.6668L116.186 67.4128C116.432 68.4238 116.628 69.4398 116.77 70.4338L115.755 70.5858H115.754ZM114.282 64.8478C113.908 63.9438 113.449 63.0773 112.912 62.2598L113.75 61.7008C114.326 62.5752 114.819 63.5016 115.222 64.4678L114.283 64.8478H114.282ZM58.044 60.9118H57.714C56.78 60.9118 55.857 60.8868 54.972 60.8358L55.023 59.8197C55.884 59.8708 56.764 59.8958 57.714 59.8958H58.044V60.9097V60.9118ZM61.117 60.8118L61.064 59.7938C61.939 59.7478 62.828 59.6607 63.77 59.5688L64.06 59.5408L64.16 60.5557L63.85 60.5858C62.889 60.6777 61.984 60.7647 61.115 60.8107L61.117 60.8118ZM51.925 60.5068C50.9078 60.3601 49.8996 60.1568 48.905 59.8978L49.159 58.9077C50.149 59.1487 51.131 59.3458 52.079 59.4918L51.927 60.5058L51.925 60.5068ZM67.185 60.1768L67.058 59.1628C67.93 59.0448 68.91 58.8958 70.058 58.7057L70.21 59.6957C69.228 59.8787 68.24 60.0357 67.19 60.1777L67.185 60.1768ZM111.035 60.0767C110.311 59.434 109.52 58.8724 108.674 58.4018L109.156 57.5138C110.079 58.0102 110.94 58.6145 111.721 59.3137L111.036 60.0748L111.035 60.0767ZM73.177 59.2138L73 58.2248L74.485 57.9578L75.97 57.6908L76.148 58.6817C75.059 58.8818 74.087 59.0557 73.178 59.2148L73.177 59.2138ZM45.933 58.9848C44.9693 58.6181 44.0283 58.1943 43.115 57.7157L43.597 56.8267C44.4702 57.2844 45.3691 57.6914 46.289 58.0457L45.934 58.9848H45.933ZM79.169 58.1217L78.992 57.1327L80.513 56.8617H80.519L81.989 56.5998L82.166 57.5907C81.284 57.7447 80.408 57.9017 79.56 58.0537H79.553L79.171 58.1227L79.169 58.1217ZM105.957 57.2838C105.008 56.9877 104.041 56.7502 103.063 56.5728L103.241 55.5828C104.255 55.7764 105.257 56.0306 106.241 56.3438L105.962 57.2827L105.957 57.2838ZM85.136 57.0837L84.984 56.0697C85.604 55.9697 86.2001 55.8797 86.776 55.7957H86.786C87.207 55.7347 87.604 55.6768 88.005 55.6138L88.132 56.6297C87.075 56.7687 86.025 56.9388 85.132 57.0858L85.136 57.0837ZM91.128 56.2967L91.028 55.2817C92.106 55.1817 93.128 55.1038 94.075 55.0527L94.126 56.0688C93.184 56.1178 92.205 56.1928 91.126 56.2978L91.128 56.2967ZM100.116 56.1448C99.15 56.0678 98.17 56.0177 97.116 55.9918V54.9708C98.1423 54.9685 99.168 55.0192 100.189 55.1227L100.113 56.1378L100.116 56.1448ZM40.473 56.1187C39.631 55.5487 38.802 54.9258 38.011 54.2658L38.671 53.4778C39.4348 54.119 40.2315 54.7198 41.058 55.2778L40.475 56.1147L40.473 56.1187ZM35.773 52.1327C35.0717 51.3797 34.419 50.5828 33.819 49.7467L34.657 49.1628C35.2256 49.9701 35.8537 50.7339 36.536 51.4478L35.774 52.1327H35.773ZM32.168 47.1058C31.6823 46.1963 31.2583 45.2552 30.899 44.2887L31.864 43.9327C32.1965 44.8695 32.6041 45.7778 33.083 46.6488L32.17 47.1058H32.168ZM30.036 41.3108C29.8009 40.3075 29.6315 39.29 29.529 38.2648L30.545 38.1648C30.6394 39.1479 30.8004 40.1235 31.027 41.0848L30.037 41.3127L30.036 41.3108ZM30.391 35.1667H29.377C29.3846 34.1401 29.4436 33.1145 29.554 32.0938L30.57 32.2208C30.479 33.0857 30.42 34.0488 30.392 35.1658L30.391 35.1667Z" fill="#87C0F4"/>
<path d="M4.82397 211.047L5.83997 210.996C5.87445 211.476 5.95108 211.952 6.06897 212.418L5.07897 212.618C4.87497 211.682 4.84897 211.072 4.82397 211.047Z" fill="#87C0F4"/>
<path d="M118.574 67.2852C106.894 73.1252 105.374 85.8202 104.355 93.4372C103.336 101.054 99.0231 111.465 92.4221 117.054C85.8211 122.643 80.2341 128.731 77.6951 142.188C75.1561 155.645 78.7111 165.04 74.9021 177.227C71.0931 189.414 59.1601 206.172 59.9221 219.883C60.6841 233.594 72.3631 232.071 72.3631 232.071H227.246C231.744 219.217 232.1 205.275 228.262 192.208C222.676 173.165 205.918 170.372 201.348 145.489C198.987 132.641 199.317 128.989 189.922 117.052C180.248 104.763 173.672 104.611 169.356 93.4392C165.04 82.2672 162.501 61.1932 136.856 67.5392C136.855 67.5392 130.254 61.4452 118.574 67.2852Z" fill="#1F1F39"/>
<path d="M208.939 231.944H169.099L159.199 193.477L201.424 186.799L208.939 231.944Z" fill="#F9D2DD"/>
<path d="M34.278 206.934C26.152 205.407 12.952 197.031 14.473 179.258C15.994 161.485 49.258 109.18 49.258 109.18C49.258 109.18 43.926 103.086 46.211 95.7229C48.496 88.3599 56.622 86.3279 61.952 86.0739C65.0344 85.898 68.1245 86.2414 71.093 87.0899L82.773 70.5899C82.773 70.5899 85.313 67.2849 88.36 68.8069C91.407 70.3289 85.313 80.2329 85.313 80.2329L79.727 91.6599C79.727 91.6599 78.711 101.56 76.427 107.148C74.143 112.736 72.872 114.007 72.872 114.007L60.684 154.121L74.652 150.313L61.952 202.871C61.952 202.871 42.403 208.457 34.278 206.934Z" fill="#FFEBF0"/>
<path d="M61.9541 202.871L74.6491 150.312L62.1571 153.713L49.7661 205.665C58.3231 204.547 61.9541 202.871 61.9541 202.871Z" fill="#F9ACC0"/>
<path d="M159.199 193.477L162.699 207.137L205.99 214.323L201.424 186.799L159.199 193.477Z" fill="#F9ACC0"/>
<path d="M205.918 206.172C205.918 206.172 200.078 148.535 171.133 139.649C142.188 130.763 122.133 133.555 112.988 136.349C103.843 139.143 64.7459 151.582 64.7459 151.582L56.3669 207.187L78.9669 204.902L75.1559 232.07H175.246C175.246 232.07 173.164 216.07 170.625 206.17L205.918 206.172Z" fill="#3D5CFF"/>
<path d="M205.918 206.172C205.918 206.172 200.078 148.535 171.133 139.649C142.188 130.763 122.133 133.555 112.988 136.349C103.843 139.143 64.7459 151.582 64.7459 151.582L56.3669 207.187L78.9669 204.902L75.1559 232.07H175.246C175.246 232.07 173.164 216.07 170.625 206.17L205.918 206.172Z" fill="#3D5CFF"/>
<path d="M200.357 181.948C196.473 177.579 186.139 167.399 173.723 166.815C163.465 166.333 160.923 160.036 158.666 154.501C157.219 150.946 155.873 147.569 152.75 145.665C147.088 142.212 141.273 144.065 133.961 146.401C130.568 147.555 127.109 148.505 123.602 149.245C117.025 150.54 113.014 147.569 110.779 144.852C109.294 143.002 108.182 140.88 107.504 138.606C107.486 138.543 107.481 138.477 107.489 138.412C107.497 138.346 107.519 138.283 107.552 138.226C107.585 138.17 107.629 138.12 107.682 138.081C107.735 138.041 107.795 138.013 107.859 137.997C107.922 137.979 107.989 137.974 108.054 137.982C108.12 137.99 108.183 138.012 108.24 138.045C108.297 138.078 108.346 138.122 108.386 138.175C108.425 138.228 108.453 138.288 108.469 138.352C109.112 140.49 110.165 142.482 111.569 144.217C114.569 147.848 118.526 149.194 123.401 148.254C126.868 147.504 130.292 146.563 133.656 145.436C140.943 143.1 147.24 141.094 153.286 144.801C156.686 146.883 158.186 150.565 159.634 154.119C161.868 159.654 164.179 165.367 173.802 165.799C186.596 166.379 197.186 176.819 201.144 181.262C201.189 181.312 201.223 181.37 201.245 181.433C201.267 181.496 201.276 181.562 201.271 181.629C201.266 181.695 201.248 181.76 201.217 181.819C201.187 181.879 201.144 181.931 201.093 181.973C200.994 182.062 200.87 182.115 200.738 182.125C200.665 182.129 200.592 182.114 200.526 182.083C200.46 182.053 200.402 182.006 200.357 181.948Z" fill="#EAEAFF"/>
<path d="M124.871 227.525C124.414 215.845 118.371 214.144 111.389 212.189C108.139 211.275 104.762 210.335 101.842 208.279C95.4181 203.785 96.1801 199.037 97.0691 193.527C97.6008 190.725 97.8308 187.873 97.7551 185.021C97.3231 176.896 90.7731 174.712 81.7341 171.721C80.0341 171.162 78.2551 170.553 76.4271 169.893C71.5761 168.136 68.9861 164.074 68.9341 158.183C68.9425 155.354 69.3971 152.543 70.2811 149.855L71.2461 150.185C70.3903 152.766 69.9531 155.467 69.9511 158.185C70.0271 163.669 72.3121 167.3 76.7811 168.925C78.5811 169.585 80.3611 170.169 82.0621 170.725C91.1521 173.746 98.3121 176.133 98.7941 184.944C98.8841 187.864 98.654 190.784 98.1081 193.653C97.2191 199.239 96.5851 203.301 102.475 207.415C105.268 209.37 108.543 210.284 111.717 211.173C118.777 213.155 125.455 215.007 125.934 227.449C125.983 228.929 126.119 230.404 126.34 231.867L125.274 232.045C125.053 230.548 124.918 229.039 124.871 227.525Z" fill="#EAEAFF"/>
<path d="M148.281 182.381C147.088 182.203 145.869 182 144.523 181.772C137.414 180.502 136.449 175.881 135.433 171.006C134.962 167.862 133.894 164.837 132.285 162.094C129.264 157.448 124.16 158.615 117.101 160.24C112.556 161.281 107.427 162.449 101.714 162.297C98.8174 162.285 95.9852 161.442 93.5546 159.866C91.124 158.29 89.1973 156.05 88.004 153.41C86.6875 150.746 85.8701 147.863 85.592 144.904L86.608 144.828C86.8975 147.662 87.6885 150.421 88.944 152.978C91.635 158.335 95.952 161.128 101.766 161.278C107.352 161.43 112.405 160.262 116.899 159.247C124.085 157.597 129.747 156.302 133.174 161.532C134.856 164.373 135.977 167.51 136.474 170.774C137.515 175.7 138.328 179.61 144.751 180.753C146.071 180.982 147.29 181.185 148.483 181.362C155.415 182.454 160.01 183.162 166.434 190.071L165.647 190.782C159.453 184.128 155.01 183.447 148.281 182.381Z" fill="#EAEAFF"/>
<path d="M109.18 94.9606C105.625 98.0076 107.656 104.355 112.48 106.133C117.304 107.911 118.574 106.641 118.574 106.641L116.289 94.4526C115.215 93.7375 113.934 93.3994 112.648 93.4914C111.361 93.5833 110.141 94.1001 109.18 94.9606Z" fill="#F9ACC0"/>
<path d="M117.812 111.465C118.632 113.329 119.819 115.009 121.302 116.405C122.786 117.8 124.534 118.883 126.445 119.588C126.719 122.644 126.548 125.723 125.937 128.729C125.442 131.177 124.676 133.562 123.655 135.84C123.655 135.84 125.178 139.14 135.843 139.649C146.508 140.158 148.031 135.84 148.031 135.84C147.321 131.817 146.981 127.738 147.015 123.653C147.369 119.308 147.963 114.985 148.792 110.704C148.792 110.704 155.647 112.989 159.964 108.673C164.281 104.357 163.264 96.2323 157.933 95.7243C152.602 95.2163 149.805 99.7883 149.805 99.7883C149.805 99.7883 142.187 96.2303 139.141 90.3883C136.095 84.5463 135.841 80.4883 135.841 80.4883C135.841 80.4883 121.113 82.5193 116.035 94.4533C116.035 94.4533 115.019 105.117 117.812 111.465Z" fill="#F9D2DD"/>
<path d="M123.779 101.055C123.293 100.999 122.848 100.756 122.539 100.376C122.231 99.9959 122.084 99.5104 122.129 99.0232C122.084 98.5362 122.231 98.0509 122.54 97.6713C122.848 97.2916 123.293 97.0479 123.779 96.9922C124.265 97.0479 124.71 97.2916 125.018 97.6713C125.326 98.0509 125.474 98.5362 125.429 99.0232C125.474 99.5104 125.327 99.9959 125.018 100.376C124.71 100.756 124.265 100.999 123.779 101.055Z" fill="#1F1F39"/>
<path d="M136.728 101.817C136.242 101.761 135.797 101.517 135.489 101.137C135.18 100.758 135.033 100.272 135.078 99.7849C135.033 99.2979 135.181 98.8126 135.489 98.433C135.797 98.0534 136.242 97.8096 136.728 97.7539C137.214 97.8096 137.659 98.0534 137.967 98.433C138.276 98.8126 138.423 99.2979 138.378 99.7849C138.423 100.272 138.276 100.758 137.968 101.137C137.659 101.517 137.214 101.761 136.728 101.817Z" fill="#1F1F39"/>
<path d="M134.062 107.148C135.15 106.69 136.175 106.093 137.109 105.371C137.109 105.371 137.617 105.117 137.871 105.371C138.125 105.625 136.5 108.519 135.078 108.926C134.391 109.154 133.649 109.153 132.963 108.925C132.276 108.696 131.682 108.252 131.269 107.658C130.507 106.642 131.523 106.896 131.523 106.896C132.339 107.17 133.207 107.257 134.062 107.148Z" fill="#F95368"/>
<path d="M129.01 99.1C128.7 99.6222 128.445 100.175 128.249 100.75C128.167 101.013 128.133 101.288 128.149 101.563C128.149 101.639 128.174 101.69 128.174 101.741L128.25 101.941C128.307 102.073 128.374 102.2 128.45 102.322C128.63 102.556 128.86 102.746 129.124 102.878C129.388 103.01 129.678 103.081 129.973 103.084C129.66 103.181 129.326 103.19 129.008 103.109C128.669 103.032 128.365 102.845 128.145 102.576C128.031 102.442 127.93 102.298 127.845 102.144L127.745 101.915C127.715 101.842 127.69 101.74 127.665 101.639C127.614 101.291 127.64 100.937 127.741 100.6C127.953 99.98 128.262 99.3972 128.655 98.873C129.051 98.3665 129.502 97.9059 130 97.5L129.01 99.1Z" fill="#1F1F39"/>
<path d="M180.984 206.172C179.791 202.389 175.373 188.906 170.368 180.019C166.711 173.577 162.278 167.609 157.168 162.246C157.168 162.246 163.468 180.476 165.293 186.621C167.093 192.639 171.717 210.945 171.717 210.945C171.362 209.269 171.006 207.645 170.625 206.172H180.984Z" fill="#224BF4"/>
<path d="M136.449 92.8782C136.947 92.6933 137.468 92.5822 137.998 92.5482C138.539 92.5127 139.082 92.5806 139.598 92.7482C140.128 92.8972 140.587 93.2301 140.893 93.6872C140.427 93.5104 139.94 93.3922 139.445 93.3352C138.973 93.289 138.497 93.2807 138.023 93.3102C137.539 93.3358 137.057 93.3866 136.578 93.4622L135.078 93.6912C135.485 93.3436 135.949 93.0686 136.449 92.8782Z" fill="#1F1F39"/>
<path d="M121.19 91.2792C122.52 91.1166 123.866 91.4198 124.998 92.1372C125.281 92.3218 125.537 92.5438 125.76 92.7972C125.988 93.0449 126.138 93.354 126.192 93.6862C126.008 93.438 125.774 93.2307 125.506 93.0772C125.243 92.9267 124.972 92.7912 124.694 92.6712C124.139 92.4507 123.571 92.264 122.994 92.1122C122.409 91.9777 121.814 91.8944 121.215 91.8632C120.606 91.8632 119.971 91.8632 119.336 91.9132C119.903 91.5749 120.534 91.3589 121.19 91.2792Z" fill="#1F1F39"/>
<path d="M234.098 231.816V232.656H25.8979V231.816H234.098Z" fill="#1F1F39"/>
<path d="M67.1331 110.653C64.7906 108.457 63.2451 105.545 62.7401 102.375C62.3591 99.8868 62.5121 96.3578 64.0861 94.5038C64.2575 94.2774 64.4753 94.0901 64.7248 93.9544C64.9743 93.8187 65.2498 93.7377 65.5331 93.7168C66.8531 93.7168 67.3331 94.7068 68.1481 96.3578C68.4021 96.8908 68.7071 97.4748 69.0621 98.1578C70.5651 100.877 74.8261 105.168 74.8511 105.217C74.8744 105.24 74.8929 105.268 74.9055 105.298C74.9181 105.329 74.9246 105.361 74.9246 105.394C74.9246 105.427 74.9181 105.46 74.9055 105.49C74.8929 105.521 74.8744 105.548 74.8511 105.572C74.8278 105.595 74.8001 105.614 74.7696 105.626C74.7392 105.639 74.7065 105.645 74.6736 105.645C74.6406 105.645 74.608 105.639 74.5775 105.626C74.547 105.614 74.5194 105.595 74.4961 105.572C74.3181 105.397 70.1291 101.207 68.6051 98.4168C68.2251 97.7288 67.9451 97.1168 67.6651 96.5858C66.8531 94.9098 66.4731 94.2248 65.5081 94.2248C65.0864 94.2797 64.7034 94.4985 64.4421 94.8338C63.5271 95.9008 62.6391 98.5168 63.1971 102.299C63.6957 105.35 65.1858 108.152 67.4371 110.272C67.4626 110.293 67.4835 110.319 67.4986 110.349C67.5137 110.379 67.5227 110.411 67.5251 110.444C67.5274 110.477 67.523 110.51 67.5122 110.542C67.5014 110.573 67.4843 110.602 67.4621 110.627C67.4412 110.653 67.414 110.674 67.3829 110.688C67.3517 110.701 67.3177 110.706 67.2841 110.703C67.2299 110.702 67.1773 110.684 67.1331 110.653Z" fill="#1F1F39"/>
<path d="M55.91 101.436C51.975 100.116 51.924 98.2367 51.924 98.1607C51.922 98.1268 51.9271 98.0929 51.9392 98.0611C51.9512 98.0294 51.9699 98.0006 51.9939 97.9765C52.0179 97.9525 52.0467 97.9339 52.0785 97.9219C52.1102 97.9098 52.1441 97.9046 52.178 97.9067C52.2454 97.9067 52.31 97.9334 52.3576 97.9811C52.4053 98.0287 52.432 98.0933 52.432 98.1607C52.432 98.1857 52.532 99.7857 56.063 100.979C57.149 101.327 58.2964 101.442 59.4298 101.315C60.5633 101.188 61.657 100.823 62.639 100.243C62.6674 100.224 62.6991 100.212 62.7323 100.206C62.7655 100.2 62.7996 100.2 62.8326 100.207C62.8656 100.214 62.8969 100.228 62.9247 100.247C62.9525 100.266 62.9762 100.291 62.9945 100.319C63.0128 100.348 63.0254 100.379 63.0315 100.412C63.0375 100.446 63.037 100.48 63.0299 100.513C63.0228 100.546 63.0093 100.577 62.9901 100.605C62.9709 100.633 62.9464 100.656 62.918 100.675C61.5794 101.418 60.0814 101.827 58.551 101.868C57.6535 101.863 56.7622 101.717 55.91 101.436Z" fill="#1F1F39"/>
<path d="M139.648 120.098C135.331 121.202 130.804 121.185 126.496 120.047C126.719 122.953 126.532 125.877 125.938 128.731C125.862 129.086 125.786 129.416 125.709 129.721C129.054 129.77 132.359 128.993 135.332 127.461C141.68 124.16 142.695 119.336 142.695 119.336C141.666 119.533 140.649 119.787 139.648 120.098Z" fill="#F9ACC0"/>
<path d="M47.603 156.584C47.5903 156.518 47.6041 156.449 47.6416 156.393C47.679 156.337 47.737 156.298 47.803 156.284L64.518 152.872C64.5842 152.859 64.6528 152.873 64.7089 152.91C64.7651 152.948 64.8042 153.006 64.818 153.072C64.8307 153.138 64.8168 153.207 64.7794 153.263C64.742 153.319 64.684 153.358 64.618 153.372L47.912 156.787H47.862C47.8014 156.791 47.7415 156.772 47.6938 156.735C47.646 156.697 47.6137 156.644 47.603 156.584Z" fill="#1F1F39"/>
<path d="M131.901 121.24C130.561 121.178 129.232 120.965 127.94 120.605C127.408 120.463 126.884 120.294 126.369 120.098C126.306 120.073 126.255 120.025 126.227 119.964C126.199 119.902 126.195 119.832 126.217 119.768C126.242 119.705 126.29 119.654 126.351 119.626C126.413 119.597 126.483 119.594 126.547 119.615C127.055 119.803 127.572 119.964 128.096 120.098C129.354 120.451 130.649 120.655 131.955 120.707C135.186 120.865 138.418 120.443 141.501 119.463C141.565 119.442 141.635 119.445 141.696 119.473C141.758 119.502 141.806 119.552 141.831 119.615C141.853 119.679 141.849 119.749 141.821 119.811C141.792 119.872 141.742 119.92 141.679 119.945C138.924 120.84 136.044 121.286 133.148 121.265C132.742 121.266 132.311 121.266 131.901 121.24Z" fill="#1F1F39"/>
<path d="M115.654 105.244C115.469 103.755 114.958 102.325 114.156 101.057C112.709 98.4138 111.49 97.8808 111.49 97.8568C111.458 97.8456 111.429 97.8276 111.405 97.804C111.381 97.7804 111.362 97.7518 111.35 97.7202C111.338 97.6886 111.332 97.6548 111.335 97.621C111.337 97.5873 111.347 97.5545 111.363 97.5248C111.39 97.4637 111.439 97.4145 111.499 97.3866C111.56 97.3586 111.629 97.3537 111.693 97.3728C111.744 97.3978 113.065 97.9568 114.613 100.775C115.471 102.114 116.001 103.636 116.162 105.219C116.167 105.254 116.163 105.291 116.152 105.325C116.142 105.359 116.123 105.39 116.099 105.417C116.075 105.443 116.046 105.464 116.013 105.478C115.98 105.492 115.944 105.499 115.908 105.498C115.874 105.5 115.84 105.495 115.808 105.483C115.777 105.471 115.748 105.452 115.724 105.428C115.7 105.404 115.681 105.375 115.669 105.343C115.657 105.312 115.652 105.278 115.654 105.244Z" fill="#1F1F39"/>
<path d="M170.173 205.945C169.234 202.745 167.862 197.795 166.542 192.285C164.024 181.747 156.965 162.552 156.889 162.349C156.867 162.285 156.871 162.215 156.899 162.153C156.927 162.092 156.978 162.044 157.041 162.019C157.105 161.996 157.176 162 157.238 162.028C157.299 162.056 157.348 162.107 157.373 162.171C157.449 162.371 164.508 181.595 167.021 192.157C168.341 197.667 169.712 202.618 170.626 205.792C170.635 205.823 170.637 205.856 170.633 205.888C170.629 205.92 170.618 205.952 170.601 205.98C170.585 206.008 170.562 206.032 170.536 206.051C170.51 206.071 170.48 206.084 170.448 206.092C170.473 206.092 170.448 206.117 170.423 206.117C170.37 206.112 170.319 206.094 170.275 206.064C170.231 206.034 170.196 205.992 170.173 205.945Z" fill="#1F1F39"/>
<path d="M96.7381 43.6719C96.7214 43.8408 96.7214 44.011 96.7381 44.1799V43.6719Z" fill="#EAEAFF"/>
<path d="M90.1201 55.5571C90.0231 55.5569 89.9264 55.5479 89.8311 55.5301H89.4291C89.2552 55.5319 89.0827 55.4991 88.9217 55.4334C88.7607 55.3677 88.6144 55.2706 88.4915 55.1476C88.3686 55.0247 88.2714 54.8784 88.2057 54.7174C88.14 54.5564 88.1072 54.3839 88.1091 54.2101V45.0431H80.2601C79.5729 45.0442 78.8922 44.9098 78.2571 44.6474C77.6219 44.385 77.0449 43.9998 76.5589 43.5139C76.0729 43.0281 75.6876 42.451 75.4251 41.816C75.1626 41.1809 75.028 40.5002 75.0291 39.8131V24.6041C75.028 23.9168 75.1626 23.2361 75.4251 22.601C75.6876 21.9659 76.0729 21.3888 76.5588 20.9028C77.0448 20.4169 77.6219 20.0316 78.257 19.7691C78.8921 19.5066 79.5728 19.372 80.2601 19.3731H114.229C115.618 19.3744 116.951 19.9251 117.935 20.9051C118.92 21.8851 119.477 23.2148 119.485 24.6041V39.8381C119.486 40.5252 119.351 41.2058 119.089 41.8408C118.826 42.4758 118.441 43.0528 117.955 43.5386C117.469 44.0245 116.892 44.4097 116.257 44.6721C115.622 44.9346 114.941 45.0691 114.254 45.0681H101.791L91.0291 55.1991C90.9092 55.3165 90.767 55.4087 90.6109 55.4702C90.4547 55.5317 90.2878 55.5612 90.1201 55.5571ZM88.3551 24.5911C88.1022 24.5889 87.8494 24.6016 87.5981 24.6291C87.3637 25.2791 87.258 25.9686 87.2871 26.6591C87.3563 28.6211 87.8983 30.5374 88.8671 32.2451C90.617 35.2789 93.2843 37.6794 96.4851 39.1011C101.717 38.3401 105.279 36.5781 107.073 33.8631C108.137 32.2688 108.53 30.319 108.165 28.4371C107.614 28.2947 107.045 28.2274 106.476 28.2371C104.616 28.254 102.808 28.8573 101.31 29.9611C98.0291 32.2951 97.3561 34.3041 97.2461 35.2931C97.1479 32.5621 96.2666 29.917 94.7071 27.6731C93.9738 26.6868 93.0136 25.8918 91.9079 25.3553C90.8022 24.8189 89.5835 24.5567 88.3551 24.5911Z" fill="white"/>
<path d="M101.562 34.531C104.609 31.992 106.894 29.707 106.894 29.707C105.446 30.3931 104.083 31.2451 102.832 32.246C100.584 34.2252 98.4633 36.3455 96.4841 38.594C96.4841 38.594 98.5151 37.07 101.562 34.531Z" fill="white"/>
<path d="M92.1682 32.2462C93.3138 34.5472 94.7656 36.6826 96.4842 38.5942C96.4842 38.5942 95.2142 35.8012 93.6912 32.7542C92.5401 30.5946 91.1795 28.5535 89.6292 26.6602C89.6292 26.6602 89.8832 27.9302 92.1682 32.2462Z" fill="white"/>
<path d="M203.039 96.9178C202.873 96.9207 202.708 96.8907 202.553 96.8294C202.399 96.7681 202.258 96.6768 202.139 96.5608L191.372 86.4298H178.903C178.216 86.4308 177.535 86.2962 176.9 86.0337C176.265 85.7712 175.688 85.3859 175.202 84.9C174.716 84.414 174.33 83.837 174.068 83.2018C173.805 82.5667 173.671 81.886 173.672 81.1988V65.9908C173.671 65.3035 173.805 64.6228 174.068 63.9877C174.33 63.3526 174.716 62.7755 175.202 62.2895C175.688 61.8036 176.265 61.4183 176.9 61.1558C177.535 60.8933 178.216 60.7587 178.903 60.7598H212.872C214.256 60.7597 215.585 61.3058 216.569 62.2794C217.553 63.253 218.113 64.5755 218.128 65.9598V81.1738C218.129 81.861 217.994 82.5416 217.732 83.1767C217.469 83.8117 217.084 84.3888 216.598 84.8747C216.112 85.3606 215.535 85.7459 214.9 86.0085C214.265 86.271 213.584 86.4057 212.897 86.4048H205.055V95.5698C205.057 95.7436 205.024 95.9161 204.958 96.0771C204.893 96.2381 204.795 96.3844 204.672 96.5073C204.549 96.6303 204.403 96.7274 204.242 96.7931C204.081 96.8588 203.909 96.8916 203.735 96.8898H203.328C203.233 96.908 203.136 96.9174 203.039 96.9178ZM202.195 66.7238C202.088 66.724 201.982 66.7423 201.881 66.7778L197.107 68.4028C196.93 68.468 196.777 68.5854 196.668 68.7395C196.559 68.8937 196.5 69.0772 196.498 69.2658V79.8538C196.494 79.9061 196.503 79.9587 196.524 80.0068C196.554 80.0941 196.611 80.1699 196.687 80.2236C196.762 80.2773 196.852 80.3064 196.945 80.3068C196.991 80.3069 197.038 80.2995 197.082 80.2848L202.49 78.4308C202.683 78.364 202.849 78.2364 202.964 78.0671C203.078 77.8978 203.135 77.6959 203.125 77.4918V67.6668C203.12 67.5668 203.104 67.4678 203.076 67.3718V67.3618C203.017 67.1752 202.899 67.0125 202.74 66.8976C202.582 66.7828 202.391 66.7219 202.195 66.7238ZM189.595 66.7238C189.343 66.7298 189.104 66.8342 188.928 67.0145C188.752 67.1949 188.654 67.437 188.655 67.6888V77.5148C188.654 77.7108 188.715 77.9021 188.829 78.0615C188.943 78.2209 189.104 78.3403 189.29 78.4028L194.695 80.2598C194.734 80.28 194.778 80.2887 194.822 80.2848C194.881 80.2877 194.939 80.2788 194.994 80.2585C195.05 80.2381 195.1 80.2068 195.143 80.1664C195.185 80.1261 195.22 80.0775 195.243 80.0236C195.266 79.9696 195.279 79.9115 195.279 79.8528V69.2658C195.277 69.0774 195.218 68.8941 195.109 68.74C195.001 68.5859 194.848 68.4683 194.672 68.4028L189.896 66.7768C189.797 66.7478 189.695 66.7311 189.592 66.7268L189.595 66.7238Z" fill="white"/>
<path d="M143.33 107.91C140.596 107.91 138.379 106.546 138.379 104.863C138.379 103.18 140.596 101.816 143.33 101.816C146.064 101.816 148.279 103.18 148.279 104.863C148.279 106.546 146.065 107.91 143.33 107.91Z" fill="#F9ACC0"/>
<path d="M115.984 102.706C116.078 104.257 116.273 105.8 116.568 107.327C117.483 107.718 118.468 107.916 119.463 107.911C122.205 107.911 124.414 106.54 124.414 104.864C124.414 103.188 122.205 101.817 119.463 101.817C118.243 101.786 117.039 102.093 115.984 102.706V102.706Z" fill="#F9ACC0"/>
<path d="M148.764 110.906C148.778 110.841 148.786 110.774 148.789 110.706C149.904 111.04 151.055 111.236 152.217 111.29C152.192 111.112 152.141 110.935 152.09 110.706C151.075 107.656 154.375 101.816 154.375 101.816C154.375 101.816 150.821 102.578 149.297 107.656C148.969 108.71 148.79 109.804 148.764 110.906V110.906Z" fill="#F9ACC0"/>
<path d="M148.84 108.52C148.808 108.509 148.779 108.491 148.754 108.469C148.729 108.446 148.709 108.418 148.694 108.387C148.68 108.357 148.672 108.323 148.671 108.289C148.67 108.256 148.676 108.222 148.688 108.19C149.269 106.713 150.046 105.321 150.998 104.051C151.994 102.547 153.335 101.302 154.909 100.42C154.967 100.395 155.032 100.392 155.092 100.41C155.153 100.428 155.205 100.467 155.239 100.52C155.264 100.578 155.268 100.643 155.249 100.704C155.231 100.764 155.192 100.816 155.139 100.85C153.648 101.705 152.377 102.897 151.43 104.33C150.522 105.565 149.764 106.903 149.172 108.316C149.16 108.377 149.128 108.431 149.083 108.473C149.037 108.514 148.979 108.539 148.918 108.545C148.904 108.547 148.89 108.546 148.876 108.542C148.862 108.538 148.85 108.53 148.84 108.52Z" fill="#1F1F39"/>
<path d="M85.592 174.18C85.592 174.18 82.52 185.885 75.41 195.28C70.484 201.805 61.775 205.512 56.875 207.162L78.787 204.928L85.592 174.18Z" fill="#224BF4"/>
<path d="M78.9399 205.157C78.8765 205.142 78.8198 205.106 78.7785 205.056C78.7372 205.005 78.7134 204.942 78.7109 204.877C78.7109 204.801 79.7519 196.65 81.5039 188.856C83.2559 181.062 87.3179 167.147 87.3439 166.995C87.365 166.934 87.4072 166.881 87.463 166.848C87.5188 166.814 87.5847 166.802 87.6489 166.812C87.7086 166.834 87.7589 166.876 87.7913 166.93C87.8238 166.985 87.8363 167.049 87.8269 167.112C87.7749 167.249 83.7379 181.163 81.9859 188.932C80.2339 196.701 79.2189 204.827 79.1929 204.903C79.1957 204.935 79.1918 204.967 79.1816 204.998C79.1714 205.028 79.1551 205.056 79.1336 205.08C79.1121 205.104 79.086 205.123 79.0568 205.136C79.0276 205.149 78.996 205.157 78.9639 205.157H78.9399Z" fill="#1F1F39"/>
</svg>
