<svg width="260" height="260" viewBox="0 0 260 260" fill="none" xmlns="http://www.w3.org/2000/svg">
<path d="M200 0C215.913 0 231.174 6.32141 242.426 17.5736C253.679 28.8258 260 44.087 260 60V200C260 215.913 253.679 231.174 242.426 242.426C231.174 253.679 215.913 260 200 260H60C44.087 260 28.8258 253.679 17.5736 242.426C6.32141 231.174 0 215.913 0 200L0 60C0 44.087 6.32141 28.8258 17.5736 17.5736C28.8258 6.32141 44.087 0 60 0L200 0Z" fill="white"/>
<path d="M184.281 102.701H181.31C181.241 102.704 181.173 102.693 181.109 102.669C181.045 102.644 180.986 102.608 180.936 102.56C180.887 102.513 180.847 102.456 180.82 102.393C180.793 102.33 180.78 102.262 180.78 102.193C180.78 102.124 180.793 102.056 180.82 101.993C180.847 101.93 180.887 101.873 180.936 101.826C180.986 101.778 181.045 101.742 181.109 101.717C181.173 101.693 181.241 101.682 181.31 101.686H184.331C184.402 101.684 184.472 101.699 184.536 101.73C184.6 101.76 184.657 101.804 184.701 101.86C184.737 101.906 184.761 101.961 184.772 102.019C184.783 102.077 184.78 102.137 184.763 102.194C184.769 102.257 184.762 102.32 184.741 102.381C184.721 102.441 184.688 102.496 184.645 102.543C184.599 102.593 184.542 102.632 184.48 102.66C184.417 102.687 184.349 102.701 184.281 102.701ZM178.289 102.701H175.268C175.199 102.704 175.131 102.693 175.067 102.669C175.003 102.644 174.944 102.608 174.894 102.56C174.845 102.513 174.805 102.456 174.778 102.393C174.751 102.33 174.738 102.262 174.738 102.193C174.738 102.124 174.751 102.056 174.778 101.993C174.805 101.93 174.845 101.873 174.894 101.826C174.944 101.778 175.003 101.742 175.067 101.717C175.131 101.693 175.199 101.682 175.268 101.686H178.292C178.361 101.682 178.429 101.693 178.493 101.717C178.557 101.742 178.616 101.778 178.666 101.826C178.715 101.873 178.755 101.93 178.782 101.993C178.809 102.056 178.823 102.124 178.823 102.193C178.823 102.262 178.809 102.33 178.782 102.393C178.755 102.456 178.715 102.513 178.666 102.56C178.616 102.608 178.557 102.644 178.493 102.669C178.429 102.693 178.361 102.704 178.292 102.701H178.289ZM172.22 102.701H169.199C169.068 102.695 168.945 102.639 168.854 102.544C168.764 102.45 168.714 102.324 168.714 102.193C168.714 102.062 168.764 101.936 168.854 101.842C168.945 101.747 169.068 101.691 169.199 101.686H172.22C172.351 101.691 172.474 101.747 172.565 101.842C172.655 101.936 172.706 102.062 172.706 102.193C172.706 102.324 172.655 102.45 172.565 102.544C172.474 102.639 172.351 102.695 172.22 102.701ZM166.152 102.701H163.13C162.999 102.695 162.876 102.639 162.785 102.544C162.695 102.45 162.645 102.324 162.645 102.193C162.645 102.062 162.695 101.936 162.785 101.842C162.876 101.747 162.999 101.691 163.13 101.686H166.152C166.283 101.691 166.406 101.747 166.497 101.842C166.587 101.936 166.638 102.062 166.638 102.193C166.638 102.324 166.587 102.45 166.497 102.544C166.406 102.639 166.283 102.695 166.152 102.701ZM160.083 102.701H157.063C156.994 102.704 156.926 102.693 156.862 102.669C156.798 102.644 156.739 102.608 156.689 102.56C156.64 102.513 156.6 102.456 156.573 102.393C156.546 102.33 156.533 102.262 156.533 102.193C156.533 102.124 156.546 102.056 156.573 101.993C156.6 101.93 156.64 101.873 156.689 101.826C156.739 101.778 156.798 101.742 156.862 101.717C156.926 101.693 156.994 101.682 157.063 101.686H160.084C160.153 101.682 160.221 101.693 160.285 101.717C160.349 101.742 160.408 101.778 160.458 101.826C160.507 101.873 160.547 101.93 160.574 101.993C160.601 102.056 160.615 102.124 160.615 102.193C160.615 102.262 160.601 102.33 160.574 102.393C160.547 102.456 160.507 102.513 160.458 102.56C160.408 102.608 160.349 102.644 160.285 102.669C160.221 102.693 160.153 102.704 160.084 102.701H160.083ZM154.04 102.701H151.019C150.888 102.695 150.765 102.639 150.674 102.544C150.584 102.45 150.534 102.324 150.534 102.193C150.534 102.062 150.584 101.936 150.674 101.842C150.765 101.747 150.888 101.691 151.019 101.686H154.041C154.172 101.691 154.295 101.747 154.386 101.842C154.476 101.936 154.527 102.062 154.527 102.193C154.527 102.324 154.476 102.45 154.386 102.544C154.295 102.639 154.172 102.695 154.041 102.701H154.04ZM147.971 102.701H144.951C144.82 102.695 144.697 102.639 144.606 102.544C144.516 102.45 144.466 102.324 144.466 102.193C144.466 102.062 144.516 101.936 144.606 101.842C144.697 101.747 144.82 101.691 144.951 101.686H147.972C148.103 101.691 148.226 101.747 148.317 101.842C148.407 101.936 148.458 102.062 148.458 102.193C148.458 102.324 148.407 102.45 148.317 102.544C148.226 102.639 148.103 102.695 147.972 102.701H147.971ZM141.902 102.701H138.883C138.814 102.704 138.746 102.693 138.682 102.669C138.618 102.644 138.559 102.608 138.509 102.56C138.46 102.513 138.42 102.456 138.393 102.393C138.366 102.33 138.353 102.262 138.353 102.193C138.353 102.124 138.366 102.056 138.393 101.993C138.42 101.93 138.46 101.873 138.509 101.826C138.559 101.778 138.618 101.742 138.682 101.717C138.746 101.693 138.814 101.682 138.883 101.686H141.904C141.973 101.682 142.041 101.693 142.105 101.717C142.169 101.742 142.228 101.778 142.278 101.826C142.327 101.873 142.367 101.93 142.394 101.993C142.421 102.056 142.435 102.124 142.435 102.193C142.435 102.262 142.421 102.33 142.394 102.393C142.367 102.456 142.327 102.513 142.278 102.56C142.228 102.608 142.169 102.644 142.105 102.669C142.041 102.693 141.973 102.704 141.904 102.701H141.902ZM135.834 102.701H132.815C132.746 102.704 132.678 102.693 132.614 102.669C132.55 102.644 132.491 102.608 132.441 102.56C132.392 102.513 132.352 102.456 132.325 102.393C132.298 102.33 132.285 102.262 132.285 102.193C132.285 102.124 132.298 102.056 132.325 101.993C132.352 101.93 132.392 101.873 132.441 101.826C132.491 101.778 132.55 101.742 132.614 101.717C132.678 101.693 132.746 101.682 132.815 101.686H135.836C135.967 101.691 136.09 101.747 136.181 101.842C136.271 101.936 136.322 102.062 136.322 102.193C136.322 102.324 136.271 102.45 136.181 102.544C136.09 102.639 135.967 102.695 135.836 102.701H135.834ZM129.79 102.701H126.771C126.702 102.704 126.634 102.693 126.57 102.669C126.506 102.644 126.447 102.608 126.397 102.56C126.348 102.513 126.308 102.456 126.281 102.393C126.254 102.33 126.241 102.262 126.241 102.193C126.241 102.124 126.254 102.056 126.281 101.993C126.308 101.93 126.348 101.873 126.397 101.826C126.447 101.778 126.506 101.742 126.57 101.717C126.634 101.693 126.702 101.682 126.771 101.686H129.792C129.861 101.682 129.929 101.693 129.993 101.717C130.057 101.742 130.116 101.778 130.166 101.826C130.215 101.873 130.255 101.93 130.282 101.993C130.309 102.056 130.323 102.124 130.323 102.193C130.323 102.262 130.309 102.33 130.282 102.393C130.255 102.456 130.215 102.513 130.166 102.56C130.116 102.608 130.057 102.644 129.993 102.669C129.929 102.693 129.861 102.704 129.792 102.701H129.79ZM123.722 102.701H120.702C120.571 102.695 120.448 102.639 120.357 102.544C120.267 102.45 120.217 102.324 120.217 102.193C120.217 102.062 120.267 101.936 120.357 101.842C120.448 101.747 120.571 101.691 120.702 101.686H123.724C123.855 101.691 123.978 101.747 124.069 101.842C124.159 101.936 124.21 102.062 124.21 102.193C124.21 102.324 124.159 102.45 124.069 102.544C123.978 102.639 123.855 102.695 123.724 102.701H123.722ZM117.653 102.701H114.635C114.504 102.695 114.381 102.639 114.29 102.544C114.2 102.45 114.15 102.324 114.15 102.193C114.15 102.062 114.2 101.936 114.29 101.842C114.381 101.747 114.504 101.691 114.635 101.686H117.656C117.787 101.691 117.91 101.747 118.001 101.842C118.091 101.936 118.142 102.062 118.142 102.193C118.142 102.324 118.091 102.45 118.001 102.544C117.91 102.639 117.787 102.695 117.656 102.701H117.653ZM111.584 102.701H108.566C108.497 102.704 108.429 102.693 108.365 102.669C108.301 102.644 108.242 102.608 108.192 102.56C108.143 102.513 108.103 102.456 108.076 102.393C108.049 102.33 108.036 102.262 108.036 102.193C108.036 102.124 108.049 102.056 108.076 101.993C108.103 101.93 108.143 101.873 108.192 101.826C108.242 101.778 108.301 101.742 108.365 101.717C108.429 101.693 108.497 101.682 108.566 101.686H111.592C111.661 101.682 111.729 101.693 111.793 101.717C111.857 101.742 111.916 101.778 111.966 101.826C112.015 101.873 112.055 101.93 112.082 101.993C112.109 102.056 112.123 102.124 112.123 102.193C112.123 102.262 112.109 102.33 112.082 102.393C112.055 102.456 112.015 102.513 111.966 102.56C111.916 102.608 111.857 102.644 111.793 102.669C111.729 102.693 111.661 102.704 111.592 102.701H111.584ZM105.541 102.701H102.523C102.392 102.695 102.269 102.639 102.178 102.544C102.088 102.45 102.038 102.324 102.038 102.193C102.038 102.062 102.088 101.936 102.178 101.842C102.269 101.747 102.392 101.691 102.523 101.686H105.544C105.677 101.69 105.804 101.744 105.899 101.839C105.993 101.933 106.048 102.06 106.052 102.194C106.052 102.328 105.998 102.457 105.903 102.552C105.808 102.647 105.679 102.7 105.545 102.701H105.541ZM99.472 102.701H96.455C96.3243 102.695 96.2009 102.639 96.1105 102.544C96.02 102.45 95.9696 102.324 95.9696 102.193C95.9696 102.062 96.02 101.936 96.1105 101.842C96.2009 101.747 96.3243 101.691 96.455 101.686H99.476C99.5446 101.682 99.613 101.693 99.6772 101.717C99.7415 101.742 99.8001 101.778 99.8497 101.826C99.8993 101.873 99.9388 101.93 99.9657 101.993C99.9927 102.056 100.007 102.124 100.007 102.193C100.007 102.262 99.9927 102.33 99.9657 102.393C99.9388 102.456 99.8993 102.513 99.8497 102.56C99.8001 102.608 99.7415 102.644 99.6772 102.669C99.613 102.693 99.5446 102.704 99.476 102.701H99.472ZM93.404 102.701H90.387C90.3185 102.704 90.25 102.693 90.1858 102.669C90.1216 102.644 90.0629 102.608 90.0134 102.56C89.9638 102.513 89.9243 102.456 89.8974 102.393C89.8704 102.33 89.8565 102.262 89.8565 102.193C89.8565 102.124 89.8704 102.056 89.8974 101.993C89.9243 101.93 89.9638 101.873 90.0134 101.826C90.0629 101.778 90.1216 101.742 90.1858 101.717C90.25 101.693 90.3185 101.682 90.387 101.686H93.408C93.5387 101.691 93.6622 101.747 93.7526 101.842C93.843 101.936 93.8935 102.062 93.8935 102.193C93.8935 102.324 93.843 102.45 93.7526 102.544C93.6622 102.639 93.5387 102.695 93.408 102.701H93.404ZM87.204 102.701H85.131C85.004 102.688 84.869 102.682 84.738 102.676C84.607 102.67 84.47 102.663 84.344 102.651H84.318C84.1835 102.637 84.0599 102.57 83.9742 102.465C83.8886 102.361 83.8479 102.226 83.861 102.092C83.875 101.977 83.9267 101.87 84.0082 101.787C84.0897 101.705 84.1963 101.652 84.311 101.638H84.303H84.268H84.336H84.311C84.587 101.661 84.911 101.686 85.211 101.686H87.217C87.3477 101.691 87.4712 101.747 87.5616 101.842C87.652 101.936 87.7025 102.062 87.7025 102.193C87.7025 102.324 87.652 102.45 87.5616 102.544C87.4712 102.639 87.3477 102.695 87.217 102.701H87.204ZM187.167 102.27C187.059 102.272 186.953 102.239 186.865 102.174C186.778 102.11 186.715 102.019 186.685 101.915C186.66 101.851 186.65 101.784 186.653 101.716C186.657 101.648 186.675 101.582 186.706 101.522C186.737 101.462 186.781 101.409 186.834 101.368C186.888 101.326 186.949 101.296 187.015 101.28C187.897 101.025 188.735 100.64 189.503 100.138C189.588 100.089 189.685 100.062 189.783 100.061C189.825 100.056 189.867 100.061 189.906 100.076C189.946 100.09 189.981 100.114 190.009 100.146C190.033 100.192 190.045 100.243 190.045 100.296C190.045 100.348 190.033 100.399 190.009 100.446C190.079 100.557 190.102 100.692 190.073 100.82C190.045 100.948 189.967 101.06 189.856 101.132C189.779 101.184 189.693 101.232 189.611 101.287C189.529 101.342 189.448 101.386 189.374 101.437H189.274C188.652 101.774 187.996 102.046 187.318 102.249C187.273 102.265 187.224 102.27 187.176 102.265L187.167 102.27ZM80.535 101.274C80.4749 101.278 80.4147 101.269 80.358 101.249C79.9382 101.093 79.5307 100.906 79.139 100.69H79.039L79.014 100.665L78.988 100.64C78.922 100.576 78.8497 100.519 78.772 100.47L78.76 100.462C78.7044 100.42 78.6577 100.368 78.6225 100.308C78.5873 100.248 78.5644 100.181 78.555 100.113C78.5469 100.049 78.5516 99.9836 78.5687 99.9215C78.5859 99.8593 78.6152 99.8012 78.655 99.7505C78.7036 99.6891 78.7652 99.6393 78.8355 99.6047C78.9057 99.5701 78.9828 99.5516 79.061 99.5505H79.083C79.102 99.5505 79.121 99.5505 79.125 99.5395C79.129 99.5285 79.108 99.4875 78.891 99.3255C79.4689 99.7132 80.088 100.035 80.737 100.287C80.8605 100.339 80.9588 100.437 81.0109 100.56C81.0631 100.684 81.0649 100.823 81.016 100.948C80.9746 101.042 80.9075 101.122 80.8224 101.18C80.7373 101.237 80.6377 101.27 80.535 101.274ZM78.858 99.3005C78.688 99.1865 78.518 99.0645 78.351 98.9385C78.6 99.1115 78.751 99.2195 78.859 99.2995L78.858 99.3005ZM191.974 99.1665C191.853 99.163 191.736 99.1182 191.644 99.0395C191.594 99.0005 191.553 98.9516 191.522 98.8959C191.492 98.8401 191.473 98.7787 191.468 98.7155C191.462 98.6458 191.47 98.5756 191.491 98.509C191.513 98.4425 191.548 98.3811 191.594 98.3285C192.204 97.6403 192.717 96.8714 193.118 96.0435C193.16 95.959 193.226 95.8879 193.306 95.8384C193.387 95.789 193.479 95.763 193.574 95.7635C193.613 95.7646 193.651 95.769 193.689 95.7765C193.727 95.784 193.765 95.7884 193.803 95.7895C193.863 95.8192 193.917 95.8605 193.961 95.9111C194.005 95.9617 194.039 96.0205 194.06 96.0842C194.082 96.1479 194.09 96.2152 194.085 96.2822C194.08 96.3492 194.062 96.4146 194.032 96.4745C193.581 97.3794 193.018 98.224 192.356 98.9885C192.311 99.0465 192.253 99.093 192.187 99.1239C192.12 99.1549 192.047 99.1695 191.974 99.1665ZM75.863 96.4745C75.7848 96.4733 75.7078 96.4547 75.6376 96.4201C75.5674 96.3855 75.5057 96.3358 75.457 96.2745C75.4537 96.2745 75.4503 96.2738 75.4472 96.2725C75.4441 96.2712 75.4413 96.2693 75.439 96.2668C75.4367 96.2644 75.4348 96.2615 75.4336 96.2584C75.4324 96.2552 75.4319 96.2519 75.432 96.2485L75.407 96.2235L75.38 96.2005V96.1245C75.3026 95.9685 75.2358 95.8075 75.18 95.6425C75.139 95.5149 75.147 95.3766 75.2025 95.2545C75.258 95.1325 75.3569 95.0355 75.48 94.9825C75.537 94.962 75.5976 94.9535 75.658 94.9575H75.729C75.7457 94.9582 75.7623 94.9559 75.778 94.9505C75.4487 94.4109 75.1705 93.8418 74.947 93.2505C75.707 94.5235 75.837 94.8265 75.806 94.9185C75.8039 94.9251 75.8002 94.9312 75.7954 94.9362C75.7905 94.9413 75.7846 94.9451 75.778 94.9475C75.928 95.1915 76.093 95.4325 76.267 95.6625C76.3084 95.7149 76.3386 95.7752 76.3558 95.8397C76.373 95.9042 76.3768 95.9715 76.367 96.0375C76.346 96.171 76.2744 96.2914 76.167 96.3735C76.0801 96.4407 75.9729 96.4763 75.863 96.4745ZM194.438 94.0375H194.362C194.232 94.0106 194.118 93.9351 194.043 93.8264C193.967 93.7178 193.936 93.5843 193.956 93.4535C194.036 92.9154 194.078 92.3725 194.083 91.8285V90.5845C194.083 90.4498 194.137 90.3206 194.232 90.2253C194.327 90.13 194.456 90.0765 194.591 90.0765C194.648 90.0754 194.705 90.0861 194.757 90.108C194.81 90.1298 194.858 90.1624 194.897 90.2035C195.044 90.4001 195.107 90.6466 195.073 90.8895V92.2355C195.069 92.6952 195.026 93.1538 194.946 93.6065C194.926 93.7269 194.864 93.8363 194.771 93.9152C194.678 93.9941 194.56 94.0375 194.438 94.0375ZM75.076 92.5905H75.025C74.8994 92.5885 74.7788 92.5412 74.6854 92.4572C74.5921 92.3731 74.5322 92.2582 74.517 92.1335C74.4957 92.0578 74.4872 91.979 74.492 91.9005V89.6705C74.492 89.5358 74.5456 89.4066 74.6408 89.3113C74.7361 89.216 74.8653 89.1625 75 89.1625C75.09 89.166 75.179 89.1828 75.264 89.2125C75.3111 89.2295 75.3602 89.2403 75.41 89.2445C75.479 89.2445 75.51 89.1975 75.51 89.0865V91.2705C75.5053 91.5331 75.514 91.7958 75.536 92.0575C75.5416 92.1229 75.5341 92.1887 75.5139 92.2511C75.4936 92.3135 75.4612 92.3712 75.4183 92.4209C75.3754 92.4705 75.3231 92.5111 75.2643 92.5403C75.2055 92.5694 75.1415 92.5865 75.076 92.5905ZM194.592 88.0705C194.457 88.0705 194.328 88.017 194.233 87.9217C194.138 87.8264 194.084 87.6972 194.084 87.5625V84.5415C194.081 84.473 194.092 84.4045 194.116 84.3403C194.14 84.2761 194.177 84.2174 194.224 84.1678C194.272 84.1182 194.329 84.0788 194.392 84.0518C194.455 84.0249 194.523 84.011 194.592 84.011C194.66 84.011 194.728 84.0249 194.791 84.0518C194.854 84.0788 194.911 84.1182 194.959 84.1678C195.006 84.2174 195.043 84.2761 195.067 84.3403C195.091 84.4045 195.102 84.473 195.099 84.5415V87.5625C195.099 87.6971 195.046 87.8261 194.951 87.9214C194.856 88.0166 194.727 88.0702 194.592 88.0705ZM75 87.1315C74.8653 87.1315 74.7361 87.078 74.6408 86.9827C74.5456 86.8874 74.492 86.7582 74.492 86.6235V83.6005C74.4978 83.4698 74.5538 83.3464 74.6484 83.2559C74.7429 83.1655 74.8687 83.115 74.9995 83.115C75.1304 83.115 75.2562 83.1655 75.3507 83.2559C75.4452 83.3464 75.5012 83.4698 75.507 83.6005V86.6215C75.5073 86.6883 75.4944 86.7545 75.469 86.8163C75.4437 86.8781 75.4064 86.9343 75.3593 86.9817C75.3122 87.029 75.2562 87.0666 75.1946 87.0924C75.1329 87.1181 75.0668 87.1314 75 87.1315ZM194.592 82.0005C194.457 82.0002 194.328 81.9465 194.233 81.8511C194.138 81.7556 194.084 81.6263 194.084 81.4915V78.4735C194.081 78.405 194.092 78.3365 194.116 78.2723C194.14 78.2081 194.177 78.1494 194.224 78.0998C194.272 78.0502 194.329 78.0108 194.392 77.9838C194.455 77.9569 194.523 77.943 194.592 77.943C194.66 77.943 194.728 77.9569 194.791 77.9838C194.854 78.0108 194.911 78.0502 194.959 78.0998C195.006 78.1494 195.043 78.2081 195.067 78.2723C195.091 78.3365 195.102 78.405 195.099 78.4735V81.4945C195.098 81.6286 195.045 81.757 194.95 81.8518C194.855 81.9465 194.726 82 194.592 82.0005ZM75 81.0635C74.8652 81.0632 74.736 81.0095 74.6408 80.9141C74.5455 80.8186 74.492 80.6893 74.492 80.5545V77.5335C74.489 77.465 74.4999 77.3965 74.524 77.3323C74.5481 77.2681 74.585 77.2094 74.6324 77.1598C74.6799 77.1102 74.7368 77.0708 74.7999 77.0438C74.863 77.0169 74.9309 77.003 74.9995 77.003C75.0681 77.003 75.136 77.0169 75.1991 77.0438C75.2622 77.0708 75.3192 77.1102 75.3666 77.1598C75.4141 77.2094 75.4509 77.2681 75.4751 77.3323C75.4992 77.3965 75.5101 77.465 75.507 77.5335V80.5545C75.507 80.6892 75.4537 80.8183 75.3587 80.9137C75.2636 81.0091 75.1347 81.063 75 81.0635ZM194.592 75.9345C194.457 75.9345 194.328 75.881 194.233 75.7857C194.138 75.6904 194.084 75.5612 194.084 75.4265V72.4005C194.081 72.332 194.092 72.2635 194.116 72.1993C194.14 72.1351 194.177 72.0764 194.224 72.0268C194.272 71.9772 194.329 71.9378 194.392 71.9108C194.455 71.8839 194.523 71.87 194.592 71.87C194.66 71.87 194.728 71.8839 194.791 71.9108C194.854 71.9378 194.911 71.9772 194.959 72.0268C195.006 72.0764 195.043 72.1351 195.067 72.1993C195.091 72.2635 195.102 72.332 195.099 72.4005V75.4225C195.1 75.4895 195.087 75.5559 195.062 75.6179C195.036 75.6799 194.999 75.7364 194.952 75.7839C194.905 75.8315 194.849 75.8693 194.787 75.8952C194.725 75.921 194.659 75.9344 194.592 75.9345ZM75 75.0195C74.8655 75.0195 74.7364 74.9661 74.6412 74.8711C74.5459 74.776 74.4923 74.6471 74.492 74.5125V71.4905C74.492 71.4238 74.5052 71.3577 74.5307 71.2961C74.5562 71.2345 74.5937 71.1785 74.6408 71.1313C74.688 71.0841 74.744 71.0467 74.8056 71.0212C74.8673 70.9956 74.9333 70.9825 75 70.9825C75.131 70.9803 75.2575 71.0296 75.3525 71.1197C75.4475 71.2098 75.5033 71.3336 75.508 71.4645V74.5105C75.5082 74.5773 75.4951 74.6435 75.4697 74.7052C75.4442 74.767 75.4068 74.8231 75.3596 74.8704C75.3124 74.9176 75.2564 74.9551 75.1947 74.9807C75.133 75.0063 75.0668 75.0195 75 75.0195ZM194.592 69.8655C194.525 69.8655 194.459 69.8524 194.398 69.8268C194.336 69.8013 194.28 69.7639 194.233 69.7167C194.186 69.6695 194.148 69.6135 194.123 69.5519C194.097 69.4903 194.084 69.4242 194.084 69.3575V66.3365C194.081 66.268 194.092 66.1995 194.116 66.1353C194.14 66.0711 194.177 66.0124 194.224 65.9628C194.272 65.9132 194.329 65.8738 194.392 65.8468C194.455 65.8199 194.523 65.806 194.592 65.806C194.66 65.806 194.728 65.8199 194.791 65.8468C194.854 65.8738 194.911 65.9132 194.959 65.9628C195.006 66.0124 195.043 66.0711 195.067 66.1353C195.091 66.1995 195.102 66.268 195.099 66.3365V69.3575C195.099 69.4921 195.046 69.6211 194.951 69.7164C194.856 69.8116 194.727 69.8652 194.592 69.8655ZM75 68.9515C74.8654 68.9512 74.7363 68.8976 74.6411 68.8024C74.5459 68.7072 74.4923 68.5781 74.492 68.4435V65.4225C74.4978 65.2918 74.5538 65.1684 74.6484 65.0779C74.7429 64.9875 74.8687 64.937 74.9995 64.937C75.1304 64.937 75.2562 64.9875 75.3507 65.0779C75.4452 65.1684 75.5012 65.2918 75.507 65.4225V68.4435C75.5068 68.578 75.4533 68.7069 75.3583 68.8021C75.2633 68.8973 75.1345 68.951 75 68.9515ZM194.592 63.8225C194.457 63.8225 194.328 63.769 194.233 63.6737C194.138 63.5784 194.084 63.4492 194.084 63.3145V60.2935C194.081 60.225 194.092 60.1565 194.116 60.0923C194.14 60.0281 194.177 59.9694 194.224 59.9198C194.272 59.8702 194.329 59.8308 194.392 59.8038C194.455 59.7769 194.523 59.763 194.592 59.763C194.66 59.763 194.728 59.7769 194.791 59.8038C194.854 59.8308 194.911 59.8702 194.959 59.9198C195.006 59.9694 195.043 60.0281 195.067 60.0923C195.091 60.1565 195.102 60.225 195.099 60.2935V63.3155C195.099 63.4499 195.045 63.5787 194.95 63.6737C194.855 63.7687 194.726 63.8222 194.592 63.8225ZM75 62.8835C74.9333 62.8835 74.8673 62.8704 74.8056 62.8448C74.744 62.8193 74.688 62.7819 74.6408 62.7347C74.5937 62.6875 74.5562 62.6315 74.5307 62.5699C74.5052 62.5083 74.492 62.4422 74.492 62.3755V59.3545C74.489 59.286 74.4999 59.2175 74.524 59.1533C74.5481 59.0891 74.585 59.0304 74.6324 58.9808C74.6799 58.9312 74.7368 58.8918 74.7999 58.8648C74.863 58.8379 74.9309 58.824 74.9995 58.824C75.0681 58.824 75.136 58.8379 75.1991 58.8648C75.2622 58.8918 75.3192 58.9312 75.3666 58.9808C75.4141 59.0304 75.4509 59.0891 75.4751 59.1533C75.4992 59.2175 75.5101 59.286 75.507 59.3545V62.3755C75.507 62.5101 75.4537 62.6391 75.3586 62.7344C75.2635 62.8296 75.1346 62.8832 75 62.8835ZM194.592 57.7545C194.457 57.7545 194.328 57.701 194.233 57.6057C194.138 57.5104 194.084 57.3812 194.084 57.2465V54.2255C194.081 54.157 194.092 54.0885 194.116 54.0243C194.14 53.9601 194.177 53.9014 194.224 53.8518C194.272 53.8022 194.329 53.7628 194.392 53.7358C194.455 53.7089 194.523 53.695 194.592 53.695C194.66 53.695 194.728 53.7089 194.791 53.7358C194.854 53.7628 194.911 53.8022 194.959 53.8518C195.006 53.9014 195.043 53.9601 195.067 54.0243C195.091 54.0885 195.102 54.157 195.099 54.2255V57.2465C195.099 57.3811 195.046 57.5101 194.951 57.6054C194.856 57.7006 194.727 57.7542 194.592 57.7545ZM75 56.8145C74.8653 56.8145 74.7361 56.761 74.6408 56.6657C74.5456 56.5704 74.492 56.4412 74.492 56.3065V53.2855C74.489 53.217 74.4999 53.1485 74.524 53.0843C74.5481 53.0201 74.585 52.9614 74.6324 52.9118C74.6799 52.8622 74.7368 52.8228 74.7999 52.7958C74.863 52.7689 74.9309 52.755 74.9995 52.755C75.0681 52.755 75.136 52.7689 75.1991 52.7958C75.2622 52.8228 75.3192 52.8622 75.3666 52.9118C75.4141 52.9614 75.4509 53.0201 75.4751 53.0843C75.4992 53.1485 75.5101 53.217 75.507 53.2855V56.3065C75.507 56.4411 75.4537 56.5701 75.3586 56.6654C75.2635 56.7606 75.1346 56.8142 75 56.8145ZM194.592 51.6865C194.457 51.6862 194.328 51.6326 194.233 51.5374C194.138 51.4422 194.084 51.3131 194.084 51.1785V48.1565C194.081 48.088 194.092 48.0195 194.116 47.9553C194.14 47.8911 194.177 47.8324 194.224 47.7828C194.272 47.7332 194.329 47.6938 194.392 47.6668C194.455 47.6399 194.523 47.626 194.592 47.626C194.66 47.626 194.728 47.6399 194.791 47.6668C194.854 47.6938 194.911 47.7332 194.959 47.7828C195.006 47.8324 195.043 47.8911 195.067 47.9553C195.091 48.0195 195.102 48.088 195.099 48.1565V51.1775C195.099 51.3121 195.046 51.4413 194.951 51.5367C194.856 51.6321 194.727 51.686 194.592 51.6865ZM75 50.7715C74.8655 50.7715 74.7364 50.7181 74.6412 50.6231C74.5459 50.528 74.4923 50.3991 74.492 50.2645V47.2435C74.492 47.1087 74.5455 46.9794 74.6408 46.8839C74.736 46.7885 74.8652 46.7348 75 46.7345C75.0675 46.7321 75.1347 46.7437 75.1975 46.7684C75.2602 46.7932 75.3172 46.8306 75.3649 46.8783C75.4126 46.9261 75.4499 46.9832 75.4745 47.046C75.4991 47.1088 75.5106 47.1761 75.508 47.2435V50.2645C75.5078 50.3991 75.4541 50.528 75.3589 50.6231C75.2637 50.7181 75.1346 50.7715 75 50.7715ZM194.592 45.6175C194.457 45.6175 194.328 45.564 194.233 45.4687C194.138 45.3734 194.084 45.2442 194.084 45.1095V42.0885C194.081 42.02 194.092 41.9515 194.116 41.8873C194.14 41.8231 194.177 41.7644 194.224 41.7148C194.272 41.6652 194.329 41.6258 194.392 41.5988C194.455 41.5719 194.523 41.558 194.592 41.558C194.66 41.558 194.728 41.5719 194.791 41.5988C194.854 41.6258 194.911 41.6652 194.959 41.7148C195.006 41.7644 195.043 41.8231 195.067 41.8873C195.091 41.9515 195.102 42.02 195.099 42.0885V45.1105C195.099 45.2449 195.045 45.3737 194.95 45.4687C194.855 45.5637 194.726 45.6172 194.592 45.6175ZM75 44.7005C74.8667 44.7005 74.7387 44.6481 74.6436 44.5546C74.5486 44.461 74.4941 44.3338 74.492 44.2005V41.1745C74.4978 41.0438 74.5538 40.9204 74.6484 40.8299C74.7429 40.7395 74.8687 40.689 74.9995 40.689C75.1304 40.689 75.2562 40.7395 75.3507 40.8299C75.4452 40.9204 75.5012 41.0438 75.507 41.1745V44.2005C75.5049 44.3337 75.4506 44.4607 75.3558 44.5542C75.261 44.6477 75.1332 44.7003 75 44.7005ZM194.592 39.5755C194.457 39.5752 194.328 39.5215 194.233 39.4261C194.138 39.3306 194.084 39.2013 194.084 39.0665V36.0455C194.081 35.977 194.092 35.9085 194.116 35.8443C194.14 35.7801 194.177 35.7214 194.224 35.6718C194.272 35.6222 194.329 35.5828 194.392 35.5558C194.455 35.5289 194.523 35.515 194.592 35.515C194.66 35.515 194.728 35.5289 194.791 35.5558C194.854 35.5828 194.911 35.6222 194.959 35.6718C195.006 35.7214 195.043 35.7801 195.067 35.8443C195.091 35.9085 195.102 35.977 195.099 36.0455V39.0665C195.099 39.2011 195.046 39.3303 194.951 39.4257C194.856 39.5211 194.727 39.575 194.592 39.5755ZM75.025 38.4065C74.8907 38.4065 74.7617 38.3533 74.6665 38.2584C74.5713 38.1636 74.5176 38.0349 74.517 37.9005V35.0805C74.5322 34.9558 74.5921 34.8409 74.6854 34.7568C74.7788 34.6728 74.8994 34.6255 75.025 34.6235C75.025 34.6235 75.052 34.6235 75.101 34.3945C75.2313 34.4077 75.3514 34.4705 75.4365 34.57C75.5216 34.6694 75.5651 34.7978 75.558 34.9285C75.5372 35.1565 75.5288 35.3855 75.533 35.6145V37.9005C75.5322 38.0348 75.4784 38.1633 75.3833 38.2581C75.2881 38.3529 75.1593 38.4062 75.025 38.4065ZM194.234 33.6835C194.122 33.6848 194.013 33.6477 193.926 33.5784C193.838 33.509 193.777 33.4116 193.752 33.3025C193.505 32.4184 193.138 31.5724 192.66 30.7885C192.599 30.6728 192.583 30.5384 192.616 30.4117C192.649 30.285 192.727 30.1751 192.837 30.1035C192.911 30.0517 193 30.0251 193.091 30.0275C193.252 30.0275 193.434 30.0825 193.675 30.4845V30.5345C194.005 31.1014 194.286 31.696 194.513 32.3115C194.538 32.3365 194.538 32.3365 194.538 32.3615V32.4905C194.597 32.6371 194.646 32.7875 194.685 32.9405L194.716 33.0485C194.734 33.1091 194.74 33.1728 194.733 33.2357C194.726 33.2986 194.706 33.3594 194.675 33.4145C194.642 33.474 194.597 33.5263 194.543 33.568C194.489 33.6098 194.427 33.6402 194.361 33.6575C194.322 33.6781 194.278 33.6871 194.234 33.6835ZM76.016 32.2875C75.9556 32.2915 75.895 32.283 75.838 32.2625C75.7124 32.2101 75.6108 32.1128 75.553 31.9895C75.5228 31.9296 75.5053 31.8641 75.5019 31.7971C75.4985 31.7301 75.5091 31.6632 75.533 31.6005L75.576 31.4835C75.6381 31.3075 75.7102 31.1352 75.792 30.9675V30.6875C76.0335 30.2681 76.2962 29.8612 76.579 29.4685C76.6279 29.4071 76.6897 29.3574 76.7601 29.3228C76.8304 29.2882 76.9076 29.2697 76.986 29.2685H77.041C77.141 29.2685 77.296 29.2155 77.697 28.8345C77.8025 28.917 77.8719 29.0372 77.8906 29.1698C77.9092 29.3024 77.8757 29.4371 77.797 29.5455C77.25 30.2828 76.8122 31.0952 76.497 31.9575C76.4587 32.0541 76.3925 32.137 76.3068 32.1958C76.2212 32.2546 76.1199 32.2865 76.016 32.2875ZM191.292 28.7845C191.227 28.789 191.162 28.7799 191.101 28.7579C191.039 28.7359 190.983 28.7013 190.936 28.6565C190.275 28.0223 189.522 27.4916 188.702 27.0825C188.642 27.0528 188.588 27.0115 188.544 26.9609C188.5 26.9103 188.466 26.8515 188.445 26.7878C188.423 26.7241 188.415 26.6568 188.42 26.5898C188.425 26.5228 188.443 26.4574 188.473 26.3975C188.518 26.3148 188.584 26.2454 188.664 26.1963C188.744 26.1471 188.836 26.12 188.93 26.1175C189.007 26.1175 189.089 26.1485 190.224 26.8795L190.301 26.9175L190.377 26.9545H190.504L190.529 26.9805L190.554 27.0055L190.579 27.0305L190.605 27.0555L190.63 27.0805C190.986 27.338 191.325 27.6179 191.645 27.9185C191.691 27.9597 191.729 28.0097 191.755 28.0655C191.782 28.1212 191.797 28.1818 191.8 28.2435C191.809 28.3843 191.763 28.523 191.67 28.6295C191.568 28.7269 191.433 28.7823 191.292 28.7845ZM79.012 28.2255C78.9336 28.2243 78.8564 28.2058 78.7861 28.1712C78.7157 28.1366 78.6539 28.0869 78.605 28.0255C78.562 27.974 78.5299 27.9143 78.5104 27.8501C78.491 27.7859 78.4847 27.7184 78.4918 27.6517C78.499 27.5849 78.5196 27.5204 78.5523 27.4617C78.5849 27.4031 78.6291 27.3517 78.682 27.3105C79.4729 26.678 80.3523 26.1648 81.292 25.7875C81.35 25.7655 81.4122 25.7566 81.474 25.7615C81.5786 25.7599 81.6811 25.7908 81.7675 25.8499C81.8538 25.909 81.9197 25.9934 81.956 26.0915C82.0045 26.2164 82.0024 26.3552 81.95 26.4785C81.9249 26.5398 81.8878 26.5955 81.8409 26.6424C81.7941 26.6893 81.7384 26.7264 81.677 26.7515C80.8305 27.0976 80.0359 27.5594 79.316 28.1235C79.2307 28.1938 79.1225 28.2301 79.012 28.2255ZM186.186 26.1935H186.086C185.476 26.0703 184.855 26.0106 184.232 26.0155H181.211C181.08 26.0097 180.957 25.9537 180.866 25.8592C180.776 25.7646 180.726 25.6388 180.726 25.508C180.726 25.3772 180.776 25.2514 180.866 25.1568C180.957 25.0623 181.08 25.0063 181.211 25.0005H184.232C184.258 25.0005 184.258 25.0005 184.537 25.0255H184.714C185.244 25.0442 185.771 25.1027 186.292 25.2005C186.357 25.2118 186.42 25.236 186.475 25.2715C186.531 25.3071 186.579 25.3534 186.617 25.4077C186.655 25.462 186.681 25.5233 186.695 25.588C186.709 25.6527 186.71 25.7195 186.698 25.7845C186.669 25.8991 186.603 26.0011 186.511 26.0749C186.418 26.1488 186.304 26.1904 186.186 26.1935ZM84.927 26.0415H84.877C84.7516 26.0391 84.6312 25.9916 84.5379 25.9077C84.4446 25.8237 84.3846 25.709 84.369 25.5845C84.3556 25.4498 84.3962 25.3153 84.4819 25.2105C84.5676 25.1057 84.6914 25.0391 84.826 25.0255C84.8643 25.0243 84.9025 25.0199 84.94 25.0125C84.9776 25.0054 85.0158 25.0014 85.054 25.0005H87.237C87.4231 25.0205 87.6015 25.0854 87.757 25.1895C87.9591 25.299 88.1671 25.3971 88.38 25.4835C88.38 25.5502 88.3669 25.6163 88.3414 25.6779C88.3158 25.7395 88.2784 25.7955 88.2312 25.8427C88.136 25.938 88.0068 25.9915 87.872 25.9915H85.972C85.607 25.9905 85.242 26.0165 84.927 26.0415ZM178.187 26.0155H175.166C175.097 26.0185 175.029 26.0077 174.965 25.9835C174.901 25.9594 174.842 25.9225 174.792 25.8751C174.743 25.8277 174.703 25.7707 174.676 25.7076C174.649 25.6445 174.635 25.5766 174.635 25.508C174.635 25.4394 174.649 25.3715 174.676 25.3084C174.703 25.2453 174.743 25.1883 174.792 25.1409C174.842 25.0935 174.901 25.0566 174.965 25.0325C175.029 25.0083 175.097 24.9975 175.166 25.0005H178.192C178.323 25.0063 178.446 25.0623 178.537 25.1568C178.627 25.2514 178.677 25.3772 178.677 25.508C178.677 25.6388 178.627 25.7646 178.537 25.8592C178.446 25.9537 178.323 26.0097 178.192 26.0155H178.187ZM172.118 26.0155H169.097C168.966 26.0097 168.843 25.9537 168.752 25.8592C168.662 25.7646 168.612 25.6388 168.612 25.508C168.612 25.3772 168.662 25.2514 168.752 25.1568C168.843 25.0623 168.966 25.0063 169.097 25.0005H172.118C172.187 24.9975 172.255 25.0083 172.319 25.0325C172.383 25.0566 172.442 25.0935 172.492 25.1409C172.541 25.1883 172.581 25.2453 172.608 25.3084C172.635 25.3715 172.649 25.4394 172.649 25.508C172.649 25.5766 172.635 25.6445 172.608 25.7076C172.581 25.7707 172.541 25.8277 172.492 25.8751C172.442 25.9225 172.383 25.9594 172.319 25.9835C172.255 26.0077 172.187 26.0185 172.118 26.0155ZM166.05 26.0155H163.029C162.96 26.0185 162.892 26.0077 162.828 25.9835C162.764 25.9594 162.705 25.9225 162.655 25.8751C162.606 25.8277 162.566 25.7707 162.539 25.7076C162.512 25.6445 162.499 25.5766 162.499 25.508C162.499 25.4394 162.512 25.3715 162.539 25.3084C162.566 25.2453 162.606 25.1883 162.655 25.1409C162.705 25.0935 162.764 25.0566 162.828 25.0325C162.892 25.0083 162.96 24.9975 163.029 25.0005H166.05C166.181 25.0063 166.304 25.0623 166.395 25.1568C166.485 25.2514 166.535 25.3772 166.535 25.508C166.535 25.6388 166.485 25.7646 166.395 25.8592C166.304 25.9537 166.181 26.0097 166.05 26.0155ZM159.981 26.0155H156.961C156.892 26.0185 156.824 26.0077 156.76 25.9835C156.696 25.9594 156.637 25.9225 156.587 25.8751C156.538 25.8277 156.498 25.7707 156.471 25.7076C156.444 25.6445 156.431 25.5766 156.431 25.508C156.431 25.4394 156.444 25.3715 156.471 25.3084C156.498 25.2453 156.538 25.1883 156.587 25.1409C156.637 25.0935 156.696 25.0566 156.76 25.0325C156.824 25.0083 156.892 24.9975 156.961 25.0005H159.982C160.051 24.9975 160.119 25.0083 160.183 25.0325C160.247 25.0566 160.306 25.0935 160.356 25.1409C160.405 25.1883 160.445 25.2453 160.472 25.3084C160.499 25.3715 160.513 25.4394 160.513 25.508C160.513 25.5766 160.499 25.6445 160.472 25.7076C160.445 25.7707 160.405 25.8277 160.356 25.8751C160.306 25.9225 160.247 25.9594 160.183 25.9835C160.119 26.0077 160.051 26.0185 159.982 26.0155H159.981ZM153.938 26.0155H150.918C150.849 26.0185 150.781 26.0077 150.717 25.9835C150.653 25.9594 150.594 25.9225 150.544 25.8751C150.495 25.8277 150.455 25.7707 150.428 25.7076C150.401 25.6445 150.388 25.5766 150.388 25.508C150.388 25.4394 150.401 25.3715 150.428 25.3084C150.455 25.2453 150.495 25.1883 150.544 25.1409C150.594 25.0935 150.653 25.0566 150.717 25.0325C150.781 25.0083 150.849 24.9975 150.918 25.0005H153.939C154.072 25.0045 154.199 25.0593 154.294 25.1537C154.388 25.2482 154.443 25.375 154.447 25.5085C154.447 25.6429 154.393 25.7717 154.298 25.8667C154.203 25.9617 154.074 26.0152 153.94 26.0155H153.938ZM147.869 26.0155H144.824C144.755 26.0185 144.687 26.0077 144.623 25.9835C144.559 25.9594 144.5 25.9225 144.45 25.8751C144.401 25.8277 144.361 25.7707 144.334 25.7076C144.307 25.6445 144.294 25.5766 144.294 25.508C144.294 25.4394 144.307 25.3715 144.334 25.3084C144.361 25.2453 144.401 25.1883 144.45 25.1409C144.5 25.0935 144.559 25.0566 144.623 25.0325C144.687 25.0083 144.755 24.9975 144.824 25.0005H147.871C148.002 25.0063 148.125 25.0623 148.216 25.1568C148.306 25.2514 148.356 25.3772 148.356 25.508C148.356 25.6388 148.306 25.7646 148.216 25.8592C148.125 25.9537 148.002 26.0097 147.871 26.0155H147.869ZM141.8 26.0155H138.781C138.712 26.0185 138.644 26.0077 138.58 25.9835C138.516 25.9594 138.457 25.9225 138.407 25.8751C138.358 25.8277 138.318 25.7707 138.291 25.7076C138.264 25.6445 138.251 25.5766 138.251 25.508C138.251 25.4394 138.264 25.3715 138.291 25.3084C138.318 25.2453 138.358 25.1883 138.407 25.1409C138.457 25.0935 138.516 25.0566 138.58 25.0325C138.644 25.0083 138.712 24.9975 138.781 25.0005H141.802C141.871 24.9975 141.939 25.0083 142.003 25.0325C142.067 25.0566 142.126 25.0935 142.176 25.1409C142.225 25.1883 142.265 25.2453 142.292 25.3084C142.319 25.3715 142.333 25.4394 142.333 25.508C142.333 25.5766 142.319 25.6445 142.292 25.7076C142.265 25.7707 142.225 25.8277 142.176 25.8751C142.126 25.9225 142.067 25.9594 142.003 25.9835C141.939 26.0077 141.871 26.0185 141.802 26.0155H141.8ZM135.732 26.0155H132.713C132.644 26.0185 132.576 26.0077 132.512 25.9835C132.448 25.9594 132.389 25.9225 132.339 25.8751C132.29 25.8277 132.25 25.7707 132.223 25.7076C132.196 25.6445 132.183 25.5766 132.183 25.508C132.183 25.4394 132.196 25.3715 132.223 25.3084C132.25 25.2453 132.29 25.1883 132.339 25.1409C132.389 25.0935 132.448 25.0566 132.512 25.0325C132.576 25.0083 132.644 24.9975 132.713 25.0005H135.734C135.865 25.0063 135.988 25.0623 136.079 25.1568C136.169 25.2514 136.22 25.3772 136.22 25.508C136.22 25.6388 136.169 25.7646 136.079 25.8592C135.988 25.9537 135.865 26.0097 135.734 26.0155H135.732ZM129.688 26.0155H126.67C126.601 26.0185 126.533 26.0077 126.469 25.9835C126.405 25.9594 126.346 25.9225 126.296 25.8751C126.247 25.8277 126.207 25.7707 126.18 25.7076C126.153 25.6445 126.14 25.5766 126.14 25.508C126.14 25.4394 126.153 25.3715 126.18 25.3084C126.207 25.2453 126.247 25.1883 126.296 25.1409C126.346 25.0935 126.405 25.0566 126.469 25.0325C126.533 25.0083 126.601 24.9975 126.67 25.0005H129.692C129.825 25.005 129.952 25.06 130.046 25.1543C130.141 25.2486 130.196 25.3752 130.2 25.5085C130.2 25.643 130.146 25.7718 130.051 25.8668C129.955 25.9618 129.827 26.0152 129.692 26.0155H129.688ZM123.62 26.0155H120.602C120.533 26.0185 120.465 26.0077 120.401 25.9835C120.337 25.9594 120.278 25.9225 120.228 25.8751C120.179 25.8277 120.139 25.7707 120.112 25.7076C120.085 25.6445 120.072 25.5766 120.072 25.508C120.072 25.4394 120.085 25.3715 120.112 25.3084C120.139 25.2453 120.179 25.1883 120.228 25.1409C120.278 25.0935 120.337 25.0566 120.401 25.0325C120.465 25.0083 120.533 24.9975 120.602 25.0005H123.623C123.754 25.0063 123.877 25.0623 123.968 25.1568C124.058 25.2514 124.109 25.3772 124.109 25.508C124.109 25.6388 124.058 25.7646 123.968 25.8592C123.877 25.9537 123.754 26.0097 123.623 26.0155H123.62ZM117.551 26.0155H114.533C114.402 26.0097 114.279 25.9537 114.188 25.8592C114.098 25.7646 114.048 25.6388 114.048 25.508C114.048 25.3772 114.098 25.2514 114.188 25.1568C114.279 25.0623 114.402 25.0063 114.533 25.0005H117.554C117.685 25.0063 117.808 25.0623 117.899 25.1568C117.989 25.2514 118.04 25.3772 118.04 25.508C118.04 25.6388 117.989 25.7646 117.899 25.8592C117.808 25.9537 117.685 26.0097 117.554 26.0155H117.551ZM111.483 26.0155H108.464C108.395 26.0185 108.327 26.0077 108.263 25.9835C108.199 25.9594 108.14 25.9225 108.09 25.8751C108.041 25.8277 108.001 25.7707 107.974 25.7076C107.947 25.6445 107.934 25.5766 107.934 25.508C107.934 25.4394 107.947 25.3715 107.974 25.3084C108.001 25.2453 108.041 25.1883 108.09 25.1409C108.14 25.0935 108.199 25.0566 108.263 25.0325C108.327 25.0083 108.395 24.9975 108.464 25.0005H111.486C111.617 25.0063 111.74 25.0623 111.831 25.1568C111.921 25.2514 111.972 25.3772 111.972 25.508C111.972 25.6388 111.921 25.7646 111.831 25.8592C111.74 25.9537 111.617 26.0097 111.486 26.0155H111.483ZM105.44 26.0155H102.422C102.353 26.0185 102.285 26.0077 102.221 25.9835C102.157 25.9594 102.098 25.9225 102.048 25.8751C101.999 25.8277 101.959 25.7707 101.932 25.7076C101.905 25.6445 101.892 25.5766 101.892 25.508C101.892 25.4394 101.905 25.3715 101.932 25.3084C101.959 25.2453 101.999 25.1883 102.048 25.1409C102.098 25.0935 102.157 25.0566 102.221 25.0325C102.285 25.0083 102.353 24.9975 102.422 25.0005H105.443C105.575 25.009 105.699 25.0652 105.793 25.1587C105.886 25.2522 105.943 25.3766 105.951 25.5085C105.951 25.6431 105.897 25.772 105.802 25.8671C105.707 25.9621 105.578 26.0155 105.443 26.0155H105.44ZM99.372 26.0155H96.328C96.2595 26.0185 96.191 26.0077 96.1268 25.9835C96.0626 25.9594 96.0039 25.9225 95.9543 25.8751C95.9048 25.8277 95.8653 25.7707 95.8384 25.7076C95.8114 25.6445 95.7975 25.5766 95.7975 25.508C95.7975 25.4394 95.8114 25.3715 95.8384 25.3084C95.8653 25.2453 95.9048 25.1883 95.9543 25.1409C96.0039 25.0935 96.0626 25.0566 96.1268 25.0325C96.191 25.0083 96.2595 24.9975 96.328 25.0005H99.375C99.4436 24.9975 99.512 25.0083 99.5763 25.0325C99.6405 25.0566 99.6991 25.0935 99.7487 25.1409C99.7983 25.1883 99.8378 25.2453 99.8647 25.3084C99.8917 25.3715 99.9056 25.4394 99.9056 25.508C99.9056 25.5766 99.8917 25.6445 99.8647 25.7076C99.8378 25.7707 99.7983 25.8277 99.7487 25.8751C99.6991 25.9225 99.6405 25.9594 99.5763 25.9835C99.512 26.0077 99.4436 26.0185 99.375 26.0155H99.372ZM93.303 26.0155H90.285C90.2165 26.0185 90.148 26.0077 90.0838 25.9835C90.0196 25.9594 89.9609 25.9225 89.9114 25.8751C89.8618 25.8277 89.8223 25.7707 89.7954 25.7076C89.7684 25.6445 89.7545 25.5766 89.7545 25.508C89.7545 25.4394 89.7684 25.3715 89.7954 25.3084C89.8223 25.2453 89.8618 25.1883 89.9114 25.1409C89.9609 25.0935 90.0196 25.0566 90.0838 25.0325C90.148 25.0083 90.2165 24.9975 90.285 25.0005H93.306C93.4367 25.0063 93.5602 25.0623 93.6506 25.1568C93.741 25.2514 93.7915 25.3772 93.7915 25.508C93.7915 25.6388 93.741 25.7646 93.6506 25.8592C93.5602 25.9537 93.4367 26.0097 93.306 26.0155H93.303Z" fill="#EAEAFF"/>
<path d="M195.097 36.9844V37.4164H74.4922V36.9844H195.097Z" fill="white"/>
<path d="M86.0451 91.7771C85.359 91.7745 84.7017 91.5008 84.2166 91.0156C83.7314 90.5305 83.4577 89.8732 83.4551 89.1871V51.1271C83.4577 50.441 83.7314 49.7838 84.2166 49.2986C84.7017 48.8135 85.359 48.5397 86.0451 48.5371H87.4161C88.1022 48.5397 88.7594 48.8135 89.2446 49.2986C89.7297 49.7838 90.0034 50.441 90.0061 51.1271V89.1621C90.0085 89.8521 89.7372 90.5148 89.2516 91.005C88.7661 91.4952 88.106 91.7729 87.4161 91.7771H86.0451Z" fill="#EAEAFF"/>
<path d="M98.0549 91.7773C97.4902 91.7739 96.9497 91.5481 96.5504 91.1488C96.1511 90.7495 95.9253 90.209 95.9219 89.6443V64.7873C95.9253 64.2226 96.1511 63.6821 96.5504 63.2828C96.9497 62.8835 97.4902 62.6577 98.0549 62.6543H100.34C100.905 62.6577 101.445 62.8835 101.844 63.2828C102.244 63.6821 102.469 64.2226 102.473 64.7873V89.6443C102.465 90.2077 102.238 90.7459 101.84 91.1443C101.441 91.5427 100.903 91.7698 100.34 91.7773H98.0549Z" fill="#EAEAFF"/>
<path d="M110.953 91.7771C110.267 91.7745 109.61 91.5008 109.125 91.0156C108.64 90.5305 108.366 89.8732 108.363 89.1871V51.1271C108.366 50.441 108.64 49.7838 109.125 49.2986C109.61 48.8135 110.267 48.5397 110.953 48.5371H112.324C113.01 48.5397 113.668 48.8135 114.153 49.2986C114.638 49.7838 114.912 50.441 114.914 51.1271V89.1621C114.917 89.8521 114.645 90.5148 114.16 91.005C113.674 91.4952 113.014 91.7729 112.324 91.7771H110.953Z" fill="#EAEAFF"/>
<path d="M123.927 91.7805C123.334 91.7794 122.766 91.5432 122.347 91.1236C121.928 90.704 121.693 90.1353 121.693 89.5425V61.7145C121.694 61.1223 121.93 60.5547 122.348 60.136C122.767 59.7172 123.335 59.4815 123.927 59.4805H125.984C126.576 59.4815 127.144 59.7172 127.562 60.136C127.981 60.5547 128.217 61.1223 128.218 61.7145V89.5425C128.22 89.8367 128.164 90.1284 128.052 90.4007C127.941 90.6729 127.777 90.9204 127.569 91.1286C127.361 91.3368 127.114 91.5016 126.842 91.6136C126.57 91.7255 126.278 91.7822 125.984 91.7805H123.927Z" fill="#EAEAFF"/>
<path d="M135.989 91.7772C135.499 91.7746 135.029 91.5785 134.682 91.2316C134.334 90.8847 134.138 90.4149 134.135 89.9242V71.8462C134.138 71.3553 134.334 70.8852 134.681 70.5381C135.028 70.191 135.498 69.9948 135.989 69.9922H138.858C139.349 69.9951 139.819 70.1914 140.166 70.5385C140.513 70.8856 140.709 71.3555 140.711 71.8462V89.9242C140.704 90.4137 140.507 90.8813 140.161 91.2274C139.814 91.5736 139.347 91.7712 138.857 91.7782L135.989 91.7772Z" fill="#EAEAFF"/>
<path d="M148.835 91.7805C148.242 91.7794 147.674 91.5432 147.255 91.1236C146.836 90.704 146.601 90.1353 146.601 89.5425V61.7145C146.602 61.1223 146.838 60.5547 147.257 60.136C147.675 59.7172 148.243 59.4815 148.835 59.4805H150.892C151.484 59.4815 152.052 59.7172 152.471 60.136C152.889 60.5547 153.125 61.1223 153.126 61.7145V89.5425C153.128 89.8367 153.072 90.1284 152.961 90.4007C152.849 90.6729 152.685 90.9204 152.477 91.1286C152.269 91.3368 152.022 91.5016 151.75 91.6136C151.478 91.7255 151.186 91.7822 150.892 91.7805H148.835Z" fill="#EAEAFF"/>
<path d="M85.4612 25.0004C82.584 24.9756 79.8143 26.0919 77.7584 28.1048C75.7025 30.1178 74.5281 32.8634 74.4922 35.7404V37.1874H195.097V35.7404C195.061 32.8635 193.887 30.1181 191.831 28.1052C189.776 26.0922 187.006 24.9758 184.129 25.0004H85.4612Z" fill="#EAEAFF"/>
<path d="M168.538 32.6943C168.107 32.7007 167.691 32.5358 167.382 32.2358C167.073 31.9358 166.895 31.5252 166.888 31.0943C166.895 30.6634 167.073 30.2528 167.382 29.9528C167.691 29.6528 168.107 29.4879 168.538 29.4943C168.969 29.4879 169.385 29.6528 169.694 29.9528C170.004 30.2528 170.181 30.6634 170.188 31.0943C170.181 31.5252 170.004 31.9358 169.694 32.2358C169.385 32.5358 168.969 32.7007 168.538 32.6943Z" fill="#FF8870"/>
<path d="M175.978 32.6943C175.547 32.7007 175.131 32.5358 174.822 32.2358C174.513 31.9358 174.335 31.5252 174.328 31.0943C174.335 30.6634 174.513 30.2528 174.822 29.9528C175.131 29.6528 175.547 29.4879 175.978 29.4943C176.409 29.4879 176.825 29.6528 177.134 29.9528C177.444 30.2528 177.621 30.6634 177.628 31.0943C177.621 31.5252 177.444 31.9358 177.134 32.2358C176.825 32.5358 176.409 32.7007 175.978 32.6943Z" fill="#FFD301"/>
<path d="M183.417 32.6943C182.986 32.7007 182.57 32.5358 182.261 32.2358C181.952 31.9358 181.774 31.5252 181.767 31.0943C181.774 30.6634 181.952 30.2528 182.261 29.9528C182.57 29.6528 182.986 29.4879 183.417 29.4943C183.848 29.4879 184.264 29.6528 184.573 29.9528C184.883 30.2528 185.06 30.6634 185.067 31.0943C185.06 31.5252 184.883 31.9358 184.573 32.2358C184.264 32.5358 183.848 32.7007 183.417 32.6943Z" fill="#54CDA2"/>
<path d="M190.883 118.691C189.173 118.689 187.534 118.009 186.326 116.8C185.117 115.591 184.436 113.952 184.434 112.242V73.5974C184.436 71.8878 185.117 70.2488 186.326 69.0399C187.534 67.831 189.173 67.1508 190.883 67.1484H242.223C243.933 67.1508 245.572 67.831 246.781 69.0399C247.989 70.2488 248.67 71.8878 248.672 73.5974V112.242C248.67 113.952 247.989 115.591 246.781 116.8C245.572 118.009 243.933 118.689 242.223 118.691H190.883Z" fill="#EAEAFF"/>
<path d="M248.672 80.123V80.58H184.434V80.123H248.672Z" fill="white"/>
<path d="M223.658 75.7805C223.283 75.7805 222.915 75.669 222.603 75.4603C222.29 75.2515 222.047 74.9547 221.903 74.6076C221.759 74.2604 221.721 73.8784 221.795 73.5098C221.868 73.1412 222.049 72.8027 222.315 72.537C222.581 72.2712 222.919 72.0903 223.288 72.017C223.656 71.9437 224.038 71.9813 224.385 72.1251C224.733 72.2689 225.029 72.5124 225.238 72.8249C225.447 73.1373 225.558 73.5047 225.558 73.8805C225.558 74.3844 225.358 74.8677 225.002 75.224C224.645 75.5803 224.162 75.7805 223.658 75.7805Z" fill="#FF8870"/>
<path d="M232.291 75.7805C231.915 75.7805 231.548 75.669 231.236 75.4603C230.923 75.2515 230.68 74.9547 230.536 74.6076C230.392 74.2604 230.354 73.8784 230.428 73.5098C230.501 73.1412 230.682 72.8027 230.948 72.537C231.213 72.2712 231.552 72.0903 231.92 72.017C232.289 71.9437 232.671 71.9813 233.018 72.1251C233.365 72.2689 233.662 72.5124 233.871 72.8249C234.08 73.1373 234.191 73.5047 234.191 73.8805C234.191 74.3844 233.991 74.8677 233.635 75.224C233.278 75.5803 232.795 75.7805 232.291 75.7805Z" fill="#FFD301"/>
<path d="M240.924 75.7805C240.548 75.7805 240.181 75.669 239.868 75.4603C239.556 75.2515 239.312 74.9547 239.169 74.6076C239.025 74.2604 238.987 73.8784 239.06 73.5098C239.134 73.1412 239.315 72.8027 239.58 72.537C239.846 72.2712 240.185 72.0903 240.553 72.017C240.922 71.9437 241.304 71.9813 241.651 72.1251C241.998 72.2689 242.295 72.5124 242.504 72.8249C242.712 73.1373 242.824 73.5047 242.824 73.8805C242.824 74.3844 242.624 74.8677 242.267 75.224C241.911 75.5803 241.428 75.7805 240.924 75.7805Z" fill="#54CDA2"/>
<path d="M220.261 98.3799C220.11 98.3791 219.962 98.3381 219.833 98.261C219.703 98.1839 219.597 98.0736 219.524 97.9416C219.452 97.8095 219.416 97.6604 219.421 97.5097C219.425 97.3591 219.47 97.2124 219.55 97.0849L224.754 88.9349C224.786 88.8887 224.808 88.8366 224.818 88.7816C224.829 88.7267 224.829 88.6701 224.817 88.6154C224.805 88.5607 224.782 88.509 224.749 88.4635C224.717 88.418 224.675 88.3797 224.627 88.3509C222.957 87.3719 221.07 86.8236 219.135 86.7553C217.2 86.687 215.279 87.1008 213.544 87.9595C211.809 88.8182 210.315 90.0949 209.196 91.6745C208.077 93.2542 207.368 95.0873 207.134 97.0089C206.951 98.5707 207.084 100.153 207.527 101.662C207.97 103.171 208.713 104.575 209.711 105.79C210.709 107.005 211.942 108.006 213.337 108.733C214.731 109.461 216.258 109.899 217.826 110.022C219.393 110.145 220.97 109.95 222.46 109.45C223.951 108.949 225.325 108.153 226.501 107.108C227.677 106.064 228.63 104.793 229.302 103.372C229.975 101.951 230.354 100.408 230.417 98.8369C230.413 98.7169 230.364 98.6028 230.279 98.5179C230.194 98.433 230.08 98.3836 229.96 98.3799H220.261Z" fill="white"/>
<path d="M73.7049 175.645C83.4039 158.633 93.9419 147.587 100.416 142.712C104.578 139.64 108.986 136.914 113.594 134.562L107.983 184.278L92.3419 233.739L60.7559 233.941C60.7559 233.941 64.0059 192.657 73.7049 175.645Z" fill="#F9D2DD"/>
<path d="M104.199 196.211L107.98 184.278L111.587 152.463L107.246 138.143C107.149 138.196 107.056 138.256 106.967 138.321C107.018 142.536 106.535 156.628 98.842 168.637C92.087 179.174 77.996 181.079 71.064 181.332C70.864 181.789 70.658 182.271 70.48 182.732L104.199 196.211Z" fill="#F9ACC0"/>
<path d="M94.7797 188.873C94.7797 188.873 102.6 184.273 106.917 164.041C109.405 152.361 106.917 137.863 106.917 137.863C106.917 137.863 123.369 128.139 140.381 128.951C150.431 129.397 160.393 131.026 170.063 133.803C170.063 133.803 168.971 142.157 168.971 159.448C168.971 176.739 176.537 195.348 176.537 195.348L175.318 233.942H89.3457L94.7797 188.873Z" fill="#3D5CFF"/>
<path d="M132.941 178.359L129.31 214.795L175.623 202.531L149.823 198.595L132.941 178.359Z" fill="#224BF4"/>
<path d="M113.924 134.611V231.781H113.391V134.611H113.924Z" fill="white"/>
<path d="M125.654 130.549V231.781H125.121V130.549H125.654Z" fill="white"/>
<path d="M137.409 134.611V231.781H136.876V134.611H137.409Z" fill="white"/>
<path d="M149.14 134.611V231.781H148.607V134.611H149.14Z" fill="white"/>
<path d="M160.87 131.641V231.782H160.337V131.641H160.87Z" fill="white"/>
<path d="M169.047 31.1198C168.326 31.7587 167.766 32.5591 167.413 33.4557C167.06 34.3523 166.924 35.3196 167.016 36.2788C165.274 35.6733 163.409 35.5091 161.588 35.8007C159.767 36.0923 158.046 36.8306 156.58 37.9498C152.721 40.8698 153.18 45.3888 153.66 47.5218C148.531 47.1158 143.123 49.0218 141.066 53.1078C139.845 55.7888 139.279 58.7219 139.416 61.6648C126.264 60.6998 115.216 69.0028 113.568 80.9648C111.92 92.9268 118.037 99.7788 118.037 99.7788L142.945 107.117C142.945 107.117 153.761 107.853 159.398 102.724C165.035 97.5948 168.564 85.6108 164.324 75.8348C163 73.0451 161.055 70.5957 158.637 68.6748C160.202 67.1096 161.637 65.4197 162.928 63.6218C163.826 62.2872 164.401 60.7621 164.608 59.1669C164.815 57.5718 164.648 55.9503 164.121 54.4308C165.935 54.1538 167.683 53.5436 169.275 52.6308C172.931 50.6508 173.875 46.5118 172.982 42.9308C174.183 42.9653 175.384 42.8646 176.562 42.6308C180.091 41.8688 181.513 37.4768 179.152 33.0838C176.791 28.6908 171.865 28.9108 169.047 31.1198Z" fill="#1F1F39"/>
<path d="M115.549 93.3527C111.233 95.2317 111.512 103.611 117.707 106.302C123.902 108.993 127.432 106.835 127.432 106.835L122.557 93.3527C122.557 93.3527 119.865 91.4737 115.549 93.3527Z" fill="#F9ACC0"/>
<path d="M122.886 105.869L120.804 101.553C118.799 97.3893 116.082 96.0173 116.056 96.0173C115.995 95.99 115.948 95.9401 115.925 95.8783C115.901 95.8166 115.902 95.748 115.929 95.6873C115.956 95.6268 116.006 95.5796 116.068 95.5558C116.13 95.532 116.199 95.5336 116.26 95.5603C116.387 95.6113 119.18 96.9823 121.26 101.349L123.342 105.665C123.368 105.726 123.369 105.795 123.346 105.856C123.322 105.918 123.275 105.968 123.215 105.995C123.19 105.995 123.139 106.02 123.115 106.02C123.066 106.021 123.018 106.007 122.977 105.98C122.936 105.953 122.904 105.915 122.886 105.869Z" fill="#1F1F39"/>
<path d="M118.543 91.0676C118.67 93.7336 119.305 103.357 122.301 108.435C124.173 111.702 127.037 114.29 130.477 115.824C130.612 115.877 130.727 115.973 130.805 116.096C130.882 116.219 130.919 116.364 130.909 116.51C130.833 118.41 130.528 125.117 129.843 127.86C129.234 130.323 128.624 132.303 128.343 133.116C128.302 133.243 128.297 133.379 128.328 133.509C128.36 133.638 128.426 133.757 128.521 133.852C129.613 134.944 133.802 137.026 140.632 137.026C147.386 137.026 151.042 135.35 152.337 134.588C152.465 134.51 152.567 134.396 152.63 134.261C152.693 134.125 152.715 133.974 152.692 133.826C152.311 131.846 150.892 124.279 150.892 120.547C150.892 116.992 151.247 111.99 151.374 110.315C151.385 110.156 151.449 110.005 151.554 109.886C151.66 109.767 151.801 109.686 151.958 109.655C154.167 109.249 162.419 107.243 161.937 99.7546C161.48 92.2386 154.675 92.8996 152.923 93.2036C152.795 93.2264 152.675 93.2831 152.577 93.3679C152.479 93.4527 152.405 93.5625 152.364 93.6856C152.064 94.5486 151.298 96.7326 150.891 98.4336C150.854 98.5975 150.76 98.743 150.626 98.8443C150.492 98.9456 150.326 98.9962 150.158 98.9871C149.991 98.978 149.832 98.9098 149.709 98.7946C149.587 98.6793 149.51 98.5245 149.491 98.3576C149.364 97.4916 149.297 96.6179 149.291 95.7426C149.264 94.8874 149.358 94.0328 149.57 93.2036C149.593 93.1119 149.597 93.0165 149.582 92.9231C149.568 92.8297 149.535 92.7401 149.485 92.6597C149.435 92.5792 149.37 92.5096 149.293 92.4548C149.216 92.4 149.129 92.3612 149.037 92.3406C147.107 91.8836 142.156 90.3096 139.592 86.0186C138.482 84.2404 137.563 82.3499 136.851 80.3786C136.805 80.2437 136.721 80.1254 136.608 80.0389C136.495 79.9525 136.358 79.9019 136.216 79.8938C136.074 79.8856 135.933 79.9202 135.811 79.993C135.689 80.0659 135.591 80.1738 135.531 80.3026C134.067 83.2269 131.71 85.6088 128.802 87.1026C125.827 88.7768 122.561 89.8724 119.179 90.3316C118.998 90.3479 118.831 90.4338 118.712 90.5711C118.593 90.7084 118.533 90.8864 118.543 91.0676Z" fill="#F9D2DD"/>
<path d="M193.041 156.752C199.241 170.514 201.978 199.51 201.395 209.92C200.836 219.645 197.333 230.69 185.729 233.127C174.151 235.564 132.307 233.124 132.307 233.124V205.349L173.059 202.658L169.834 184.047C169.834 184.047 165.797 165.689 167.143 151.674C168.463 137.607 169.555 133.824 169.555 133.824C169.555 133.824 184.459 137.709 193.041 156.752Z" fill="#F9D2DD"/>
<path d="M138.426 90.6349C138.898 90.4041 139.425 90.3076 139.949 90.3559C140.209 90.3788 140.466 90.4388 140.71 90.5339C140.963 90.6097 141.197 90.7397 141.396 90.9149C141.603 91.0696 141.767 91.2739 141.875 91.5089C141.982 91.744 142.028 92.0022 142.01 92.2599C141.949 92.0409 141.846 91.8361 141.706 91.6573C141.565 91.4786 141.391 91.3296 141.193 91.2189C140.796 91.0211 140.365 90.9007 139.924 90.8639C139.478 90.8249 139.029 90.8766 138.604 91.0159C138.161 91.1679 137.754 91.41 137.41 91.7269C137.613 91.2568 137.971 90.8711 138.426 90.6349Z" fill="#1F1F39"/>
<path d="M123.928 90.7629C124.322 90.4093 124.821 90.1953 125.349 90.1539C125.614 90.1287 125.881 90.1545 126.136 90.2299C126.394 90.3246 126.634 90.4618 126.847 90.6359C127.033 90.812 127.181 91.0247 127.282 91.2606C127.382 91.4964 127.433 91.7505 127.431 92.0069C127.253 91.5834 126.964 91.2161 126.594 90.9439C126.417 90.8221 126.219 90.7349 126.01 90.6869C125.91 90.6869 125.81 90.6359 125.71 90.6359H125.41C124.969 90.6659 124.544 90.8152 124.181 91.0679C123.774 91.3177 123.414 91.6353 123.115 92.0069C123.266 91.5251 123.547 91.0945 123.928 90.7629Z" fill="#1F1F39"/>
<path d="M131.799 95.1543C131.672 95.5093 131.545 95.8403 131.444 96.1953C131.343 96.5503 131.244 96.8813 131.165 97.2363C131.078 97.5587 131.053 97.8944 131.089 98.2263C131.11 98.3752 131.172 98.5154 131.267 98.6323C131.303 98.7024 131.355 98.7633 131.419 98.8103L131.495 98.8863L131.595 98.9623C131.872 99.1678 132.194 99.3067 132.534 99.3683C132.893 99.4455 133.258 99.4963 133.626 99.5203C133.262 99.6174 132.884 99.6513 132.509 99.6203C132.116 99.5969 131.734 99.484 131.392 99.2903C131.208 99.1841 131.048 99.0416 130.921 98.8713C130.795 98.7011 130.704 98.5067 130.656 98.3003C130.596 97.9037 130.613 97.4993 130.707 97.1093C130.868 96.3673 131.124 95.6492 131.469 94.9723C131.769 94.3045 132.135 93.6681 132.561 93.0723L131.799 95.1543Z" fill="#1F1F39"/>
<path d="M125.807 98.5311C125.269 98.4876 124.771 98.2341 124.419 97.8254C124.067 97.4168 123.891 96.886 123.928 96.3481C123.89 95.81 124.067 95.2789 124.419 94.8701C124.77 94.4612 125.269 94.2075 125.807 94.1641C126.344 94.2075 126.843 94.4612 127.195 94.8701C127.547 95.2789 127.723 95.81 127.686 96.3481C127.723 96.886 127.546 97.4168 127.195 97.8254C126.843 98.2341 126.344 98.4876 125.807 98.5311Z" fill="#1F1F39"/>
<path d="M139.289 98.5311C138.751 98.4876 138.253 98.2341 137.901 97.8254C137.549 97.4168 137.373 96.886 137.41 96.3481C137.372 95.81 137.549 95.2789 137.901 94.8701C138.252 94.4612 138.751 94.2075 139.289 94.1641C139.826 94.2075 140.325 94.4612 140.677 94.8701C141.029 95.2789 141.205 95.81 141.168 96.3481C141.205 96.886 141.028 97.4168 140.676 97.8254C140.325 98.2341 139.826 98.4876 139.289 98.5311Z" fill="#1F1F39"/>
<path d="M142.183 204.562V233.127C142.183 233.127 151.222 233.66 162.064 233.965L152.314 203.902L142.183 204.562Z" fill="#F9ACC0"/>
<path d="M136.064 106.605C135.526 106.562 135.028 106.308 134.676 105.9C134.324 105.491 134.148 104.96 134.185 104.422C134.147 103.884 134.324 103.353 134.675 102.944C135.027 102.535 135.526 102.282 136.064 102.238C136.601 102.282 137.1 102.535 137.452 102.944C137.804 103.353 137.98 103.884 137.943 104.422C137.98 104.96 137.803 105.491 137.451 105.9C137.1 106.308 136.601 106.562 136.064 106.605Z" fill="#F95368"/>
<path d="M60.2228 233.685C59.1419 233.609 58.1049 233.228 57.2327 232.585C56.3605 231.942 55.6891 231.064 55.2968 230.054L45.0138 173.662C44.2768 171.681 45.3178 170.031 47.3238 170.031H138.07C139.151 170.107 140.188 170.489 141.06 171.132C141.932 171.775 142.603 172.652 142.996 173.662L153.277 230.054C154.013 232.06 152.977 233.685 150.966 233.685H60.2228Z" fill="#EAEAFF"/>
<path d="M98 206C96.8133 206 95.6533 205.648 94.6666 204.989C93.6799 204.33 92.9109 203.392 92.4567 202.296C92.0026 201.2 91.8838 199.993 92.1153 198.829C92.3468 197.666 92.9182 196.596 93.7574 195.757C94.5965 194.918 95.6656 194.347 96.8295 194.115C97.9933 193.884 99.1997 194.003 100.296 194.457C101.392 194.911 102.33 195.68 102.989 196.667C103.648 197.653 104 198.813 104 200C104 201.591 103.368 203.117 102.243 204.243C101.117 205.368 99.5913 206 98 206Z" fill="white"/>
<g opacity="0.635">
<path opacity="0.635" d="M143.986 106.379C140.873 106.379 138.349 104.833 138.349 102.926C138.349 101.019 140.873 99.4727 143.986 99.4727C147.099 99.4727 149.623 101.019 149.623 102.926C149.623 104.833 147.099 106.379 143.986 106.379Z" fill="#F9ACC0"/>
<path opacity="0.635" d="M124.004 106.381C120.891 106.381 118.367 104.835 118.367 102.928C118.367 101.021 120.891 99.4746 124.004 99.4746C127.117 99.4746 129.641 101.021 129.641 102.928C129.641 104.835 127.117 106.381 124.004 106.381Z" fill="#F9ACC0"/>
</g>
<path d="M137.359 117.143C135.147 116.946 132.951 116.607 130.783 116.127C130.863 116.257 130.907 116.406 130.91 116.559C130.859 118.158 130.63 123.084 130.148 126.258C132.586 125.75 137.156 124.527 139.822 122.246C141.852 120.58 143.669 118.67 145.23 116.559C142.641 117.083 139.997 117.279 137.359 117.143Z" fill="#F9ACC0"/>
<path d="M130.834 116.254C130.802 116.243 130.773 116.225 130.749 116.202C130.725 116.178 130.706 116.15 130.694 116.119C130.682 116.087 130.677 116.054 130.679 116.02C130.681 115.987 130.691 115.954 130.707 115.924C130.718 115.893 130.736 115.864 130.759 115.84C130.783 115.816 130.811 115.797 130.842 115.785C130.874 115.773 130.907 115.768 130.941 115.77C130.974 115.772 131.007 115.781 131.037 115.797C133.509 116.681 136.136 117.046 138.756 116.867C141.198 116.762 143.624 116.403 145.993 115.797C146.024 115.786 146.057 115.782 146.091 115.785C146.124 115.788 146.156 115.798 146.185 115.815C146.214 115.832 146.238 115.855 146.257 115.883C146.275 115.911 146.288 115.942 146.293 115.975C146.304 116.007 146.308 116.04 146.305 116.074C146.302 116.107 146.292 116.139 146.275 116.168C146.258 116.196 146.235 116.221 146.207 116.24C146.179 116.258 146.148 116.27 146.115 116.275C143.711 116.884 141.253 117.25 138.777 117.367C138.345 117.367 137.939 117.392 137.533 117.392C135.249 117.422 132.979 117.036 130.834 116.254Z" fill="#1F1F39"/>
<path d="M151.527 104.907C150.83 106.715 150.786 108.71 151.4 110.548V110.396C151.411 110.237 151.475 110.086 151.58 109.967C151.686 109.848 151.828 109.767 151.984 109.736C152.783 109.583 153.572 109.379 154.345 109.127C153.812 107.151 153.657 105.092 153.888 103.059C154.157 101.245 154.715 99.4858 155.539 97.8477C155.539 97.8477 153.203 99.7017 151.527 104.907Z" fill="#F9ACC0"/>
<path d="M150.918 107.114C151.049 105.089 151.611 103.115 152.568 101.325C153.48 99.3951 154.925 97.7656 156.732 96.6285C156.762 96.6112 156.795 96.6001 156.829 96.5958C156.863 96.5915 156.898 96.5941 156.931 96.6034C156.964 96.6127 156.995 96.6286 157.021 96.6501C157.048 96.6715 157.071 96.6982 157.087 96.7285C157.104 96.7582 157.115 96.7911 157.12 96.8252C157.124 96.8594 157.121 96.894 157.112 96.9271C157.103 96.9602 157.087 96.9911 157.065 97.018C157.044 97.0448 157.017 97.0671 156.987 97.0835C155.289 98.1839 153.927 99.7309 153.051 101.554C152.135 103.276 151.59 105.17 151.451 107.115C151.437 107.182 151.402 107.242 151.352 107.287C151.302 107.333 151.239 107.362 151.172 107.369C151.139 107.369 151.105 107.363 151.075 107.35C151.044 107.337 151.016 107.318 150.992 107.295C150.968 107.271 150.95 107.243 150.937 107.212C150.924 107.181 150.918 107.148 150.918 107.114Z" fill="#1F1F39"/>
<path d="M177.096 137.506C174.765 135.919 172.217 134.679 169.53 133.824C169.53 133.824 168.438 137.607 167.092 151.624C166.203 160.789 167.625 171.808 168.713 178.334C168.745 171.096 169.469 163.878 170.875 156.777C172.957 146.469 175.446 140.578 177.096 137.506Z" fill="#F9ACC0"/>
<path d="M184.916 201.569L171.687 194.561L173.007 202.432L184.916 201.569Z" fill="#F9ACC0"/>
<path d="M172.801 202.557C172.776 202.43 172.901 202.303 173.03 202.278L185.068 201.132C185.135 201.126 185.202 201.146 185.254 201.189C185.307 201.232 185.34 201.294 185.347 201.361C185.372 201.488 185.247 201.615 185.118 201.64L173.058 202.786C172.995 202.784 172.935 202.76 172.888 202.718C172.841 202.676 172.81 202.619 172.801 202.557Z" fill="#1F1F39"/>
<path d="M34.237 234.691C34.105 234.691 34 234.469 34 234.191C34 233.913 34.105 233.691 34.237 233.691H223.763C223.894 233.691 224 233.913 224 234.191C224 234.469 223.895 234.691 223.763 234.691H34.237Z" fill="#1F1F39"/>
</svg>
